SplineFontDB: 3.0
FontName: GoudyBookletter1911LightCondensed
FullName: GoudyBookletter1911Light Condensed
FamilyName: GoudyBookletter1911LightCondensed
Weight: Condensed
Copyright: This font has been released into the public domain by its author, Barry Schwartz. This applies worldwide.\n\nIn some countries this may not be legally possible; if so:\n\nBarry Schwartz grants anyone the right to use this work for any purpose, without any conditions, unless such conditions are required by law.
Version: 2010.07.03
ItalicAngle: 0
UnderlinePosition: -90
UnderlineWidth: 45
Ascent: 737
Descent: 263
LayerCount: 2
Layer: 0 0 "Back"  1
Layer: 1 0 "Fore"  0
NeedsXUIDChange: 1
XUID: [1021 658 797806517 331928]
UniqueID: 4088483
FSType: 0
OS2Version: 3
OS2_WeightWidthSlopeOnly: 0
OS2_UseTypoMetrics: 1
CreationTime: 1199071125
ModificationTime: 1329137375
PfmFamily: 17
TTFWeight: 400
TTFWidth: 5
LineGap: 90
VLineGap: 0
Panose: 2 0 5 3 0 0 0 0 0 0
OS2TypoAscent: 0
OS2TypoAOffset: 1
OS2TypoDescent: 0
OS2TypoDOffset: 1
OS2TypoLinegap: 90
OS2WinAscent: 0
OS2WinAOffset: 1
OS2WinDescent: -1
OS2WinDOffset: 1
HheadAscent: 0
HheadAOffset: 1
HheadDescent: 1
HheadDOffset: 1
OS2SubXSize: 650
OS2SubYSize: 700
OS2SubXOff: 0
OS2SubYOff: 140
OS2SupXSize: 650
OS2SupYSize: 700
OS2SupXOff: 0
OS2SupYOff: 480
OS2StrikeYSize: 49
OS2StrikeYPos: 258
OS2Vendor: 'PfEd'
OS2CodePages: 00000092.0d940000
OS2UnicodeRanges: 8000002f.0000004a.00000000.00000000
Lookup: 1 0 0 "'ss01' Style Set 1 in Latin lookup 0"  {"'ss01' Style Set 1 in Latin lookup 0 subtable"  } ['aalt' ('DFLT' <'dflt' > 'latn' <'dflt' > ) 'ss01' ('DFLT' <'dflt' > 'latn' <'dflt' > ) ]
Lookup: 4 0 1 "'liga' Standard Ligatures in Latin lookup 1"  {"'liga' Standard Ligatures in Latin lookup 1 per glyph data 0"  "'liga' Standard Ligatures in Latin lookup 1 per glyph data 1"  "'liga' Standard Ligatures in Latin lookup 1 per glyph data 2"  "'liga' Standard Ligatures in Latin lookup 1 per glyph data 3"  } ['liga' ('DFLT' <'dflt' > 'latn' <'dflt' > ) ]

StartChar: .notdef
Encoding: 65536 -1 0
Width: 450
Flags: HW
HStem: 0 50<130 370> 441 50<130 370>
VStem: 90 40<50 441> 370 40<50 441>
LayerCount: 2
Fore
SplineSet
106 20 m 1
 106 471 l 1
 394 471 l 1
 394 20 l 1
 106 20 l 1
114 30 m 1
 386 30 l 1
 386 461 l 1
 114 461 l 1
 114 30 l 1
EndSplineSet
EndChar

StartChar: exclam
Encoding: 33 33 2
Width: 292
GlyphClass: 2
Flags: HW
HStem: -16 101<131.168 198.313>
VStem: 118.901 76.8<367.096 637.634> 123.701 82.4<-6.4071 75.7681> 134.101 25.6<195.064 282.718>
LayerCount: 2
Fore
SplineSet
179.7 647.841 m 1
 179.7 625 l 0
 179.7 456.057 160.342 307.924 150.016 246.16 c 1
 145.263 460.728 135.754 598.591 134.905 611.681 c 1
 134.944 613.661 135.086 614.55 135.123 614.802 c 1
 135.514 615.188 136.648 616.156 137.598 616.896 c 1
 158.84 632.516 173.323 643.234 179.7 647.841 c 1
165.301 65 m 0
 178.364 65 190.101 51.499 190.101 34 c 0
 190.101 18.0449 179.718 4 165.301 4 c 0
 151.655 4 139.7 17.0752 139.7 35 c 0
 139.7 52.5527 151.211 65 165.301 65 c 0
EndSplineSet
EndChar

StartChar: quotedbl
Encoding: 34 34 3
Width: 350
GlyphClass: 2
Flags: HW
HStem: 457 258
VStem: 69.4 251.2
LayerCount: 2
Fore
SplineSet
159 695 m 0
 167.649 695 172.6 687.771 172.6 677 c 0
 172.6 667.92 168.743 659.927 163.401 647.686 c 1
 139.374 594.188 92.876 491.212 86.9502 479.004 c 1
 86.3975 478.255 85.7412 477.559 85.6729 477.491 c 1
 85.4795 478.04 85.4004 478.593 85.4004 479 c 0
 85.4004 480 l 0
 85.4004 480.127 l 1
 86.0703 484.291 93.7432 512.497 131.67 652.275 c 1
 139.469 678.269 147.453 695 159 695 c 0
291.8 695 m 0
 299.312 695 304.6 688.047 304.6 677 c 0
 304.6 667.191 301.101 658.886 296.25 647.798 c 1
 270.511 592.179 225.452 491.147 219.36 479.582 c 1
 218.414 478.23 217.874 477.693 217.673 477.491 c 1
 217.48 478.04 217.4 478.593 217.4 479 c 0
 217.4 480 l 0
 217.4 480.1 l 1
 218.175 484.732 225.937 512.68 264.553 652.578 c 1
 271.477 678.543 279.301 695 291.8 695 c 0
EndSplineSet
EndChar

StartChar: numbersign
Encoding: 35 35 4
Width: 496
GlyphClass: 2
Flags: HW
HStem: 157 45<98.4114 177.598 220.11 310.271 352.989 453.584> 353 45<98.4163 199.198 242.402 331.999 375.201 453.513>
VStem: 177.6 36<-3.6207 156.771> 206.4 36<398 553.952> 310.4 35.2<-10.2178 157> 316.8 36<202 347.564> 339.2 36<398 558.829>
LayerCount: 2
Fore
SplineSet
348 348 m 0
 348 361.001 336.462 373 326.4 373 c 0
 242.4 373 l 0
 228.87 373 220.965 357.284 219.678 350.851 c 0
 219.453 349.731 l 1
 219.334 348.587 l 0
 214.436 301.645 204 217.691 204 207 c 0
 204 185.492 222.492 182 226.4 182 c 0
 308 182 l 0
 310.208 182 330.288 183.635 332.663 207.387 c 1
 343.89 308.626 348 334.17 348 348 c 0
198.72 198.436 m 1
 204.58 248.662 215.2 337.37 215.2 348 c 0
 215.2 368.63 197.891 373 193.6 373 c 0
 114.431 373 l 1
 114.408 373.729 114.4 374.257 114.4 375 c 0
 114.4 376.134 114.434 377.185 114.463 378 c 1
 199.2 378 l 0
 211.923 378 222.4 392.223 222.4 406 c 0
 222.4 407 222.299 404.197 222.242 403.2 c 1
 237.666 539.532 241.851 582.035 243.458 594.818 c 1
 244.976 594.958 246.108 595 248 595 c 1
 244.02 557.088 226.4 413.94 226.4 403 c 0
 226.4 381.492 244.892 378 248.8 378 c 0
 332 378 l 0
 335.379 378 352.71 381.795 355.042 402.2 c 0
 370.215 536.314 374.852 580.696 376.764 595 c 1
 379.957 595 l 1
 375.628 551.794 359.2 417.471 359.2 403 c 0
 359.2 393.566 367.036 378 379.2 378 c 0
 437.402 378 l 1
 437.532 376.284 437.565 374.975 437.6 373 c 1
 372 373 l 0
 354.494 373 352.817 353.312 352.817 353.312 c 1
 352.334 351.497 l 1
 352.135 349.587 l 0
 347.228 302.565 336.8 217.766 336.8 208 c 0
 336.8 193.165 348.571 182 358.4 182 c 0
 437.568 182 l 1
 437.592 181.271 437.6 180.743 437.6 180 c 0
 437.6 178.875 437.56 177.417 437.545 177 c 1
 356 177 l 0
 339.249 177 331.161 159.37 329.784 149.035 c 1
 315.272 19.9014 311.967 -13.835 310.688 -22.7549 c 1
 309.52 -22.9307 307.989 -22.9912 307.797 -22.9951 c 1
 311.604 15.4131 326.4 140.892 326.4 151 c 0
 326.4 173.196 308.009 177 304 177 c 0
 248.8 177 l 0
 238.616 177 231.339 176.918 225.654 176.542 c 0
 214.181 175.784 199.638 168.253 197.752 151.751 c 0
 183.862 26.749 179.898 -11.2422 178.467 -22.7441 c 1
 176.467 -22.9414 175.268 -22.9639 174.261 -22.9893 c 1
 178.159 14.0303 193.6 139.921 193.6 150 c 0
 193.6 168.413 178.967 177 170.4 177 c 0
 114.4 177 l 1
 114.401 179.093 114.412 180.707 114.426 182 c 1
 180.8 182 l 0
 180.8 182 193.998 179.55 198.72 198.436 c 1
EndSplineSet
EndChar

StartChar: dollar
Encoding: 36 36 5
Width: 427
GlyphClass: 2
Flags: HW
HStem: 1 41<142.83 190.598> 599 39<153.782 190.593 224.2 253.824>
VStem: 54.6 72.8<74.0898 178.771> 74.6 46.4<446.429 562.384> 190.6 32.8<-96.9934 1.49219 48.8126 294.997 409.001 594.467 636.303 684.991> 307.4 56<101.123 239.657>
LayerCount: 2
Fore
SplineSet
224.201 618.545 m 1
 217.374 616.482 208.2 607.026 208.2 594 c 0
 208.2 420 l 0
 208.2 415.693 207.4 410.144 207.4 404 c 0
 207.4 366.902 234.981 364.301 255.562 353.582 c 1
 319.513 319.19 333.672 273.964 340.874 244.253 c 0
 345.212 226.181 347.4 207.009 347.4 189 c 0
 347.4 89.0566 289.248 35.6611 227.17 22.7275 c 0
 226.539 22.5967 l 1
 225.919 22.4023 l 0
 210.479 17.5781 207.4 -2.84375 207.4 -9 c 0
 207.4 -9 l 0
 207.4 3.88574 198.261 21 184.442 21 c 1
 113.029 23.7051 70.5996 93.541 70.5996 133 c 0
 70.5996 155.214 81.6807 168 93.7998 168 c 0
 103.315 168 111.4 161.095 111.4 142 c 0
 111.4 133.624 109 123.333 109 107 c 0
 109 36.623 166.283 22 186.6 22 c 0
 192.268 22 206.6 28.6318 206.6 46 c 0
 206.6 306 l 0
 206.6 322.595 196.535 336.194 186.188 338.709 c 1
 120.403 356.882 90.5996 427.143 90.5996 484 c 0
 90.5996 555.119 131.701 610.903 184.644 616.06 c 0
 185.341 616.128 l 1
 186.03 616.271 l 0
 191.049 617.318 206.6 624.915 206.6 644 c 0
 206.6 665 l 1
 207.4 665 l 0
 207.771 665 208.2 664.98 208.2 664.98 c 1
 208.2 644 l 0
 208.2 638.749 211.433 622.889 224.201 618.545 c 1
242.506 615.084 m 1
 298.965 600.273 326.6 554.835 326.6 531 c 0
 326.6 514.865 319.841 507 309.8 507 c 0
 274.125 507 308.035 582.493 242.506 615.084 c 1
188.2 619 m 0
 167.162 619 105 585.727 105 504 c 0
 105 416.746 176.517 389 186.6 389 c 0
 198.764 389 206.6 404.566 206.6 414 c 0
 206.6 572 l 0
 206.6 582.643 212.492 619 188.2 619 c 0
229 315 m 0
 211.557 315 207.4 292.422 207.4 286 c 0
 207.4 165.064 206.6 105.35 206.6 75 c 0
 206.6 55.6211 204.136 24 225.8 24 c 0
 227.4 24 l 0
 248.664 24 323.4 68.6797 323.4 171 c 0
 323.4 272.867 246.829 315 229 315 c 0
EndSplineSet
EndChar

StartChar: percent
Encoding: 37 37 6
Width: 738
GlyphClass: 2
Flags: HW
HStem: -93 39<558.821 630.838> 170 38<200.421 272.438> 252 38<548.949 619.042> 515 38<190.626 260.642>
VStem: 114.8 48<264.374 459.62> 298.8 48<265.244 456.628> 473.2 48<2.06218 116 118 196.557> 657.2 48<2.68817 193.628>
LayerCount: 2
Fore
SplineSet
252.4 -103 m 0
 247.195 -103 248.435 -104.527 248.435 -104.527 c 1
 250.117 -100.472 249.205 -102.71 249.911 -100.944 c 1
 525.733 487.368 561.188 563.014 565.554 571.089 c 1
 566.291 572.196 l 0
 567.1 573.409 568.736 575 572.4 575 c 0
 580.791 575 580.4 577 580.4 577 c 0
 580.4 577 581.414 579.956 579.887 577.094 c 0
 579.653 576.656 l 1
 579.439 576.204 l 0
 294.706 -23.7734 263.041 -90.3145 258.644 -97.9121 c 1
 258.173 -98.499 l 1
 257.709 -99.1963 l 0
 255.564 -102.413 254.517 -103 252.4 -103 c 0
225.2 535 m 0
 155.639 535 146.8 423.448 146.8 379 c 0
 146.8 336.251 154.308 249.081 190.893 209.701 c 1
 208.265 191.818 226.001 188 236.4 188 c 0
 298.883 188 308.545 271.848 310.613 289.941 c 1
 313.053 308.242 314.8 328.677 314.8 348 c 0
 314.8 425.001 291.604 535 225.2 535 c 0
236.4 533 m 0
 272.216 533 330.8 502.766 330.8 375 c 0
 330.8 259.414 285.68 190 225.2 190 c 0
 189.174 190 130.8 219.435 130.8 346 c 0
 130.8 477.157 183.507 533 236.4 533 c 0
583.6 272 m 0
 514.286 272 504.4 162.01 504.4 118 c 0
 504.4 113.279 l 1
 505.24 111.179 l 1
 505.933 68.3164 514.112 -14.4297 549.087 -52.0771 c 1
 566.393 -71.165 585.35 -74 594.8 -74 c 0
 657.234 -74 666.948 9.73828 669.004 26.8721 c 1
 671.465 45.3301 673.2 65.7031 673.2 86 c 0
 673.2 162.071 649.979 272 583.6 272 c 0
594.8 270 m 0
 630.616 270 689.2 239.766 689.2 112 c 0
 689.2 -2.61426 644.005 -73 583.6 -73 c 0
 547.573 -73 489.2 -43.5654 489.2 83 c 0
 489.2 214.157 541.907 270 594.8 270 c 0
EndSplineSet
EndChar

StartChar: ampersand
Encoding: 38 38 7
Width: 746
GlyphClass: 2
Flags: HW
HStem: -23 77<286.558 433.3> 154 35<397.734 457.955> 360 32<230.882 324.802> 384 62<189.027 223.571> 440 33<229.254 324.366> 645 56<205.055 282.865> 677 38<598.71 663.78>
VStem: 107.9 63.2<178.938 345.842> 130.3 35.2<460.076 594.439> 163.9 60.8<400.864 431.197> 326.3 28<395.011 436.183> 354.3 28.8<206.326 300.965> 458.3 42.4<191.42 247> 542.3 56<616.704 676.103> 552.7 26.4<156.893 293.79> 698.3 32.8<504.154 630.001>
LayerCount: 2
Fore
SplineSet
472.347 194.746 m 1
 473.409 198.094 474.3 202.446 474.3 206 c 0
 474.3 239.598 441.764 241.57 441.764 241.57 c 1
 439.896 245.446 439.1 249.051 439.1 252 c 0
 439.1 259.359 444.104 268 454.3 268 c 0
 469.303 268 484.7 251.934 484.7 230 c 0
 484.7 218.074 480.359 205.263 472.347 194.746 c 1
714.27 566.629 m 1
 714.809 560.585 715.1 554.308 715.1 548 c 0
 715.1 452.655 645.642 373.828 563.757 372 c 1
 562.212 372 535.9 373.136 535.9 344 c 0
 535.9 333.881 538.626 331.247 539.955 328.292 c 1
 522.691 352.244 498.049 367 469.5 367 c 0
 439.616 367 412.383 350.786 393.52 326.971 c 1
 404.91 343.456 420.36 358.428 439.056 370.111 c 0
 501.418 409.087 574.67 399.393 635.987 432.717 c 1
 672.139 453.159 712.823 496.649 714.27 566.629 c 1
166.142 455.17 m 1
 157.109 471.127 146.3 493.84 146.3 529 c 0
 146.3 607.386 204.845 681 270.3 681 c 0
 301.533 681 339.9 664.697 339.9 640 c 0
 339.9 626.238 329.391 615 319.9 615 c 0
 303.581 615 300.948 665 250.3 665 c 0
 208.013 665 149.5 613.293 149.5 529 c 0
 149.5 500.971 156.983 474.241 166.142 455.17 c 1
600.991 693.694 m 1
 598.259 692.662 582.3 688.414 582.3 668 c 0
 582.3 634.044 595.1 650.407 595.1 633 c 0
 595.1 621.388 588.291 612 578.3 612 c 0
 567.862 612 558.3 624.048 558.3 641 c 0
 558.3 665.654 575.588 687.847 600.991 693.694 c 1
501.846 71.9033 m 1
 461.354 26.584 404.053 -3 340.7 -3 c 0
 215.134 -3 123.9 113.995 123.9 245 c 0
 123.9 343.559 169.226 388.838 176.192 404.077 c 0
 176.412 404.559 l 1
 176.611 405.056 l 0
 178.277 409.223 179.9 413.218 179.9 421 c 0
 179.9 422 l 2
 179.9 432.268 176.265 437.374 174.285 441.081 c 1
 178.929 434.683 185.692 426 196.7 426 c 0
 217.396 426 238.156 453 284.7 453 c 0
 321.634 453 338.3 432.883 338.3 417 c 0
 338.3 401.857 319.644 380 280.7 380 c 0
 279.9 380 l 0
 237.405 380 223.596 404 203.1 404 c 0
 186.606 404 181.85 388.559 178.923 382.179 c 1
 178.754 381.805 l 0
 162.956 346.696 155.1 307.321 155.1 268 c 0
 155.1 173.454 208.529 43.5039 370.352 34.0215 c 0
 370.726 34 l 1
 385.5 34 l 0
 434.821 34 473.343 48.7383 501.846 71.9033 c 1
292.7 372 m 0
 306.051 372 342.3 374.199 342.3 415 c 0
 342.3 438.179 325.547 460 291.9 460 c 0
 257.551 460 208.7 454.979 208.7 417 c 0
 208.7 404.68 215.034 397.798 215.786 396.858 c 0
 216.591 395.853 l 1
 217.5 395 l 0
 241.274 372.712 266.488 372 292.7 372 c 0
EndSplineSet
EndChar

StartChar: quotesingle
Encoding: 39 39 8
Width: 201
GlyphClass: 2
Flags: HW
HStem: 457 258
VStem: 52.9 119.2
LayerCount: 2
Fore
SplineSet
142.5 695 m 0
 151.149 695 156.1 687.771 156.1 677 c 0
 156.1 669.155 152.028 659.435 146.901 647.686 c 1
 122.874 594.188 76.376 491.212 70.4502 479.004 c 1
 69.9492 478.325 69.5137 477.846 69.2617 477.576 c 1
 69.0195 478.344 68.9004 479.083 68.9004 480 c 0
 68.9004 480.667 l 1
 69.9492 486.176 78.2461 516.192 115.17 652.275 c 1
 122.969 678.269 130.953 695 142.5 695 c 0
EndSplineSet
EndChar

StartChar: parenleft
Encoding: 40 40 9
Width: 353
GlyphClass: 2
Flags: HW
HStem: 698 20G<296.015 305.615>
VStem: 99.2146 60.8<116.498 405.186>
LayerCount: 2
Fore
SplineSet
300.01 -173.794 m 0
 299.8 -173.914 299.531 -174 299.215 -174 c 0
 296.861 -174 294.488 -173.166 290.16 -168.529 c 1
 185.819 -66.3291 115.215 90.9014 115.215 262 c 0
 115.215 416.587 177.113 577.931 286.618 688.191 c 1
 294.202 695.325 298.277 698 300.814 698 c 0
 301.085 698 301.337 697.967 301.492 697.945 c 1
 300.959 696.014 298.983 693.181 296.42 690.617 c 0
 296.053 690.251 l 1
 296.053 690.251 793.262 1250.06 295.705 689.859 c 0
 212.038 595.628 144.015 448.353 144.015 263 c 0
 144.015 95.3213 199.879 -56.0508 292.176 -161.485 c 1
 297.767 -168.335 299.886 -172.265 300.01 -173.794 c 0
EndSplineSet
EndChar

StartChar: parenright
Encoding: 41 41 10
Width: 359
GlyphClass: 2
Flags: HW
HStem: 702 20G<119.632 127.632>
VStem: 262.432 60.8<121.91 410.739>
LayerCount: 2
Fore
SplineSet
123.232 701 m 0
 123.232 701.5 123.287 701.739 123.3 701.8 c 1
 123.427 701.888 123.665 702 124.032 702 c 0
 124.795 702 127.081 701.142 133.497 695.127 c 1
 237 593.752 307.232 436.028 307.232 265 c 0
 307.232 110.412 245.332 -50.9297 135.829 -161.191 c 1
 128.244 -168.326 124.169 -171 121.633 -171 c 0
 121.385 -171 121.124 -170.926 120.974 -170.865 c 1
 121.821 -168.959 124.922 -165.091 127.841 -161.522 c 1
 211.713 -66.7686 278.433 78.999 278.433 264 c 0
 278.433 432.499 223.704 582.991 130.863 689.721 c 0
 130.863 689.721 1113.15 -439.206 130.575 690.052 c 1
 130.275 690.364 l 0
 124.765 696.105 123.232 699.09 123.232 701 c 0
EndSplineSet
EndChar

StartChar: asterisk
Encoding: 42 42 11
Width: 301
GlyphClass: 2
Flags: HW
HStem: 448 21G<244.3 265.9> 497 109<118.417 142.299 191.901 214.508> 701 20G<160.7 179.9>
VStem: 136.7 62.4<389.462 485.336 613.573 717.469> 142.3 49.6<426.987 496.937 607.071 673.685>
LayerCount: 2
Fore
SplineSet
274.3 617 m 0
 274.3 595.541 199.9 603.031 199.9 552 c 0
 199.9 495.261 272.7 525.664 272.7 487 c 0
 272.7 475.634 265.019 468 258.3 468 c 0
 240.835 468 229.109 521 197.5 521 c 0
 181.659 521 175.9 500.151 175.9 492 c 0
 175.9 463.161 183.101 430.912 183.101 423 c 0
 183.101 409.618 170.772 404.14 165.481 404 c 1
 162.03 404.089 152.7 406.218 152.7 426 c 0
 152.7 443.282 158.3 466.771 158.3 486 c 0
 158.3 489.013 158.092 517 137.5 517 c 0
 106.189 517 90.5586 473 70.2998 473 c 0
 65.3789 473 61.3379 481.876 60.7021 488.283 c 1
 61.2832 511.708 133.5 508.562 133.5 560 c 0
 133.5 617.283 63.1006 590.487 63.1006 624 c 0
 63.1006 630.624 70.583 639 77.5 639 c 0
 89.3281 639 102.062 586 139.9 586 c 0
 150.301 586 159.9 600.423 159.9 613 c 0
 159.9 632.126 152.7 655.829 152.7 676 c 0
 152.7 700.064 159.323 701 168.7 701 c 0
 179.88 701 183.9 695.64 183.9 675 c 0
 183.9 650.546 174.3 626.294 174.3 609 c 0
 174.3 596.214 181.672 587 191.9 587 c 0
 222.167 587 240.848 636 259.101 636 c 0
 265.812 636 274.3 626.803 274.3 617 c 0
EndSplineSet
EndChar

StartChar: plus
Encoding: 43 43 12
Width: 630
GlyphClass: 2
Flags: HW
HStem: 231 57<112.6 327.8 374.2 589.363>
VStem: 327.8 46.4<-38 231 288 556.954>
LayerCount: 2
Fore
SplineSet
131 251 m 2
 130.097 251 128.86 251.068 128.639 251.084 c 1
 128.589 252.538 128.6 252.186 128.6 253 c 0
 128.6 266 l 0
 128.6 266.706 128.646 267.788 128.65 267.897 c 1
 129.724 267.986 130.542 268 131.8 268 c 0
 343.8 268 l 1
 343.8 537 l 1
 355 537 l 0
 356.413 537 357.872 536.731 357.908 536.722 c 1
 358.121 535.167 358.2 533.491 358.2 531 c 0
 358.2 268 l 1
 573.4 268 l 1
 573.4 255 l 0
 573.4 253.338 573.258 251.762 573.207 251.297 c 1
 571.719 251.057 570.139 251 567.8 251 c 0
 358.2 251 l 1
 358.2 -16 l 0
 358.2 -17.0068 358.162 -17.9521 358.162 -17.9521 c 1
 356.882 -18.0166 357.273 -18 356.6 -18 c 0
 345.399 -18 l 0
 344.782 -18 343.839 -17.9404 343.839 -17.9404 c 1
 343.807 -16.9609 343.8 -16.127 343.8 -15 c 0
 343.8 251 l 1
 131 251 l 2
EndSplineSet
EndChar

StartChar: comma
Encoding: 44 44 13
Width: 204
GlyphClass: 2
Flags: HW
HStem: -147 247<84.3 109.1>
VStem: 132.3 40.8<-86.0814 -11.7099>
LayerCount: 2
Fore
SplineSet
102.7 80 m 0
 127.95 80 157.1 42.2227 157.1 -15 c 0
 157.1 -62.29 136.028 -94.1074 116.469 -111.959 c 1
 119.688 -108.72 120.222 -108.128 122.288 -105.77 c 0
 143.507 -81.5527 148.3 -58.2617 148.3 -44 c 0
 148.3 20.9258 78.1094 21.7764 73.4404 30.4131 c 1
 71.2021 34.3311 69.9004 38.9092 69.9004 45 c 0
 69.9004 63.333 84.752 80 102.7 80 c 0
EndSplineSet
EndChar

StartChar: hyphen
Encoding: 45 45 14
Width: 204
GlyphClass: 2
Flags: HW
HStem: 154 181
VStem: 32.3 162.4
LayerCount: 2
Fore
SplineSet
178.037 311.543 m 1
 178.577 306.259 178.7 302.181 178.7 296 c 0
 178.7 293.032 178.656 291.969 170.305 283.617 c 0
 169.68 282.993 170.496 283.796 171.137 284.395 c 1
 86.1289 210.157 58.083 182.601 48.4893 175.472 c 1
 48.3047 177.726 48.2998 178.289 48.2998 180 c 0
 48.2998 194 l 0
 48.2998 198.379 48.375 197.853 48.375 197.853 c 1
 49.5518 199.278 51.9463 201.551 56.6084 205.557 c 1
 135.688 274.492 165.967 301.958 178.037 311.543 c 1
EndSplineSet
EndChar

StartChar: period
Encoding: 46 46 15
Width: 204
GlyphClass: 2
Flags: HW
HStem: -17 118<77.4131 149.846>
VStem: 65.9 95.2<-2.99638 86.7526>
LayerCount: 2
Fore
SplineSet
113.1 81 m 0
 130.25 81 145.1 63.3086 145.1 42 c 0
 145.1 21.5166 131.82 3 113.9 3 c 0
 97.3857 3 81.9004 19.7793 81.9004 43 c 0
 81.9004 66.0195 96.0801 81 113.1 81 c 0
EndSplineSet
EndChar

StartChar: slash
Encoding: 47 47 16
Width: 391
GlyphClass: 2
Flags: HW
LayerCount: 2
Fore
SplineSet
71.7891 -166.995 m 1
 70.5137 -166.974 68.9355 -166.872 67.8438 -166.766 c 1
 81.8652 -130.658 140.847 13.5703 363.52 559.923 c 1
 364.971 559.791 367.356 559.314 368.926 558.838 c 1
 360.705 537.803 332.087 470.936 235.856 243.169 c 1
 107.988 -74.2021 79.1973 -148.548 71.7891 -166.995 c 1
EndSplineSet
EndChar

StartChar: zero
Encoding: 48 48 17
Width: 426
GlyphClass: 2
Flags: HW
HStem: -18 60<176.774 295.702> 385 55<174.2 294.358>
VStem: 56.4 52.8<130.19 299.792> 362 49.6<126.916 295.427>
LayerCount: 2
Fore
SplineSet
234.8 420 m 0
 322.325 420 395.6 327.473 395.6 211 c 0
 395.6 95.5518 322.319 2 234 2 c 0
 147.068 2 72.4004 92.7588 72.4004 211 c 0
 72.4004 327.311 146.351 420 234.8 420 c 0
234 405 m 0
 155.122 405 93.2002 317.567 93.2002 215 c 0
 93.2002 110.436 155.967 22 236.4 22 c 0
 309.372 22 378 98.2842 378 211 c 0
 378 321.164 310.785 405 234 405 c 0
EndSplineSet
EndChar

StartChar: one
Encoding: 49 49 18
Width: 320
GlyphClass: 2
Flags: HW
HStem: -6 40<68.0558 143.141 204.471 289.61> 381 43<56.2893 143.251 204.051 275.243>
VStem: 143.251 60.8<39.854 381.18>
LayerCount: 2
Fore
SplineSet
118.958 401.701 m 1
 132.209 401.285 147.544 401 166.451 401 c 0
 206.572 401 234.615 402.482 249.147 403.297 c 1
 240.541 402.648 229.559 402.196 214.071 400.946 c 1
 207.12 400.222 198.404 397.578 192.795 387.592 c 0
 187.935 378.94 188.051 370.58 188.051 365 c 0
 188.051 61 l 0
 188.051 53.3135 188.434 42.2148 195.184 32.4473 c 0
 201.042 23.9688 209.676 20.6865 217.254 20.0557 c 1
 248.249 16.8271 267.274 16.2725 273.868 14.2402 c 1
 261.079 15.584 222.956 20 176.851 20 c 0
 159.788 20 142.584 19.2891 129.517 18.4922 c 1
 137.511 19.7031 146.753 20.8369 153.735 32.1338 c 0
 159.67 41.7363 159.251 51.3975 159.251 58 c 0
 159.251 365 l 0
 159.251 389.311 142.881 399.508 133.019 400.878 c 0
 132.54 400.944 l 1
 132.06 400.974 l 0
 126.496 401.327 123.753 401.486 118.958 401.701 c 1
98.4033 402.498 m 1
 90.1152 402.784 82.0703 403.189 78.6406 403.54 c 1
 84.6348 403.205 90.1982 402.88 98.4033 402.498 c 1
EndSplineSet
EndChar

StartChar: two
Encoding: 50 50 19
Width: 404
GlyphClass: 2
Flags: HW
HStem: -13 21G<96.1373 108.537> 0 58<199.105 313.488> 362 62<112.017 217.544>
VStem: 64.1373 28.8<265.197 333.097> 264.937 49.6<205.76 305.971> 355.337 24<119.161 154.717>
LayerCount: 2
Fore
SplineSet
353.216 99.876 m 1
 348.924 81.8662 342.811 56.2148 334.43 20.8203 c 1
 332.777 20.6357 329.283 20.2734 325.661 19.9717 c 1
 252.004 16.0117 111.86 7.09863 104.645 6.99609 c 0
 102.688 7.06055 102.047 7.18848 102.047 7.18848 c 1
 111.046 14.6396 128.233 26.123 156.351 53.2041 c 1
 166.377 63.0117 176.342 73.3779 186 84.0342 c 1
 185.8 83.6826 180.138 78.8896 180.138 66 c 0
 180.138 51.5693 191.298 38 204.938 38 c 0
 208.094 38 243.687 39.9707 264.545 42.0566 c 1
 296.409 44.9023 332.546 56.207 360.168 113.761 c 0
 353.216 99.876 l 1
238.965 150.44 m 1
 245.69 160.064 252.098 169.708 258.438 179.836 c 1
 265.796 192.098 280.938 216.116 280.938 250 c 0
 280.938 329.828 211.66 382 159.337 382 c 0
 118.854 382 91.2354 352.222 81.2051 317.906 c 1
 87.7061 367.923 123.544 404 174.537 404 c 0
 241.607 404 298.537 349.229 298.537 278 c 0
 298.537 231.087 275.341 195.454 238.965 150.44 c 1
EndSplineSet
EndChar

StartChar: three
Encoding: 51 51 20
Width: 324
GlyphClass: 2
Flags: HW
HStem: -182 43<144.902 227.989> 370 73<87.9814 175.436>
VStem: 57.5 28<298.009 363.51> 200.7 7.2<180 273> 264.7 43.2<-79.2107 66.58>
LayerCount: 2
Fore
SplineSet
191.9 181.939 m 1
 191.9 145.459 236.681 144.787 254.21 131.744 c 1
 271.206 119.487 291.9 95.999 291.9 35 c 0
 291.9 10.8359 287.576 -44.9834 270.833 -85.1836 c 1
 277.927 -61.2383 280.7 -34.9619 280.7 -10 c 0
 280.7 59.1152 254.419 124 167.1 124 c 0
 159.569 124 151.999 123.556 149.05 123.314 c 1
 153.795 128.519 156.05 131.104 160.639 136.642 c 0
 171.569 149.892 182.547 165.018 191.9 181.939 c 1
182.179 -158.518 m 1
 171.655 -160.844 160.963 -162 151.1 -162 c 0
 93.082 -162 75.0996 -116.504 75.0996 -109 c 0
 75.0996 -98.7197 83.2607 -89 94.2998 -89 c 0
 115.49 -89 112.187 -150.305 182.179 -158.518 c 1
210.02 225.475 m 1
 214.126 240.307 216.7 256.578 216.7 273 c 0
 216.7 312.415 198.919 390 127.1 390 c 0
 101.968 390 84.3574 380.827 75.7812 363.823 c 1
 82.627 398.991 101.017 423 131.9 423 c 0
 162.098 423 238.3 389.741 238.3 326 c 0
 238.3 296.938 223.1 254.953 210.02 225.475 c 1
EndSplineSet
EndChar

StartChar: four
Encoding: 52 52 21
Width: 401
GlyphClass: 2
Flags: HW
HStem: 0 74<308.297 369.759> 0 66<131.473 260.272> 409 20G<295.072 300.272>
VStem: 260.272 48<-186 -1.19998e-07 74.157 299.997>
LayerCount: 2
Fore
SplineSet
80.8633 20 m 1
 82.8398 23.7822 86.0322 28.5537 89.4092 34.584 c 0
 249.435 322.32 283.713 383.713 293.045 399.938 c 1
 292.271 85 l 0
 292.271 72.7686 300.3 54 316.271 54 c 0
 329.072 54 l 0
 351.609 54 358.855 55.8105 361.854 55.9824 c 1
 360.603 44.7188 358.529 28.5674 357.083 20 c 1
 315.472 20 l 0
 310.334 20 292.271 14.8037 292.271 -7 c 0
 292.271 -166 l 1
 276.271 -166 l 1
 276.271 -10 l 0
 276.271 -2.24902 271.217 20 253.872 20 c 0
 80.8633 20 l 1
252.271 46 m 2
 272.586 46 276.271 71.2305 276.271 79 c 0
 276.271 292 l 0
 276.271 295.014 275.231 320 256.271 320 c 0
 246.607 320 240.076 310.312 239.249 309.005 c 1
 239.073 308.786 l 1
 238.214 307.197 l 0
 118.564 85.8477 115.472 91.123 115.472 71 c 0
 115.472 61.3789 122.929 46 136.271 46 c 0
 252.271 46 l 2
EndSplineSet
EndChar

StartChar: five
Encoding: 53 53 22
Width: 342
GlyphClass: 2
Flags: HW
HStem: 191 66<115.898 173.7> 299 88<209.747 284.833> 347 88<128.398 190.377>
VStem: 225.39 48.8<-40.5996 120.982>
LayerCount: 2
Fore
SplineSet
288.057 379.347 m 1
 283.353 365.826 274.731 341.057 267.489 320.199 c 1
 240.072 328.755 153.762 365.098 142.575 366.846 c 0
 141.586 367 l 1
 139.79 367 l 0
 131.908 367 122.594 359.77 118.544 350.422 c 1
 125.677 381.676 131.53 407.245 133.128 414.414 c 1
 156.547 407.389 246.487 367 265.39 367 c 0
 276.7 367 282.858 372.985 288.057 379.347 c 1
98.9902 264.241 m 1
 98.9902 252.133 106.595 237 120.59 237 c 0
 130.99 237 l 2
 194.881 237 258.19 172.474 258.19 61 c 0
 258.19 6.97754 241.901 -42.4512 223.314 -76.8369 c 0
 214.847 -92.5693 202.429 -109.787 191.005 -123.146 c 1
 198.862 -111.958 203.505 -104.336 210.047 -91.8203 c 1
 226.548 -59.252 241.39 -14.8574 241.39 38 c 0
 241.39 143.911 181.261 211 118.99 211 c 0
 104.908 211 93.4688 207.447 85.8438 204.577 c 1
 88.9473 219.318 93.4346 239.526 98.9902 264.241 c 1
EndSplineSet
EndChar

StartChar: six
Encoding: 54 54 23
Width: 434
GlyphClass: 2
Flags: HW
HStem: -28 40<197.949 300.751> 365 36<167.25 258.356>
VStem: 74.2 51.2<112.246 315.477> 342.2 61.6<76.1476 246.159>
LayerCount: 2
Fore
SplineSet
358.2 142 m 0
 358.2 233.178 314.677 385 207.8 385 c 0
 127.034 385 109.4 284.268 109.4 217 c 0
 109.4 91.2549 170.938 -8 250.2 -8 c 0
 310.841 -8 358.2 51.8027 358.2 142 c 0
150.6 402.472 m 1
 150.6 382.27 164.64 376 169.4 376 c 0
 176.781 376 188.604 381 211 381 c 0
 307.086 381 387.8 290.996 387.8 169 c 0
 387.8 72.5137 333.342 -8 251.8 -8 c 0
 173.786 -8 90.2002 73.0947 90.2002 227 c 0
 90.2002 407.447 205.028 573.985 357.91 609.334 c 0
 359.751 609.759 l 1
 359.869 609.524 360.135 608.861 360.135 608.861 c 1
 359.294 608.355 358.759 608.066 358.171 607.744 c 1
 275.885 574.271 202.741 507.672 153.575 412.88 c 0
 151 407.916 l 1
 150.6 402.472 l 1
EndSplineSet
EndChar

StartChar: seven
Encoding: 55 55 24
Width: 407
GlyphClass: 2
Flags: HW
HStem: 330 82<120.416 222.404> 337 75<137.261 326.422>
VStem: 75.2227 26.4<217.026 286.324> 90.4227 31.2<412 469.92>
LayerCount: 2
Fore
SplineSet
96.3652 279.925 m 1
 99.9072 314.405 104.022 362.934 105.785 420.979 c 1
 105.946 420 105.737 421.406 105.881 420.422 c 0
 108.886 399.762 124.057 392 132.822 392 c 0
 374.423 392 l 0
 375.226 392 375.862 391.964 375.862 391.964 c 1
 374.229 383.784 365.518 352.081 330.44 221.313 c 1
 250.119 -83.3906 233.752 -175.96 226.618 -198.346 c 1
 223.469 -198.926 218.994 -199 214.423 -199 c 0
 208.822 -199 l 0
 207.119 -199 204.309 -198.928 203.979 -198.913 c 1
 209.265 -177.833 227.931 -109.961 290.313 118.35 c 1
 325.734 240.113 343.223 289.225 343.223 308 c 0
 343.223 345.362 312.72 350.297 305.854 351.728 c 0
 305.266 351.85 l 1
 304.672 351.918 l 0
 277.985 354.951 251.854 357 224.022 357 c 0
 188.383 357 146.836 353.598 132.997 349.43 c 1
 129.296 348.432 124.077 346.805 119.088 342.233 c 0
 106.075 330.307 104.039 312.312 96.3652 279.925 c 1
EndSplineSet
EndChar

StartChar: eight
Encoding: 56 56 25
Width: 401
GlyphClass: 2
Flags: HW
HStem: -22 47<161.106 277.058> 308 58<185.075 225.825> 621 47<157.171 249.03>
VStem: 56.9 59.2<81.6211 226.516> 70.5 55.2<439.759 579.141> 284.1 59.2<442.856 574.658> 317.7 66.4<85.8585 202.16>
LayerCount: 2
Fore
SplineSet
109.7 514 m 0
 109.7 401.258 196.814 346 224.9 346 c 0
 235.803 346 243.536 354.163 247.268 358.664 c 1
 277.351 393.288 300.1 444.534 300.1 503 c 0
 300.1 573.846 261.676 641 202.5 641 c 0
 201.551 641 l 1
 147.918 639.76 109.7 580.949 109.7 514 c 0
220.1 5 m 0
 279.235 5 333.7 58.9307 333.7 136 c 0
 333.7 216.277 274.337 279.241 210.209 319.542 c 1
 206.015 322.676 200.298 328 190.5 328 c 0
 163.119 328 100.1 246.266 100.1 151 c 0
 100.1 63.9014 157.176 5 220.1 5 c 0
211.3 -2 m 0
 132.701 -2 72.9004 72.5186 72.9004 153 c 0
 72.9004 203.221 95.3496 234.637 122.017 261.304 c 1
 164.905 303.102 176.1 303.398 176.1 326 c 0
 176.1 341.26 167.29 346.712 165.027 348.598 c 1
 120.404 386.413 86.5 443.677 86.5 502 c 0
 86.5 570.013 136.499 648 211.3 648 c 0
 275.082 648 327.3 606.567 327.3 526 c 0
 327.3 466.671 295.037 405.352 250.71 374.47 c 1
 244.188 370.393 240.1 360.384 240.1 352 c 0
 240.1 338.269 247.839 333.042 247.839 333.042 c 1
 249.252 331.276 l 1
 251.914 329.773 l 0
 323.652 289.275 368.1 224.045 368.1 161 c 0
 368.1 78.3379 294.953 -2 211.3 -2 c 0
EndSplineSet
EndChar

StartChar: nine
Encoding: 57 57 26
Width: 457
GlyphClass: 2
Flags: HW
HStem: -5 39<217.868 332.058> 383 45<173.96 286.072>
VStem: 76 58.4<148.813 316.685> 366.4 61.6<81.1 269.826>
LayerCount: 2
Fore
SplineSet
118.4 250 m 0
 118.4 148.545 170.157 14 277.6 14 c 0
 336.814 14 361.162 53.9941 372.863 98.9971 c 1
 378.971 124.083 382.4 149.65 382.4 176 c 0
 382.4 299.661 310.281 403 227.2 403 c 0
 177.87 403 118.4 357.164 118.4 250 c 0
270.4 15 m 0
 170.917 15 92 115.705 92 227 c 0
 92 330.233 160.175 408 240.8 408 c 0
 331.923 408 412 308.004 412 175 c 0
 412 34.2178 317.92 -126.854 169.973 -184.776 c 1
 159.405 -188.316 153.87 -190.156 151.189 -190.739 c 1
 150.953 -189.99 150.921 -189.825 150.921 -189.825 c 1
 152.436 -189.199 151.757 -189.472 152.683 -189.125 c 1
 281.665 -138.805 353.6 -18.8652 353.6 5 c 0
 353.6 16.4258 344.341 28 335.2 28 c 0
 323.211 28 304.449 15 270.4 15 c 0
EndSplineSet
EndChar

StartChar: colon
Encoding: 58 58 27
Width: 207
GlyphClass: 2
Flags: HW
HStem: -17 118<88.0877 160.628> 293 118<88.0877 160.628>
VStem: 76.9 95.2<-2.99638 86.7526 307.004 396.622>
LayerCount: 2
Fore
SplineSet
124.1 391 m 0
 141.25 391 156.1 373.309 156.1 352 c 0
 156.1 331.98 142.277 313 124.1 313 c 0
 107.84 313 92.9004 329.341 92.9004 353 c 0
 92.9004 375.078 107.333 391 124.1 391 c 0
124.1 81 m 0
 141.25 81 156.1 63.3086 156.1 42 c 0
 156.1 21.9805 142.277 3 124.1 3 c 0
 107.84 3 92.9004 19.3408 92.9004 43 c 0
 92.9004 66.0195 107.08 81 124.1 81 c 0
EndSplineSet
EndChar

StartChar: semicolon
Encoding: 59 59 28
Width: 209
GlyphClass: 2
Flags: HW
HStem: 293 118<90.6877 163.228>
VStem: 79.5 95.2<307.004 396.622> 156.3 40.8<-85.0525 -12.0097>
LayerCount: 2
Fore
SplineSet
126.7 80 m 0
 151.95 80 181.1 42.2227 181.1 -15 c 0
 181.1 -60.8984 161.091 -92.3252 142.426 -109.98 c 1
 145.337 -106.902 144.609 -107.685 146.419 -105.62 c 1
 166.725 -81.3926 172.3 -59.2295 172.3 -44 c 0
 172.3 -42.7998 l 1
 171.271 21.5693 102.195 21.6172 97.5576 30.1973 c 0
 97.0439 31.1465 l 1
 96.4482 32.0156 l 0
 95.0996 33.9824 93.9004 37.4229 93.9004 45 c 0
 93.9004 63.333 108.752 80 126.7 80 c 0
126.7 391 m 0
 143.851 391 158.7 373.309 158.7 352 c 0
 158.7 331.98 144.878 313 126.7 313 c 0
 110.44 313 95.5 329.341 95.5 353 c 0
 95.5 375.078 109.933 391 126.7 391 c 0
EndSplineSet
EndChar

StartChar: less
Encoding: 60 60 29
Width: 604
GlyphClass: 2
Flags: HW
LayerCount: 2
Fore
SplineSet
124.899 246.216 m 1
 125.969 246.86 127.329 247.529 128.85 248.242 c 1
 474.516 405.812 534.182 433.765 545.341 437.749 c 1
 546.176 436.196 547.992 429.806 548.095 420.962 c 1
 546.974 420.257 545.994 419.791 544.302 419.157 c 0
 543.854 418.988 l 1
 149.293 238.931 l 1
 548.008 58.3057 l 1
 546.977 47.3438 542.89 43.0928 541.167 43.0059 c 1
 532.629 45.7188 480.281 70.1143 127.772 230.885 c 1
 126.233 231.526 125.347 231.969 124.899 232.2 c 1
 124.899 246.216 l 1
EndSplineSet
EndChar

StartChar: equal
Encoding: 61 61 30
Width: 630
GlyphClass: 2
Flags: HW
HStem: 156 58<113.4 589.363> 305 58<112.6 588.497>
LayerCount: 2
Fore
SplineSet
131 325 m 2
 130.097 325 128.86 325.068 128.639 325.084 c 1
 128.589 326.538 128.6 326.186 128.6 327 c 0
 128.6 341 l 0
 128.6 341.772 128.647 342.951 128.647 342.951 c 1
 129.431 342.991 130.098 343 131 343 c 0
 572.6 343 l 1
 572.6 330 l 0
 572.6 327.688 572.359 325.887 572.271 325.356 c 1
 571.012 325.087 569.771 325 567.8 325 c 0
 131 325 l 2
131 176 m 2
 130.194 176 129.438 176.047 129.438 176.047 c 1
 129.387 177.647 129.399 177.158 129.399 178 c 0
 129.399 192 l 0
 129.399 192.772 129.447 193.951 129.447 193.951 c 1
 130.231 193.991 130.898 194 131.8 194 c 0
 573.4 194 l 1
 573.4 180 l 0
 573.4 178.306 573.253 176.701 573.201 176.238 c 1
 571.985 176.055 570.563 176 568.6 176 c 0
 131 176 l 2
EndSplineSet
EndChar

StartChar: greater
Encoding: 62 62 31
Width: 605
GlyphClass: 2
Flags: HW
LayerCount: 2
Fore
SplineSet
548.291 246.216 m 2
 548.291 230 l 0
 548.291 228.338 548.972 232.164 548.972 232.164 c 1
 548.972 232.164 550.985 233.918 548.799 232.462 c 1
 546.556 231.304 547.202 231.628 545.422 230.886 c 1
 194.964 71.2764 140.776 46.1025 131.735 43.0244 c 1
 129.832 43.3184 126.051 49.0889 125.183 58.3057 c 1
 523.897 238.931 l 1
 129.338 418.988 l 1
 128.889 419.157 l 0
 127.163 419.804 125.659 420.608 125.096 420.962 c 1
 125.221 431.688 127.144 436.436 127.85 437.749 c 1
 139.369 433.636 199.371 405.499 544.342 248.241 c 1
 545.856 247.531 547.97 246.409 548.291 246.216 c 2
EndSplineSet
EndChar

StartChar: question
Encoding: 63 63 32
Width: 339
GlyphClass: 2
Flags: HW
HStem: -17 118<125.908 198.923> 577 103<60.7497 111.241> 651 38<131.42 206.55>
VStem: 114.395 96<-2.99638 86.7526> 130.395 41.6<192.704 327.862> 236.795 68<470.93 612.194>
LayerCount: 2
Fore
SplineSet
162.395 81 m 0
 179.545 81 194.395 63.3086 194.395 42 c 0
 194.395 21.9805 180.572 3 162.395 3 c 0
 145.881 3 130.395 19.7793 130.395 43 c 0
 130.395 65.5869 145.116 81 162.395 81 c 0
190.015 666.635 m 1
 262.468 653.167 288.795 585.96 288.795 542 c 0
 288.795 437.567 155.995 408.365 155.995 250 c 0
 155.995 239.38 156.795 232.882 156.795 228 c 0
 156.795 212.39 151.938 212.029 151.877 212.008 c 1
 151.416 212.519 146.395 219.788 146.395 247 c 0
 146.395 362.944 252.795 414.834 252.795 547 c 0
 252.795 601.625 228.174 651.354 190.015 666.635 c 1
150.523 668.641 m 1
 94.4473 651.387 103.229 597 80.7949 597 c 0
 71.209 597 63.1953 606.863 63.1953 621 c 0
 63.1953 627.009 60.3877 649.426 101.863 660.475 c 1
 117.562 665.003 134.015 667.689 150.523 668.641 c 1
EndSplineSet
EndChar

StartChar: at
Encoding: 64 64 33
Width: 895
GlyphClass: 2
Flags: HW
HStem: -176 38<405.853 583.814> -14 66<401.39 467.485> -8 46<577.535 665.929> 363 33<523.198 573.305> 409 20G<610.6 616.6> 572 39<436.434 616.988>
VStem: 165.8 65.6<70.9096 316.808> 337 59.2<57.2769 161.388> 754.6 33.6<176.781 411.103>
LayerCount: 2
Fore
SplineSet
670.493 39.4336 m 1
 648.051 21.5107 624.239 12 601 12 c 0
 527.933 12 560.498 86 520.2 86 c 0
 505.309 86 504.887 76.1426 504.887 76.1426 c 0
 504.279 75.3828 l 1
 503.74 74.5469 l 0
 481.883 40.6289 445.839 6 411.4 6 c 0
 379.33 6 353 35.5693 353 83 c 0
 353 162.94 448.75 310.535 506.919 354.916 c 0
 523.893 367.831 541.043 376 558.6 376 c 0
 571.839 376 571.537 373 581.8 373 c 0
 605.438 373 611.321 406.632 612.278 409.002 c 1
 613.095 408.971 613.608 408.861 613.903 408.794 c 1
 608.438 382.182 581.644 288.264 559.693 128.846 c 1
 557.851 118.327 555.4 102.468 555.4 86 c 0
 555.4 33.8936 589.185 18 609.8 18 c 0
 629.237 18 650.452 26.0498 670.493 39.4336 c 1
760.881 198.295 m 1
 767.281 230.802 770.6 265.664 770.6 300 c 0
 770.6 301 l 0
 770.6 325.739 768.666 349.327 765.009 371.36 c 1
 769.708 347.322 772.2 321.934 772.2 296 c 0
 772.2 261.756 768.084 228.671 760.881 198.295 c 1
437.693 575.237 m 1
 313.931 529.168 215.4 390.427 215.4 198 c 0
 215.4 10.332 310.32 -131.985 453.619 -154.751 c 1
 298.17 -140.711 181.8 -16.8779 181.8 186 c 0
 181.8 187 l 0
 181.8 279.558 207.804 442.395 362.556 539.111 c 0
 383.562 552.241 409.128 565.442 437.693 575.237 c 1
581 353 m 0
 581 370.236 568.971 383 556.2 383 c 0
 513.923 383 432.777 297.726 392.577 169.531 c 1
 385.839 149.53 380.2 125.83 380.2 102 c 0
 380.2 50.4326 409.533 32 429.8 32 c 0
 452.232 32 493.092 52.2383 520.254 91.8467 c 1
 531.163 107.188 538.473 116.226 541.442 134.787 c 1
 580.67 346.916 581 341.69 581 353 c 0
EndSplineSet
EndChar

StartChar: A
Encoding: 65 65 34
Width: 739
GlyphClass: 2
Flags: HW
HStem: -6 51<90.3622 160.116 230.108 297.22 517.724 580.191> 300 52<321 496.997>
VStem: 580.2 156<9.5 73>
DStem2: 171.4 93 299.4 288 0.33282 0.94299<10.8452 256.855 307.001 496.836> 470.6 668 426.6 565 0.321903 -0.946773<60.8798 288.443 343.161 591.615>
LayerCount: 2
Fore
SplineSet
192.199 20 m 0
 148.538 20 113.267 14.9473 105.864 14.0605 c 1
 105.816 14.4326 105.8 14.7812 105.8 15 c 0
 105.8 18.0762 106.118 20.4277 106.196 20.8525 c 1
 109.011 22.1445 116.701 23.3066 127.85 25.165 c 1
 158.325 29.9268 173.262 48.7256 186.019 84.8711 c 1
 224.242 191.38 265.061 298.419 308.009 403.803 c 1
 426.357 684.875 424.34 678.815 427.54 682.114 c 1
 431.309 685.201 433.558 686 437 686 c 0
 445.003 686 452.009 672.246 455.83 660.305 c 1
 571.061 328.215 l 1
 658.197 63.3857 653.922 70.7148 661.314 56.8535 c 1
 680.376 21.5928 712.877 23.5645 719.505 21.5879 c 1
 719.931 18.5977 720.131 16.4473 720.197 15.665 c 1
 720.179 14.835 720.106 14.2119 720.086 14.0381 c 1
 712.424 14.793 674 20 628.199 20 c 0
 570.207 20 539.426 14.0645 533.037 14 c 1
 533.109 16.6211 533.305 18.4912 533.438 19.4492 c 1
 537.735 21.1494 548.704 22.4229 566.185 25.1543 c 0
 566.765 25.2451 l 1
 567.337 25.3887 l 0
 567.519 25.4336 596.199 29.3691 596.199 64 c 0
 596.199 91.5137 566.979 206.393 534.837 298.078 c 1
 528.648 315.483 514.465 320 505.8 320 c 0
 317.8 320 l 0
 307.65 320 293.242 315.655 285.333 297.53 c 1
 245.144 204.237 213.8 102.305 213.8 72 c 0
 213.8 61.8438 215.518 51.3428 220.844 42.6943 c 0
 234.453 20.5986 256.88 23.3291 278.37 20.1309 c 1
 279.959 19.9102 281.155 19.5732 281.552 19.4238 c 1
 281.713 18.4756 281.8 17.6631 281.8 16 c 0
 281.8 14.7812 281.594 14.3086 281.58 14.2744 c 1
 281.474 14.21 281.109 14 280.199 14 c 0
 274.975 14 245.293 20 192.199 20 c 0
489.8 332 m 2
 494.938 332 513 337.196 513 359 c 0
 513 383.192 454.597 546.742 440.245 575.445 c 1
 436.309 583.646 427.512 592 417.8 592 c 0
 398.343 592 391.08 570.112 388.596 564.677 c 1
 338.261 446.954 305 378.281 305 356 c 0
 305 338.592 318.084 332 325.8 332 c 0
 489.8 332 l 2
EndSplineSet
EndChar

StartChar: B
Encoding: 66 66 35
Width: 506
GlyphClass: 2
Flags: HMW
HStem: -6 47<69.1522 130.45 201.146 340.728> 355 43<199.302 333.009> 651 44<201.513 327.709>
VStem: 130.502 68.8<46.989 355 398 639.812> 376.902 71.2<461.932 592.593> 412.902 71.2<121.063 282.491>
LayerCount: 2
Fore
SplineSet
127.302 666 m 0
 177.76 666 220.188 675 266.502 675 c 0
 298.477 675 353.801 670.051 390.055 638.677 c 1
 410.104 620.53 432.103 585.611 432.103 540 c 0
 432.103 486.018 402.59 433.288 363.646 402.978 c 0
 362.087 401.765 l 1
 360.789 400.142 l 0
 360.789 400.142 354.502 396.67 354.502 383 c 0
 354.502 367.837 363.952 363.233 365.747 362.111 c 0
 367.7 360.891 l 1
 369.843 360.369 l 0
 423.89 347.207 468.103 285.464 468.103 206 c 0
 468.103 120.118 419.032 58.9785 375.966 35.2549 c 1
 367.464 30.4248 341.626 14 286.502 14 c 0
 251.104 14 215.104 20 176.902 20 c 0
 148.258 20 121.203 18 85.7021 18 c 1
 85.666 18.5557 84.9199 20.2549 84.9199 20.2549 c 1
 89.9414 21.7158 100.366 22.9268 115.55 25.1338 c 0
 116.06 25.208 l 1
 116.564 25.3223 l 0
 120.568 26.2324 129.628 26.4736 137.854 36.3262 c 0
 144.195 43.9209 146.502 54.7451 146.502 65 c 0
 146.502 612 l 0
 146.502 623.665 144.488 635.44 138.167 644.719 c 0
 125.563 663.219 106.424 662.151 90.7139 663.878 c 1
 90.5713 665.56 90.5312 666.945 90.5312 666.945 c 1
 95.8662 666.706 107.617 666 127.302 666 c 0
392.902 519 m 0
 392.902 574.216 363.457 671 259.302 671 c 0
 242.979 671 209.303 671.613 193.307 655.617 c 0
 183.271 645.581 183.302 630.662 183.302 627 c 0
 183.302 411 l 0
 183.302 402.143 188.096 378 207.302 378 c 0
 253.702 378 l 0
 285.385 378 349.295 379.85 379.943 452.882 c 1
 388.248 473.644 392.902 495.523 392.902 519 c 0
260.902 21 m 0
 345.019 21 428.902 81.251 428.902 201 c 0
 428.902 266.525 400.259 347.154 321.974 368.524 c 0
 298.026 375.175 273.69 375 251.302 375 c 0
 210.502 375 l 0
 189.059 375 183.302 350.306 183.302 340 c 0
 183.302 82 l 0
 183.302 63.0732 187.893 32.3359 220.885 25.2256 c 1
 233.688 23.0918 246.575 21 260.902 21 c 0
EndSplineSet
EndChar

StartChar: C
Encoding: 67 67 36
Width: 630
GlyphClass: 2
Flags: HW
HStem: -24 51<307.073 469.643> 439 21G<573.207 590.407> 650 46<296.669 459.131>
VStem: 85.2066 76.8<225.341 451.697> 560.407 39.2<439.285 545.701>
LayerCount: 2
Fore
SplineSet
146.007 354 m 0
 146.007 161.554 251.263 7 386.807 7 c 0
 475.773 7 559.577 73.9482 598.859 178.994 c 1
 593.89 136.113 586.841 78.416 585.408 70.3174 c 1
 584.946 68.1533 l 0
 584.855 67.7246 584.76 67.4229 584.715 67.2715 c 1
 584.186 67.083 583.491 67 582.807 67 c 0
 559.606 67 l 0
 535.417 67 525.784 52.6201 513.82 43.1846 c 1
 464.362 7.68457 416.433 -4 374.007 -4 c 0
 303.904 -4 233.321 32.0254 182.751 93.3516 c 0
 131.551 155.469 101.207 245.511 101.207 335 c 0
 101.207 429.936 136.113 520.237 185.101 579.588 c 1
 236.335 640.807 307.788 676 378.007 676 c 0
 378.807 676 l 0
 474.632 676 508.065 623 535.606 623 c 0
 559.145 623 562.577 655.779 562.987 657.206 c 1
 566.799 620.975 581.137 486.093 583.366 458.999 c 1
 580.994 459.021 580.16 459.095 579.401 459.16 c 1
 578.421 464.87 577.742 473.881 576.261 488.705 c 1
 572.919 516.895 568.479 538.338 552.171 564.383 c 0
 516.78 620.492 455.567 670 376.406 670 c 0
 257.814 670 146.007 549.346 146.007 354 c 0
EndSplineSet
EndChar

StartChar: D
Encoding: 68 68 37
Width: 637
GlyphClass: 2
Flags: HW
HStem: 0 48<78.8118 157.842 234.782 405.23> 633 42<79.3076 156.935 231.15 385.024>
VStem: 159.3 71.2<58.0293 626.875> 546.5 80<233.039 436.012>
LayerCount: 2
Fore
SplineSet
310.5 28 m 0
 433.062 28 562.5 125.011 562.5 316 c 0
 562.5 417.356 528.2 523.424 459.992 587.101 c 1
 403.223 638.711 335.949 653 284.1 653 c 0
 255.009 653 234.492 653.64 221.884 634.108 c 0
 215.117 623.625 214.5 611.674 214.5 602 c 0
 214.5 93 l 0
 214.5 58.6904 231.381 40.3447 256.307 34.3535 c 0
 274.07 30.124 291.93 28 310.5 28 c 0
95.2998 654 m 0
 95.2998 654.554 95.3164 654.94 95.3164 654.94 c 1
 96.2754 655.006 96.3057 655 96.9004 655 c 0
 242.5 655 l 0
 320.692 655 400.642 651.509 467.758 612.862 c 0
 542.671 569.352 610.5 475.65 610.5 343 c 0
 610.5 177.535 499.436 50.1768 391.71 25.6934 c 1
 370.144 21.0459 346.902 20 323.3 20 c 0
 96.9004 20 l 0
 96.2061 20 95.291 20.0762 95.2246 20.085 c 1
 94.7627 22.0928 94.5 23.96 94.5 28 c 1
 99.7051 29.7305 115.449 30.3936 138.5 32.0244 c 1
 147.529 32.5156 156.857 35.6006 163.852 43.7646 c 0
 174.966 56.7383 175.3 74.2119 175.3 88 c 0
 175.3 594 l 0
 175.3 652.394 135.521 649.362 95.3594 650.941 c 1
 95.3125 652.074 95.2998 652.852 95.2998 654 c 0
EndSplineSet
EndChar

StartChar: E
Encoding: 69 69 38
Width: 519
GlyphClass: 2
Flags: HW
HStem: -12 73<79.4412 139.885> 0 62<215.335 312.747> 0 55<240.671 428.317> 369 58<216.289 383.349> 638 53<69.3653 142.709 216.455 420.686>
VStem: 142.709 71.2<64.3716 365.73 427 636.673> 384.309 44<271.454 368.907 428.208 512.546>
LayerCount: 2
Fore
SplineSet
405.909 493 m 0
 410.397 493 411.42 491.871 411.42 491.871 c 1
 411.621 491.459 412.309 488.435 412.309 484 c 0
 412.309 300 l 0
 412.309 295.369 411.521 292.335 411.42 292.129 c 1
 411.335 292.059 410.113 291 405.909 291 c 0
 403.037 291 400.673 291.567 400.332 291.674 c 1
 400.317 292.06 400.309 292.495 400.309 293 c 0
 400.309 347 l 0
 400.309 358.42 397.835 370.132 390.854 378.346 c 0
 381.396 389.473 370.15 389 363.509 389 c 0
 253.109 389 l 0
 234.945 389 197.909 383.698 197.909 329 c 0
 197.909 100 l 0
 197.909 78.7695 204.796 47.7959 237.142 42.2188 c 1
 262.519 37.1025 288.54 35 313.909 35 c 0
 340.406 35 413.815 36.6621 438.821 60.1055 c 1
 458.733 79.4648 478.927 142.38 490.709 162.544 c 1
 490.709 162 l 0
 490.706 161.652 l 1
 490.627 160.353 487.758 144.198 466.256 24.1475 c 1
 465.944 22.1982 465.641 20.9385 465.583 20.7061 c 1
 463.85 20.2646 461.669 20 457.909 20 c 0
 182.709 20 l 0
 122.253 20 92.4814 8.22559 83.707 8 c 1
 82.6162 9.41309 80.8145 14.9678 80.3809 17.8633 c 1
 86.0205 21.8516 101.791 28.5723 130.709 42.2646 c 1
 152.996 52.5283 158.709 75.9746 158.709 100 c 0
 158.709 621 l 0
 158.709 627.447 158.447 635.806 153.836 643.98 c 0
 145.442 658.86 133.714 658.463 123.756 660.726 c 1
 103.495 664.622 88.4492 664.881 84.415 666.63 c 1
 84.3213 667.67 84.3086 667.986 84.3086 669 c 0
 84.3086 670.074 84.3535 671 84.3535 671 c 1
 451.509 671 l 0
 452.3 671 452.964 670.932 453.344 670.891 c 1
 453.534 670.251 453.585 670.047 453.585 670.047 c 1
 460.106 629.712 471.589 569.156 475.324 546.997 c 1
 470.567 547.208 470.979 547.922 466.652 555.7 c 1
 429.011 639.578 424.827 658 390.709 658 c 0
 240.309 658 l 0
 204.142 658 199.509 619.159 199.509 600 c 0
 199.509 449 l 0
 199.509 443.406 198.963 431.874 205.815 420.82 c 0
 211.871 411.051 221.729 407 231.509 407 c 0
 353.909 407 l 0
 367.457 407 400.309 411.254 400.309 460 c 0
 400.309 491 l 0
 400.309 491.585 400.338 492.325 400.338 492.325 c 1
 401.732 492.741 403.208 493 405.909 493 c 0
EndSplineSet
EndChar

StartChar: F
Encoding: 70 70 39
Width: 486
GlyphClass: 2
Flags: HW
HStem: -6 53<62.763 131.608 208.098 310.284> 360 58<208.829 370.138> 636 51<61.7552 131.568 209.381 407.095>
VStem: 131.897 75.2<49.7348 360 418 634.561> 369.497 44<270.499 360> 375.897 37.6<418.264 503.907>
LayerCount: 2
Fore
SplineSet
397.497 483 m 0
 397.497 476.486 394.297 446.346 394.297 390 c 0
 394.297 332.729 397.497 301.463 397.497 296 c 0
 397.497 289.878 396.872 290 391.897 290 c 0
 391.713 290 391.379 290.007 391.379 290.007 c 1
 389.517 297.688 388.354 317.613 385.41 348.104 c 1
 384.896 355.165 382.746 365.644 375.771 372.573 c 0
 368.611 379.685 360.96 380 355.098 380 c 0
 224.697 380 l 0
 215.758 380 206.73 376.918 200.279 368.784 c 0
 190.088 355.933 191.098 340.045 191.098 332 c 0
 191.098 84 l 0
 191.098 63.8252 196.364 29.6309 239.262 27.0146 c 1
 268.986 25.8721 288.105 26.3428 294.293 24.6074 c 1
 294.305 23.6074 294.297 25 294.297 24 c 0
 294.297 15 l 0
 294.297 14.6777 294.289 14.2188 294.289 14.2188 c 1
 281.209 15.4482 239.439 20 188.697 20 c 0
 132.324 20 86.2256 14.4492 80.4619 14.002 c 1
 79.2305 14.0449 78.7861 14.209 78.54 14.2891 c 1
 78.4199 14.8223 78.2969 15.6396 78.2969 17 c 0
 78.2969 19.0469 78.4521 21.5166 78.4756 21.7783 c 1
 83.5898 23.0439 93.7314 23.2666 109.556 25.1064 c 1
 122.049 26.9082 132.812 31.3623 140.134 42.666 c 0
 147.344 53.7998 147.897 66.4619 147.897 76 c 0
 147.897 606 l 0
 147.897 618.098 146.721 631.111 139.009 641.452 c 0
 124.581 660.798 104.407 655.79 80.2168 657 c 1
 78.5898 657 78.2207 657.03 77.5156 657.141 c 1
 77.4814 658.14 77.4971 657 77.4971 658 c 0
 77.4971 662.497 77.8262 665.95 78.0977 667.877 c 1
 87.04 667.114 107.614 664 143.098 664 c 0
 174.157 664 229.979 667 272.697 667 c 0
 428.697 667 l 0
 436.957 667 436.924 669.275 439.506 657.506 c 1
 444.279 630.696 456.171 564.991 457.479 554.273 c 1
 457.41 552.974 457.218 552.378 457.095 552.009 c 1
 455.562 552.101 452.417 554.854 421.054 624.78 c 0
 420.868 625.196 l 1
 420.665 625.6 l 0
 411.811 643.309 399.735 656 379.098 656 c 0
 231.897 656 l 0
 221.178 656 211.003 652.583 203.651 643.651 c 0
 192.107 629.626 192.697 611.312 192.697 600 c 0
 192.697 433 l 0
 192.697 426.616 193.057 416.909 199.204 408.371 c 0
 205.527 399.588 214.136 398 220.697 398 c 0
 354.297 398 l 0
 359.903 398 367.125 398.431 373.97 404.674 c 0
 390.147 419.432 387.071 441.703 391.681 473.707 c 1
 392.423 479.743 393.655 483.109 394.106 483.908 c 1
 394.496 483.983 394.634 484 395.098 484 c 0
 396.445 484 397.253 483.601 397.479 483.467 c 1
 397.503 483.094 397.497 483.214 397.497 483 c 0
EndSplineSet
EndChar

StartChar: G
Encoding: 71 71 40
Width: 622
GlyphClass: 2
Flags: HW
HStem: -24 53<294.69 451.448> 260 46<408.336 503.964> 441 21G<545.9 567.5> 658 48<270.176 419.616>
VStem: 82.6996 80<226.103 480.292> 505.9 67.2<76.6719 251.789>
LayerCount: 2
Fore
SplineSet
362.699 -4 m 0
 222.894 -4 98.6992 154.048 98.6992 354 c 0
 98.6992 546.576 213.402 686 351.5 686 c 0
 444.028 686 488.929 628.188 510.019 621.597 c 0
 511.93 621 l 1
 517.1 621 l 0
 540.739 621 552.887 651.199 557.1 657.906 c 1
 557.1 642 l 0
 557.1 553.861 563.629 482.176 565.463 461.477 c 1
 563.885 461.221 560.483 461.021 559.575 461.006 c 1
 556.938 475.501 554.168 509.382 528.414 553.806 c 0
 486.624 625.235 417.548 678 341.899 678 c 0
 252.153 678 146.699 593.21 146.699 367 c 0
 146.699 92.7969 280.177 9 371.5 9 c 0
 445.083 9 505.54 56.0742 517.727 84.8477 c 1
 522.252 96.1621 521.899 105.996 521.899 111 c 0
 521.899 224 l 0
 521.899 234.521 520.607 245.798 514.66 255.401 c 0
 499.009 280.675 471.763 275.169 432.129 279.92 c 1
 428.264 280.323 425.248 281.494 424.333 282.12 c 1
 424.289 282.812 424.3 282.597 424.3 283 c 0
 424.3 284.548 424.642 285.701 424.701 285.855 c 1
 424.952 285.93 425.272 286 425.899 286 c 0
 432.179 286 458.452 282 508.3 282 c 0
 509.899 282 l 0
 561.315 282 589.937 286 595.5 286 c 0
 600.049 286 600.297 284.719 600.297 284.719 c 1
 600.275 284.021 600.227 283.816 600.217 283.751 c 1
 600.217 283.751 566.642 279.692 558.399 244.072 c 1
 556.709 236.22 557.1 232.876 557.1 229 c 0
 557.1 68.9512 l 1
 553.285 73.7188 548.8 81 537.899 81 c 0
 524.527 81 516.904 69.0312 515.785 67.6406 c 1
 469.111 17.1787 412.617 -4 362.699 -4 c 0
EndSplineSet
EndChar

StartChar: H
Encoding: 72 72 41
Width: 686
GlyphClass: 2
Flags: HW
HStem: -6 50<88.7233 163.325 235.776 312.347 449.652 529.196 601.293 672.359> 365 62<234.922 529.255> 636 51<88.2478 163.131 235.191 313.341 456.131 527.814 600.801 676.023>
VStem: 163.722 71.2<48.884 365 427 634.922> 530.122 70.4<45.9662 365 427 634.938>
LayerCount: 2
Fore
SplineSet
202.922 20 m 0
 153.003 20 112.76 14.8398 104.958 14.0664 c 1
 104.655 16.0859 104.574 17.6416 104.522 20.2246 c 1
 111.393 21.7402 123.899 22.2178 144.166 24.0605 c 1
 154.994 25.1885 164.972 29.4951 171.69 39.6172 c 0
 180.035 52.1875 179.722 66.4033 179.722 76 c 0
 179.722 605 l 0
 179.722 617.854 177.512 630.16 170.972 639.678 c 0
 157.768 658.896 137.938 656.732 125.432 658.759 c 1
 114.771 660.794 108.308 660.572 103.893 661.748 c 1
 104.282 664.343 105.352 666.696 105.531 666.949 c 1
 105.743 666.988 105.828 667 106.122 667 c 0
 114.593 667 143.642 665 199.722 665 c 0
 202.122 665 l 0
 257.454 665 287.039 666.827 296.922 666.99 c 1
 297.124 665.734 297.291 664.538 297.368 663.986 c 1
 297.526 660.973 297.728 659.851 297.728 659.851 c 1
 289.977 658.315 275.172 657.834 252.397 655.967 c 1
 244.067 655.447 235.07 652.433 228.517 644.206 c 0
 218.896 632.13 218.922 616.962 218.922 606 c 0
 218.922 441 l 0
 218.922 428.769 226.149 407 245.322 407 c 0
 515.722 407 l 0
 524.757 407 534.228 410.971 539.862 420.52 c 0
 545.731 430.465 545.322 440.378 545.322 445 c 0
 545.322 593 l 0
 545.322 609.346 544.857 641.938 517.914 654.854 c 1
 498.134 664.633 477.189 660.774 471.722 662.837 c 1
 471.722 665.118 471.938 666.086 472.057 666.589 c 1
 472.494 666.759 473.397 667 474.922 667 c 0
 481.64 667 507.617 665 557.322 665 c 0
 610.16 665 653.231 668.451 661.325 668.95 c 1
 661.282 665.519 661.092 664.954 660.962 664.362 c 1
 657.999 662.335 643.065 660.121 619.99 655.824 c 1
 608.705 654.131 598.213 648.816 591.729 638.441 c 0
 584.564 626.974 584.521 614.445 584.521 607 c 0
 584.521 77 l 0
 584.521 63.1113 589.176 28.1855 621.662 25.0615 c 0
 639.294 23.3223 652.77 22.7422 656.487 21.29 c 1
 656.515 20.7832 656.521 20.5186 656.521 20 c 0
 656.521 17.6201 656.187 14.9971 655.989 14.0742 c 1
 647.197 14.9375 606.998 20 558.922 20 c 0
 514.543 20 476.787 15.6143 465.322 14.3604 c 1
 465.339 17.7354 465.445 19.4316 465.543 20.6191 c 1
 470.744 22.0811 485.777 22.8945 506.938 25.0166 c 1
 519.665 25.8398 528.742 29.2344 536.213 39.1729 c 0
 546.776 53.2246 546.122 70.5654 546.122 83 c 0
 546.122 354 l 0
 546.122 375.009 530.279 385 519.722 385 c 0
 246.922 385 l 0
 239.634 385 230.831 382.385 224.988 373.487 c 0
 218.763 364.005 218.922 354.043 218.922 348 c 0
 218.922 77 l 0
 218.922 71.9297 218.419 61.8281 223.333 51.1768 c 0
 231.338 33.8262 247.728 27.2246 271.436 24.1377 c 1
 280.689 22.5947 292.153 22.3662 296.514 20.4043 c 1
 296.471 17.3945 296.378 15.9961 296.261 14.4199 c 1
 282.616 15.9482 246.373 20 202.922 20 c 0
EndSplineSet
EndChar

StartChar: I
Encoding: 73 73 42
Width: 290
GlyphClass: 2
Flags: HW
HStem: -6 52<43.2495 126.039 199.12 276.36> 631 49<56.2979 127.093 199.101 262.03>
VStem: 126.301 72.8<48.0003 628.443>
LayerCount: 2
Fore
SplineSet
73.2197 660.005 m 1
 79.3037 659.568 117.804 655 165.501 655 c 0
 210.925 655 236.999 658.261 246.296 658.894 c 1
 246.249 655.531 246.048 653.648 245.961 652.99 c 1
 241.75 651.402 229.221 650.219 210.551 647.93 c 1
 202.223 647.188 193.002 642.552 187.853 632.979 c 0
 183.305 624.521 183.101 616.183 183.101 611 c 0
 183.101 71 l 0
 183.101 65.6182 182.025 52.4287 189.821 40.1211 c 0
 195.088 31.8047 202.893 27.3506 212.047 26.0791 c 1
 237.796 23.7803 254.957 23.5508 260.691 21.9082 c 1
 260.635 18.7617 260.235 15.7305 259.854 14.1016 c 1
 249.7 15.0977 208.758 20 159.101 20 c 0
 111.739 20 71.0576 15.4756 59.3945 14.2832 c 1
 59.1797 16.6777 59.1631 17.0518 59.0352 18.8105 c 0
 58.8672 21.1221 l 1
 58.3545 23.0459 l 1
 58.2891 23.8418 58.335 23.3486 58.3291 23.4492 c 1
 66.5752 25.1289 83.4307 25.6211 110.515 28.04 c 1
 118.068 28.5645 126.478 31.3535 132.729 38.9795 c 0
 142.276 50.624 142.301 65.4248 142.301 76 c 0
 142.301 596 l 0
 142.301 600.085 143.101 603.196 143.101 610 c 0
 143.101 616.843 142.367 625.24 137.941 632.976 c 0
 124.935 655.709 102.247 649.017 75.4258 650.952 c 1
 74.333 651.066 72.249 651.446 71.9014 651.531 c 1
 71.9014 655.932 72.707 658.874 73.2197 660.005 c 1
EndSplineSet
EndChar

StartChar: J
Encoding: 74 74 43
Width: 274
GlyphClass: 2
Flags: HW
HStem: -212 60<0.900298 70.7562> 632 48<33.9633 114.027 190.303 260.739>
VStem: 116.1 72.8<-47.6 625.019>
LayerCount: 2
Fore
SplineSet
64.8457 -171.794 m 1
 48.9053 -183.583 31.7607 -192 20.1006 -192 c 0
 -8.53516 -192 -27.8994 -159.5 -27.8994 -135 c 0
 -27.8994 -117.653 -19.084 -106 -7.89941 -106 c 0
 16.1641 -106 13.4873 -165.532 64.8457 -171.794 c 1
119.852 -115.299 m 1
 121.875 -107.852 123.434 -100.552 124.342 -96.2412 c 1
 130.053 -70.7432 132.101 -52.874 132.101 -26 c 0
 132.101 595 l 0
 132.101 650.511 90.5693 646.944 53.0186 651.884 c 1
 51.7275 652.064 49.9922 652.513 49.7002 652.616 c 1
 49.7002 656.507 50.3184 658.888 50.7568 659.97 c 1
 51.0889 660.003 51.1328 659.998 51.1328 659.998 c 1
 57.1914 659.6 99.6836 655 150.5 655 c 0
 153.7 655 l 2
 205.209 655 234.472 658.384 244.902 658.925 c 1
 244.861 654.257 244.684 653.336 244.446 651.892 c 1
 240.633 650.304 227.405 649.467 208.161 646.908 c 1
 199.021 645.915 189.761 642.197 183.124 633.794 c 0
 172.981 620.952 172.9 604.709 172.9 593 c 0
 172.9 56 l 0
 172.9 -9.78418 150.727 -70.9746 119.852 -115.299 c 1
EndSplineSet
EndChar

StartChar: K
Encoding: 75 75 44
Width: 589
GlyphClass: 2
Flags: HW
HStem: -6 50<77.5609 151.752 226.096 305.765> -5 38<535.674 583.964> 315 55<225.178 256.374> 630 57<467.7 558.91> 640 48<75.7137 151.473 226.216 298.278>
VStem: 154.776 70.4<49.4271 312.167 370.007 633.513>
LayerCount: 2
Back
SplineSet
289.977 -6 m 0
 286.776 -6 243.576 0 189.977 0 c 0
 137.177 0 93.9766 -6 90.7764 -6 c 0
 79.5762 -6 77.1768 6 77.1768 17 c 0
 77.1768 52.2725 113.948 40.0459 133.977 47 c 0
 149.977 53 154.776 62 154.776 93 c 2
 154.776 590 l 2
 154.776 638 140.376 635 97.9766 640 c 0
 87.5762 641 75.5762 646 75.5762 664 c 0
 75.5762 673 81.1768 688 98.7764 688 c 0
 107.576 688 133.977 684 186.776 684 c 2
 187.576 684 l 2
 240.376 684 266.776 688 275.576 688 c 0
 293.977 688 298.776 670 298.776 662 c 0
 298.776 632 254.776 647 237.177 637 c 0
 225.977 630 225.177 614 225.177 604 c 2
 225.177 387 l 2
 225.177 380 226.776 370 235.576 370 c 0
 243.576 370 249.177 381 256.377 391 c 0
 305.177 459 397.977 588 401.977 596 c 0
 405.177 601 408.377 609 408.377 617 c 0
 408.377 660 355.576 630 355.576 666 c 0
 355.576 679 362.776 687 373.977 687 c 0
 382.776 687 407.576 685 457.977 685 c 2
 462.776 685 l 2
 510.776 685 534.776 687 542.776 687 c 0
 560.377 687 565.177 675 565.177 666 c 0
 565.177 638 522.776 645 493.977 630 c 0
 469.177 617 453.977 590 436.377 567 c 0
 293.177 374 293.177 377 293.177 368 c 0
 293.177 362 295.576 358 299.576 353 c 0
 522.776 59 513.177 69 525.177 59 c 0
 551.576 38 566.776 49 579.576 33 c 0
 581.977 29 584.377 23 584.377 18 c 0
 584.377 9 577.977 -5 561.177 -5 c 0
 549.977 -5 545.977 -1 523.576 -1 c 0
 464.377 0 465.177 -5 445.177 24 c 0
 245.177 311 245.977 315 236.376 315 c 2
 235.576 315 l 2
 225.177 315 224.376 303 224.376 295 c 2
 224.376 84 l 2
 224.376 45 236.376 49 288.377 44 c 0
 293.977 43 305.977 41 305.977 22 c 0
 305.977 7 302.776 -6 289.977 -6 c 0
EndSplineSet
Fore
SplineSet
289.398 14.0771 m 1
 279.709 15.0283 239.288 20 189.977 20 c 0
 143.833 20 104.211 15.4229 93.2617 14.2715 c 1
 93.2021 15.1602 93.1768 16.0117 93.1768 17 c 0
 93.1768 18.8965 93.3926 20.0273 93.4473 20.2812 c 1
 95.5479 21.7285 106.382 22.6963 119.93 24.0518 c 1
 149.297 26.4199 170.776 44.915 170.776 93 c 0
 170.776 590 l 0
 170.776 652.525 138.832 655.27 99.3398 659.928 c 1
 94.9004 660.355 92.166 661.892 91.709 662.308 c 1
 91.6357 662.696 91.5928 663.207 91.5732 663.892 c 1
 91.6533 664.537 91.001 668 98.7764 668 c 0
 105.187 668 133.782 664 186.776 664 c 0
 187.576 664 l 0
 240.62 664 269.11 668 275.576 668 c 0
 281.638 668 281.779 665.616 282.403 663.666 c 1
 272.876 660.307 250.117 666.322 230.286 655.054 c 1
 208.831 641.645 209.177 613.655 209.177 604 c 0
 209.177 387 l 0
 209.177 379.463 212.141 350 235.576 350 c 0
 255.234 350 263.827 371.451 268.287 377.645 c 0
 317.087 445.646 406.832 570.058 414.902 584.188 c 1
 419.994 592.566 424.377 602.949 424.377 617 c 0
 424.377 627.054 422.239 636.863 417.561 644.593 c 0
 403.022 668.609 375.249 665.343 371.833 666.725 c 1
 372.642 666.945 373.013 667 373.977 667 c 0
 381.537 667 407.459 665 457.977 665 c 0
 462.776 665 l 0
 510.902 665 536.073 667 542.776 667 c 0
 545.071 667 546.917 666.595 547.673 666.38 c 1
 537.602 661.196 511.279 660.679 487.788 648.444 c 0
 457.771 632.709 441.102 602.11 424.73 580.714 c 1
 283.482 390.343 277.177 394.213 277.177 368 c 0
 277.177 354.15 284 344.188 288.114 339.044 c 1
 510.935 45.5391 500.473 55.5498 516.443 42.2412 c 1
 546.965 17.9629 564.338 22.7842 567.408 19.8301 c 1
 567.914 18.748 568.165 18.0117 568.19 17.9365 c 1
 567.848 17.2617 567.078 15 561.177 15 c 0
 554.452 15 547.627 19 523.685 19 c 1
 461.454 20.0508 474.068 12.7383 457.269 37.0967 c 1
 259.993 320.188 261.814 335 236.376 335 c 0
 235.576 335 l 0
 209.387 335 208.376 300.719 208.376 295 c 0
 208.376 84 l 0
 208.376 69.9941 209.304 55.9355 217.295 44.3486 c 0
 232.336 22.5391 256.168 26.9912 286.627 24.1094 c 1
 287.943 23.873 289.567 23.4287 289.93 23.2871 c 1
 289.982 22.4971 289.977 22.5615 289.977 22 c 0
 289.977 18.5459 289.662 15.5566 289.398 14.0771 c 1
EndSplineSet
EndChar

StartChar: L
Encoding: 76 76 45
Width: 506
GlyphClass: 2
Flags: HW
HStem: 0 60<204.128 420.553> 0 45<67.6089 128.927> 629 49<64.6611 129.365 204.117 286.939>
VStem: 129.396 74.4<60.5237 626.364> 457.396 36<127.281 178.977>
LayerCount: 2
Fore
SplineSet
176.596 655 m 2
 229.635 655 260.036 657.54 270.881 657.944 c 1
 270.971 655.972 270.996 653.727 270.996 651 c 0
 270.996 649.742 270.872 648.052 270.872 648.052 c 1
 270.258 648.006 270.188 648 269.161 648 c 1
 235.085 646.746 212.667 655.134 196.597 634.35 c 0
 188.384 623.729 187.796 610.492 187.796 599 c 0
 187.796 92 l 0
 187.796 81.9229 187.278 65.418 197.656 52.2363 c 0
 204.661 43.3408 214.515 40 224.596 40 c 0
 379.796 40 l 0
 394.252 40 419.521 42.2803 437.148 75.9805 c 1
 446.656 93.8066 465.71 150.937 470.122 159.942 c 1
 472.706 159.624 476.348 158.062 477.363 157.169 c 1
 476.309 144.47 466.73 62.2686 461.607 19.2607 c 1
 461.195 16.4385 461.002 15.3965 460.823 14.5537 c 1
 459.449 14.1865 458.23 14 455.796 14 c 0
 445.555 14 301.425 20 122.196 20 c 0
 93.2227 20 l 1
 98.6729 21.4932 105.624 23.1611 114.273 25.4238 c 0
 114.743 25.5469 l 1
 115.206 25.7051 l 0
 141.613 34.707 145.396 62.2734 145.396 77 c 0
 145.396 605 l 0
 145.396 615.466 144.568 627.734 136.873 637.42 c 0
 122.797 655.136 103.955 648.506 85.4277 648.981 c 1
 82.9297 649.255 81.21 649.809 80.793 649.99 c 1
 80.6729 650.769 80.5957 651.569 80.5957 653 c 0
 80.5957 655.106 80.7705 657.482 80.8203 657.991 c 1
 90.126 657.84 117.746 655.961 170.878 655 c 1
 176.596 655 l 2
EndSplineSet
EndChar

StartChar: M
Encoding: 77 77 46
Width: 899
GlyphClass: 2
Flags: HW
HStem: -15 21G<495.5 504.7> -6 59<260.239 333.934> -6 55<117.312 197.817 664.516 745.758 821.223 897.916> 635 40<119.157 180.497>
VStem: 200.7 56<53.3311 334.948> 220.7 40.8<334.948 477.998> 748.7 71.2<51.3681 476.999>
DStem2: 268.7 662 211.9 574 0.43831 -0.898824<-25.8286 61.502 389.322 576.435>
LayerCount: 2
Back
SplineSet
678.3 -6 m 4xd8
 666.3 -6 663.1 9 663.1 18 c 4
 663.1 63 739.1 20 747.9 79 c 4
 748.7 85 748.7 92 748.7 98 c 6
 748.7 311 l 6
 748.7 380 747.1 468 746.3 471 c 4
 745.5 476 743.1 477 740.7 477 c 4
 735.1 477 731.9 470 729.5 465 c 4
 658.3 323 535.1 19 520.7 -3 c 4
 513.5 -14 506.3 -15 503.1 -15 c 4
 487.899 -15 480.7 7 475.1 21 c 4
 388.7 243 273.5 472 267.1 477 c 4
 266.3 478 265.5 478 264.7 478 c 4
 262.3 478 261.5 475 261.5 473 c 4
 258.3 403 256.7 335 256.7 265 c 4
 256.7 223 259.1 72 261.5 62 c 4
 269.5 29 336.7 65 336.7 17 c 4
 336.7 8 333.5 -6 322.3 -6 c 4
 319.1 -6 277.5 0 226.3 0 c 4
 175.1 0 133.5 -6 130.3 -6 c 4
 124.7 -6 115.899 -2 115.899 16 c 4
 115.899 46 135.1 43 175.1 49 c 4
 201.5 53 198.3 74 200.7 102 c 4
 212.7 280 220.7 504 220.7 549 c 4
 220.7 562 215.899 568 211.899 574 c 4
 199.899 590 181.5 634 135.1 635 c 4
 129.5 636 119.1 636 119.1 653 c 4
 119.1 674 127.899 675 133.5 675 c 6
 248.7 675 l 6
 259.899 675 263.899 672 268.7 662 c 6
 419.899 346 l 5
 513.5 160 l 6
 515.1 156 519.899 148 527.1 148 c 4
 532.7 148 535.899 152 538.3 159 c 4
 755.1 666 754.3 666 755.1 666 c 4
 758.3 673 762.3 675 769.5 675 c 6
 885.5 675 l 6xb8
 891.1 675 897.5 674 897.5 653 c 4
 897.5 626 878.3 633 835.1 616 c 4
 822.3 612 815.9 605 815.9 587 c 4
 819.1 199 819.9 150 819.9 101 c 6
 819.9 94 l 6
 819.9 69 820.7 49 847.9 45 c 4
 883.1 41 899.1 45 899.1 16 c 4
 899.1 3 892.7 -6 883.1 -6 c 4
 879.1 -6 835.1 0 779.9 0 c 4
 725.5 0 681.5 -6 678.3 -6 c 4xd8
EndSplineSet
Fore
SplineSet
274.095 495.26 m 1
 269.121 498.022 265.068 498 264.7 498 c 0
 248.023 498 245.631 475.944 245.589 475.509 c 1
 242.227 401.96 240.7 336.293 240.7 265 c 0
 240.7 231.266 242.285 133.012 243.922 84.9092 c 1
 244.445 75.1035 240.494 52.752 256.711 36.9854 c 1
 284.881 11.6328 316.7 25.2461 320.238 21.0752 c 1
 320.292 20.9463 320.7 20 320.7 17 c 0
 320.7 16.3271 320.523 14.6113 320.453 14.2139 c 1
 309.245 15.416 271.492 20 226.3 20 c 0
 180.753 20 142.465 15.3203 131.959 14.1934 c 1
 131.886 15.4971 131.899 15.2227 131.899 16 c 0
 131.899 18.9629 132.231 20.5234 132.328 20.9004 c 1
 134.958 22.9482 150.525 25.1699 177.025 29.1455 c 0
 216.563 35.1357 214.776 78.499 216.628 100.095 c 1
 228.72 279.461 236.7 502.359 236.7 549 c 0
 236.7 569.119 227.491 581.854 224.191 586.804 c 0
 223.892 587.252 l 1
 223.572 587.679 l 0
 214.761 599.428 190.595 652.984 135.562 655 c 1
 248.7 655 l 0
 251.421 655 253.27 654.642 253.421 654.604 c 1
 253.904 653.842 254.296 653.136 254.969 651.734 c 0
 406.262 335.54 l 1
 499.957 149.351 l 1
 501.294 146.007 510.059 128 527.1 128 c 0
 540.736 128 549.478 140.829 553.006 151.122 c 0
 553.321 152.041 552.757 150.473 552.41 149.572 c 1
 709.183 516.209 753.361 620.471 763.671 644.439 c 1
 768.491 654.982 l 1
 769.291 655.003 768.7 655 769.5 655 c 0
 881.477 655 l 1
 881.493 654 881.5 654 881.5 653 c 0
 881.5 652.354 881.456 651.472 881.456 651.472 c 1
 877.002 648.94 857.022 645.426 830.745 635.255 c 1
 813.084 629.432 799.9 613.479 799.9 586.894 c 1
 803.104 198.668 803.9 149.728 803.9 101 c 0
 803.9 94 l 0
 803.9 69.2451 807.307 30.8311 846.24 25.1064 c 1
 866.544 22.7988 879.822 21.7812 882.842 20.416 c 1
 883.037 18.959 883.1 18.0547 883.1 16 c 0
 883.1 15.0557 882.955 14.1504 882.931 14.0254 c 1
 875.338 14.624 832.347 20 779.9 20 c 0
 730.75 20 689.871 15.1797 679.546 14.1406 c 1
 679.24 15.4463 679.1 16.9902 679.1 18 c 0
 679.1 18.4072 679.116 18.627 679.116 18.627 c 1
 681.312 20.0879 689.511 21.9316 700.466 23.0732 c 0
 727.771 25.999 764.7 34.4053 764.7 94 c 0
 764.7 311 l 0
 764.7 382.415 764.33 463.289 761.48 477.571 c 1
 757.705 492.626 746.492 497 740.7 497 c 0
 723.479 497 716.974 477.776 715.859 475.457 c 1
 644.923 333.981 519.917 28.3457 508.188 9.45898 c 1
 504.028 3.51953 503.294 5 503.1 5 c 0
 501.412 5 496.739 11.624 489.449 29.8467 c 1
 402.293 253.789 290.736 480.969 274.095 495.26 c 1
EndSplineSet
EndChar

StartChar: N
Encoding: 78 78 47
Width: 719
GlyphClass: 2
Flags: HW
HStem: -23 21G<620 632> -6 52<230.815 312.518> -6 46<97.1564 170.925 264.504 323.019> 633 48<87.3299 152.673 520.906 586.55 645.395 712.686>
VStem: 590.4 49.6<360.111 627.882> 597.6 39.2<172.004 504.224>
DStem2: 235.2 662 172.8 590 0.572687 -0.819774<-39.4344 69.9078 173.945 595.799>
LayerCount: 2
Back
SplineSet
87.2002 655 m 4xe0
 87.2002 676 94.4004 681 104.8 681 c 6
 203.2 681 l 6
 220 681 226.4 675 235.2 662 c 6
 360.8 480 l 5
 433.6 378 l 5
 578.4 182 584.8 172 590.4 172 c 4xe0
 595.2 172 596 177 596 182 c 4
 596.8 218 597.6 253 597.6 289 c 4xd0
 597.6 391 595.2 489 590.4 587 c 4
 588.8 630 573.6 631 538.4 636 c 4
 532.8 637 520.8 640 520.8 657 c 4
 520.8 667 526.4 681 544 681 c 4
 551.2 681 574.4 678 620.8 678 c 4
 666.4 678 688.8 681 696 681 c 4
 704.8 681 712.8 675 712.8 658 c 4
 712.8 606 640 673 640 576 c 5xe0
 638.4 486 636.8 395 636.8 305 c 4xd0
 636.8 136 640 52 640 24 c 4
 640 10 640 -23 624 -23 c 4
 616 -23 607.2 -13 584.8 19 c 6
 419.2 255 l 5
 257.6 480 244.8 499 241.6 499 c 4
 240 499 239.2 496 238.4 495 c 4
 232 378 228 262 228 140 c 6
 228 111 l 6
 228 59 230.4 49 264 46 c 4
 274.4 46 307.2 41 312.8 39 c 4
 316 37 323.2 34 323.2 13 c 4
 323.2 2 318.4 -6 309.6 -6 c 4
 306.4 -6 264 0 212 0 c 4
 159.2 0 117.6 -6 113.6 -6 c 4
 104 -6 96.7998 2 96.7998 14 c 4
 96.7998 17 98.4004 36 108.8 40 c 4
 126.4 47 164 39 176.8 72 c 4
 180.8 84 180 81 199.2 542 c 5
 199.2 545 l 5
 199.2 546 l 6
 199.2 555 198.4 561 172.8 590 c 4
 167.2 597 145.6 629 101.6 633 c 4
 93.5996 633 87.2002 636 87.2002 655 c 4xe0
EndSplineSet
Fore
SplineSet
215.2 541.48 m 1
 215.2 546 l 0
 215.2 562.616 208.347 576.552 183.811 604.521 c 1
 179.177 610.312 152.319 647.804 103.241 652.907 c 1
 103.201 653.969 103.2 654.176 103.2 655 c 0
 103.2 657.794 103.472 660.291 103.569 660.955 c 1
 104.235 661.001 104.302 661 104.8 661 c 0
 203.2 661 l 0
 215.923 661 215.453 660.209 223.035 649.008 c 1
 348.772 466.81 l 1
 421.753 364.556 l 1
 564.441 171.417 568.354 152 590.4 152 c 0
 609.749 152 612 177.607 612 181.722 c 1
 612.785 217.06 613.6 252.816 613.6 289 c 0
 613.6 391.299 611.18 490.004 606.377 588.078 c 1
 604.285 644.33 573.631 651.124 540.436 655.84 c 1
 539.427 656.02 537.325 656.664 536.8 656.917 c 1
 536.8 657.468 535.157 661 544 661 c 0
 549.12 661 574.246 658 620.8 658 c 0
 666.562 658 690.925 661 696 661 c 0
 696.292 661 696.6 660.969 696.6 660.969 c 1
 696.717 660.23 696.8 659.373 696.8 658 c 0
 696.8 657.012 696.714 655.706 696.714 655.706 c 1
 692.927 654.711 685.004 655.008 674.591 653.922 c 1
 640.476 649.925 624.854 623.876 624.003 564.408 c 1
 622.407 479.541 620.8 391.266 620.8 305 c 0
 620.8 135.899 624 50.8311 624 24 c 0
 624 16.7539 623.6 5.29492 622.261 -0.927734 c 1
 617.219 4.03027 609.511 14.0703 596.829 32.1885 c 0
 431.166 268.276 l 1
 271.564 490.49 263.352 519 241.6 519 c 0
 228.604 519 225.949 507.722 225.949 507.722 c 1
 222.847 503.842 l 1
 222.438 496.364 l 0
 216.019 379.034 212 262.548 212 140 c 0
 212 111 l 0
 212 57.7246 220.465 29.8359 262.86 26.0508 c 0
 263.43 26 l 1
 264 26 l 0
 270.498 26 299.039 21.8975 306.627 20.2051 c 1
 306.797 19.3789 307.169 15.1826 307.188 14.2695 c 1
 294.94 15.5781 257.174 20 212 20 c 0
 160.68 20 118.973 14.4062 113.449 14.002 c 1
 113.126 14.0176 112.972 14.0498 112.829 14.0771 c 1
 113.091 16.625 113.919 19.9346 114.483 21.2412 c 1
 123.446 24.1855 173.219 16.9258 191.197 63.2744 c 0
 191.396 63.7842 l 1
 191.569 64.3076 l 0
 198.476 85.0254 195.976 79.8633 215.179 540.96 c 0
 215.2 541.48 l 1
EndSplineSet
EndChar

StartChar: O
Encoding: 79 79 48
Width: 700
GlyphClass: 2
Flags: HW
HStem: -24 58<312.058 478.323> 667 53<292.575 458.918>
VStem: 92.2 76<247.435 473.525> 606.6 79.2<215.912 458.255>
LayerCount: 2
Fore
SplineSet
669.8 337 m 0
 669.8 138.214 546.14 -4 398.6 -4 c 0
 324.497 -4 249.869 34.0332 196.07 98.4395 c 0
 141.663 163.615 108.955 257.765 108.2 353.099 c 1
 108.2 544.645 235.326 700 387.4 700 c 0
 549.862 700 669.8 530.913 669.8 337 c 0
152.2 384 m 0
 152.2 205.765 231.547 14 395.4 14 c 0
 493.224 14 622.6 96.5469 622.6 319 c 0
 622.6 418.398 598.973 538.532 529.153 615.033 c 0
 486.917 661.363 431.238 687 374.6 687 c 0
 267.794 687 152.2 593.281 152.2 384 c 0
EndSplineSet
EndChar

StartChar: P
Encoding: 80 80 49
Width: 515
GlyphClass: 2
Flags: HW
HStem: -6 53<68.8588 140.392 210.335 321.183> 301 35<211.046 334.286> 635 48<75.1483 140.533> 648 45<211.398 358.591>
VStem: 140.6 70.4<48.1758 301 336.165 634.629> 438.2 67.2<428.095 566.357>
LayerCount: 2
Fore
SplineSet
454.2 498 m 0
 454.2 596.952 377.256 668 259.8 668 c 0
 222.276 668 195 668.686 195 633 c 0
 195 348 l 0
 195 318.601 218.381 316 240.6 316 c 0
 360.973 316 454.2 383.78 454.2 498 c 0
112.6 663 m 2
 189.77 663 246.965 673 303 673 c 0
 367.385 673 413.98 656.56 448.256 618.18 c 1
 473.688 589.04 489.4 546.031 489.4 503 c 0
 489.4 502.134 l 1
 488.696 436.022 456.416 386.106 416.198 359.6 c 1
 388.533 340.489 341.471 321 243.8 321 c 0
 219.8 321 l 0
 200.823 321 193.4 299.116 193.4 285 c 0
 193.4 82 l 0
 193.4 53.873 205.1 29.8164 234.05 27.0322 c 1
 275.675 24.8418 297.781 24.8291 305.312 22.6934 c 1
 305.388 21.2197 305.4 20.5098 305.4 19 c 0
 305.4 18 l 0
 305.4 16.5137 305.272 14.3975 305.245 14.084 c 1
 294.184 15.0283 249.526 20 195.8 20 c 0
 138.746 20 92.2344 14.5947 84.9033 14.0322 c 1
 84.71 15.1396 84.5996 16.4619 84.5996 18 c 0
 84.5996 19.9668 84.7148 22.5234 84.7324 22.793 c 1
 89.8428 24.1729 101.324 24.8799 120.001 27.124 c 1
 131.711 29.0332 142.165 32.6553 149.528 44.1895 c 0
 155.76 53.9531 156.6 65.1113 156.6 74 c 0
 156.6 609 l 0
 156.6 615.826 157.333 629.625 148.905 641.894 c 0
 142.561 651.132 132.841 655 123 655 c 0
 94.2002 655 l 0
 93.0361 655 91.6953 655.081 91.4111 655.112 c 1
 91.0918 657.159 91 658.269 91 661 c 0
 91 661.764 91.043 662.625 91.0596 662.925 c 1
 91.9971 663.008 91.9541 663 92.5996 663 c 0
 112.6 663 l 2
EndSplineSet
EndChar

StartChar: Q
Encoding: 81 81 50
Width: 684
GlyphClass: 2
Flags: HW
HStem: -203 49<659.961 734.104> -16 48<329.766 480.244> 675 49<302.677 466.825>
VStem: 98.5437 77.6<261.525 474.605> 606.544 71.2<231.95 470.122>
LayerCount: 2
Fore
SplineSet
408.144 12 m 0
 526.43 12 622.544 137.598 622.544 329 c 0
 622.544 425.116 600.771 551.366 527.331 630.212 c 1
 487.377 672.554 435.793 695 383.344 695 c 0
 272.71 695 160.144 589.957 160.144 392 c 0
 160.144 212.035 252.923 12 408.144 12 c 0
447.344 9 m 0
 436.676 9 421.782 4 393.744 4 c 0
 315.907 4 243.845 45.7129 194.739 108.039 c 0
 143.387 173.175 114.544 263.218 114.544 354 c 0
 114.544 446.558 145.688 540.533 199.331 605.701 c 1
 249.903 667.975 321.131 704 392.943 704 c 0
 455.515 704 525.883 674.607 578.51 609.758 c 0
 632.039 543.788 661.744 449.855 661.744 356 c 0
 661.744 225.225 603.668 99.9062 523.153 31.5439 c 0
 521.9 30.4805 l 1
 521.521 30.0049 l 1
 517.174 25.0244 513.744 19.1182 513.744 10 c 0
 513.744 -1.5 521.913 -9.63574 524.639 -11.8496 c 1
 577.667 -58.4404 598.984 -107.766 642.438 -143.616 c 1
 662.479 -160.651 686.978 -171.509 710.894 -173.644 c 1
 699.411 -179.368 686.482 -183 674.544 -183 c 0
 619.244 -183 582.516 -129.682 545.857 -83.8574 c 0
 545.857 -83.8574 480.514 9 447.344 9 c 0
EndSplineSet
EndChar

StartChar: R
Encoding: 82 82 51
Width: 626
GlyphClass: 2
Flags: HW
HStem: -13 62<545.073 598.07> -6 55<89.514 159.954 231.954 323.858> 330 36<231.687 314.453> 640 35<81.0612 151.538> 648 39<230.314 347.054>
VStem: 160.24 71.2<49.7219 330 366.549 627.863> 420.24 62.4<431.776 566.374>
DStem2: 389.04 338 388.24 202 0.500061 -0.86599<-4.06177 347.467>
LayerCount: 2
Fore
SplineSet
211.84 618.5 m 2
 212.24 384 l 0
 212.24 378.077 212.314 368.614 218.078 359.879 c 0
 230.979 340.329 250.424 346 281.04 346 c 0
 310.678 346 335.421 349.074 360.567 361.423 c 1
 398.528 380.629 436.24 425.945 436.24 496 c 0
 436.24 588.908 368.381 668 280.24 668 c 0
 267.824 668 239.432 668.571 222.198 653.653 c 1
 211.512 644.015 211.84 626.141 211.84 618.5 c 2
296.24 667 m 0
 432.594 667 466.64 572.078 466.64 513 c 0
 466.64 425.493 403.642 373.977 385.883 365.755 c 0
 385.064 365.376 l 1
 384.285 364.889 l 0
 384.285 364.889 371.44 362.268 371.44 342 c 0
 371.44 331.858 376.569 325.37 378.329 322.878 c 1
 474.024 182.594 491.745 117.047 524.906 67.9619 c 1
 536.983 50.71 555.229 29 580.24 29 c 0
 584.793 29 591.575 30.6328 593.36 31.2734 c 1
 583.624 17.5303 570.569 7 553.04 7 c 0
 521.574 7 491.327 54.8242 481.186 71.7568 c 1
 401.28 213.589 l 1
 332.207 333.885 333.476 334.469 324.214 342.067 c 1
 313.724 351.412 306.141 350 301.04 350 c 0
 242.64 350 l 0
 229.316 350 215.44 336.438 215.44 315 c 0
 215.44 81 l 0
 215.44 68.1016 218.594 33.9033 250.573 29.1064 c 1
 286.339 25.1025 304.909 23.3291 308.679 20.7881 c 1
 308.843 20.0176 309.04 18.5664 309.04 16 c 0
 309.04 15.1719 308.951 14.249 308.926 14.0312 c 1
 301.155 14.7148 257.875 20 205.84 20 c 0
 156.944 20 116.098 15.3066 105.5 14.2227 c 1
 105.178 16.3018 105.058 18.7959 105.04 20.7178 c 1
 110.588 22.3779 121.924 23.1074 140.326 25.1074 c 1
 151.186 26.8047 160.559 30.9062 167.409 40.8037 c 0
 176.189 53.4932 176.24 68.3994 176.24 80 c 0
 176.24 597 l 0
 176.24 607.968 175.206 619.761 169.013 630.042 c 0
 157.792 648.666 139.68 650.359 117.937 655 c 1
 119.44 655 l 0
 192.134 655 245.478 667 296.24 667 c 0
EndSplineSet
EndChar

StartChar: S
Encoding: 83 83 52
Width: 443
GlyphClass: 2
Flags: HW
HStem: -17 56<188.535 313.202> 635 50<160.493 265.647>
VStem: 75.2838 57.6<479.18 595.956> 88.0838 40<112.089 247.636> 368.084 58.4<105.026 250.11>
LayerCount: 2
Fore
SplineSet
91.2842 516 m 0
 91.2842 593.688 142.994 665 218.483 665 c 0
 281.142 665 293.085 625 321.684 625 c 0
 344.315 625 350.635 657.257 351.713 659.394 c 1
 350.748 645.666 348.884 622.02 348.884 583 c 0
 348.884 543.166 351.054 517.851 351.787 507.4 c 1
 348.808 508.761 350.216 535.322 310.459 592.265 c 1
 286.923 624.953 252.187 655 210.483 655 c 0
 157.216 655 116.884 604.129 116.884 541 c 0
 116.884 496.367 136.431 458.521 164.369 433.738 c 1
 212.83 389.99 272.886 391.136 319.408 366.602 c 1
 372.102 338.244 410.483 280.207 410.483 198 c 0
 410.483 90.1943 341.091 3 251.284 3 c 0
 208.89 3 167.364 23.585 140.282 52.9844 c 1
 132.036 62.2607 120.826 72 104.884 72 c 0
 95.7705 72 89.541 69.6758 86.3545 69.168 c 1
 89.0645 86.6357 98.0703 130.997 104.026 225.308 c 1
 104.089 226.167 104.317 227.899 104.321 227.926 c 1
 104.685 227.97 105.133 228 105.684 228 c 0
 106.236 228 106.842 227.977 107.136 227.965 c 1
 108.483 222.795 110.117 208.852 112.181 187.789 c 1
 117.223 124.769 113.4 130.806 136.038 93.0762 c 1
 158.36 55.1289 198.815 19 252.084 19 c 0
 323.392 19 384.084 88.0742 384.084 178 c 0
 384.084 228.844 363.633 274.8 331.067 304.199 c 0
 279.632 350.758 225.74 347.728 176.382 372.592 c 1
 116.422 401.841 91.2842 458.994 91.2842 516 c 0
EndSplineSet
EndChar

StartChar: T
Encoding: 84 84 53
Width: 623
GlyphClass: 2
Flags: HW
HStem: -6 53<231.876 316.149 391.732 478.536> 622 66<146.102 316.984 391.79 556.886>
VStem: 317.3 74.4<49.375 621.698>
LayerCount: 2
Fore
SplineSet
462.901 14.2178 m 1
 449.93 15.4346 407.962 20 356.5 20 c 0
 302.486 20 256.453 14.7812 248.071 14.0498 c 1
 247.776 16.1289 247.7 17.4883 247.7 20 c 0
 247.7 20.6592 247.72 21.6982 247.72 21.6982 c 1
 254.458 23.458 268.537 24.2988 291.692 27.0996 c 0
 324.089 31.1484 333.3 59.2256 333.3 84 c 0
 333.3 591 l 0
 333.3 598.912 334.056 614.567 324.59 627.939 c 0
 317.62 637.784 307.049 642 295.7 642 c 0
 176.5 642 l 0
 164.033 642 153.79 640.604 145.01 632.694 c 0
 137.56 625.982 134.3 617.221 131.824 611.032 c 0
 110.261 557.779 101.256 533.875 97.9102 529.014 c 1
 97.6152 529.001 97.5479 529 97.2998 529 c 0
 97.2998 529 95.7002 528.224 95.7002 534 c 0
 95.7002 535 l 0
 95.7002 535 96.2949 540.696 118.4 667.975 c 1
 118.836 667.994 119.207 668 119.7 668 c 0
 585.442 668 l 1
 585.915 665.142 585.918 664.954 586.336 661.554 c 1
 601.657 563.892 605.156 539.879 605.3 536.886 c 1
 605.288 536.451 605.281 536.42 605.281 536.42 c 1
 603.85 538.803 603.092 540.641 601.582 543.946 c 0
 566.355 620.775 561.278 642 526.9 642 c 0
 409.3 642 l 0
 399.675 642 390.056 638.314 383.667 629.217 c 0
 374.867 616.686 375.7 602.37 375.7 595 c 0
 375.7 71 l 0
 375.7 63.0537 376.22 53.0469 381.82 43.9512 c 0
 396.185 20.6191 420.869 26.8145 462.792 22.1113 c 1
 462.85 21.25 462.891 17.0986 462.901 14.2178 c 1
EndSplineSet
EndChar

StartChar: U
Encoding: 85 85 54
Width: 680
GlyphClass: 2
Flags: HW
HStem: -15 57<307.793 497.895> 641 48<89.5978 144.247 219.122 291.79>
VStem: 144.7 72<149.926 634.586> 570.3 44.8<128.982 634.348>
LayerCount: 2
Fore
SplineSet
653.5 663.045 m 1
 637.891 659.194 600.45 654.246 599.893 572.041 c 1
 599.803 570.866 599.1 567.688 599.1 562 c 0
 599.1 335 l 0
 599.1 318.144 599.9 303.144 599.9 288 c 0
 599.9 256 l 0
 599.9 187.249 594.621 102.004 535.578 50.4316 c 0
 500.015 19.585 452.316 5 393.5 5 c 0
 210.196 5 178.04 127.564 169.64 161.689 c 1
 160.82 200.273 159.9 237.271 159.9 284 c 0
 159.9 308.474 160.7 334.478 160.7 360 c 0
 160.7 612 l 0
 160.7 623.953 158.679 636.02 151.833 645.167 c 0
 139.839 661.194 124 659.271 113.013 660.857 c 1
 109.644 661.383 105.97 663.09 105.619 663.442 c 1
 105.547 663.84 105.5 664.161 105.5 665 c 0
 105.5 666.083 105.838 668.373 106.01 668.997 c 1
 113.935 668.894 138.386 666.981 186.169 666 c 1
 191.1 666 l 0
 240.112 666 267.07 668.731 275.591 668.983 c 1
 275.808 667.196 275.9 665.492 275.9 663 c 0
 275.9 662.51 275.88 661.778 275.875 661.634 c 1
 270.869 660.201 257.476 659.989 240.048 656.801 c 1
 207.649 651.214 200.7 620.058 200.7 602 c 0
 200.7 289 l 0
 200.7 218.182 203.495 139.511 254.748 82.1885 c 1
 299.661 30.5371 364.321 22 409.5 22 c 0
 439.594 22 532.729 24.6172 570.332 124.365 c 1
 586.683 166.379 587.1 214.652 587.1 244 c 0
 587.1 258 l 0
 587.1 279.648 586.3 299.648 586.3 320 c 0
 586.3 592 l 0
 586.3 655.107 553.159 660.165 518.289 664.902 c 1
 516.731 665.079 515.591 665.312 515.146 665.419 c 1
 515.091 666.498 515.1 666.324 515.1 667 c 0
 515.1 668.073 515.165 668.982 515.165 668.982 c 1
 522.206 668.724 544.359 666 584.7 666 c 0
 623.675 666 645.427 668.508 653.422 668.946 c 1
 653.506 666.799 653.499 665.286 653.5 663.045 c 1
EndSplineSet
EndChar

StartChar: V
Encoding: 86 86 55
Width: 747
GlyphClass: 2
Flags: HW
HStem: -20 21G<418.394 430.794> 632 57<102.252 146.489> 639 50<242.648 308.205 544.104 612.244>
VStem: 96.7941 145.6<609 673> 613.594 128.8<603 670.5>
LayerCount: 2
Fore
SplineSet
119.994 669 m 0
 127.027 669 155.86 666 209.594 666 c 0
 257.555 666 284.603 668.641 292.788 668.961 c 1
 292.755 667.128 292.675 666.172 292.627 665.637 c 1
 288.44 663.826 277.599 661.86 261.857 658.826 c 1
 253.195 657.517 226.395 649.644 226.395 613 c 0
 226.395 598.907 231.412 587.747 232.731 584.435 c 1
 317.527 348.23 410.678 146.224 420.753 131.83 c 0
 421.104 131.329 l 1
 421.48 130.858 l 0
 424.83 126.67 431.143 121 439.994 121 c 0
 456.205 121 462.585 138.779 462.965 139.705 c 1
 524.578 279.651 577.776 423.646 623.886 578.346 c 1
 625.045 582.693 629.594 592.568 629.594 607 c 0
 629.594 636.354 611.935 651.44 601.233 655.899 c 1
 583.229 664.001 564.057 660.42 560.085 661.924 c 1
 560.012 662.739 559.994 663.13 559.994 664 c 0
 559.994 666.232 560.327 668.107 560.554 668.924 c 1
 561.126 669.003 561.127 669 561.594 669 c 0
 567.67 669 594.226 666 643.194 666 c 0
 692.947 666 718.75 669 724.794 669 c 0
 725.29 669 725.842 668.945 725.842 668.945 c 1
 726.194 667.188 726.395 665.275 726.395 662 c 0
 726.386 661.362 l 1
 720.342 658.754 691.495 659.331 669.849 630.582 c 1
 638.776 587.858 601.938 403.549 430.898 9.92285 c 1
 427.187 2.18945 425.073 0 424.794 0 c 0
 423.246 0 421.527 2.34668 417.799 10.1123 c 1
 161.273 570.509 178.078 617.253 142.639 648.506 c 1
 130.179 659.477 117.157 663.638 113.547 667.979 c 1
 114.989 668.555 116.771 669 119.994 669 c 0
EndSplineSet
EndChar

StartChar: W
Encoding: 87 87 56
Width: 902
GlyphClass: 2
Flags: HW
HStem: -22 21G<352.5 362.5 610.1 624.9> 644 45<342.921 407.892 480.638 539.676 712.507 780.817>
VStem: 781.3 120<605 675>
LayerCount: 2
Fore
SplineSet
131.7 669 m 0
 136.819 669 161.945 666 208.5 666 c 0
 249.776 666 273.987 668.544 282.01 668.948 c 1
 282.117 666.734 282.1 665.946 282.1 664 c 1
 277.655 662.956 247.175 671.116 230.461 645.579 c 1
 224.086 635.62 222.9 626.608 222.9 620 c 0
 222.9 612.688 224.197 606.066 226.458 599.349 c 1
 272.07 420.376 285.693 376.398 351.118 156.978 c 0
 353.079 150.443 358.197 126 378.1 126 c 0
 405.871 126 402.665 149.027 478.576 388.636 c 0
 478.966 389.866 l 1
 479.223 391.149 l 0
 480.014 395.106 481.3 400.674 481.3 408 c 0
 481.3 409 l 0
 481.3 425.751 479.58 424.672 427.639 612.474 c 0
 423.529 627.488 421.511 640.565 411.348 651.176 c 0
 397.944 665.167 382.636 662.414 358.94 663.872 c 1
 358.898 665.062 358.9 665.152 358.9 666 c 0
 358.9 667.436 359.077 668.435 359.131 668.697 c 1
 359.558 668.847 360.211 669 361.3 669 c 0
 367.378 669 393.942 666 443.7 666 c 0
 444.5 666 l 0
 488.735 666 514.539 668.474 523.675 668.925 c 1
 523.706 667.526 523.697 667.643 523.702 667.123 c 1
 519.943 666.171 513.016 665.316 503.315 663.846 c 0
 494.466 662.463 479.923 660.564 470.59 644.329 c 0
 466.425 637.085 464.5 628.073 464.5 619 c 0
 464.5 611.594 465.71 606.459 466.41 602.078 c 0
 466.604 600.871 l 1
 466.914 599.702 l 0
 523.551 386.297 598.626 156.391 613.215 131.143 c 1
 615.073 128.045 621.027 114 635.7 114 c 0
 636.5 114 l 0
 657.751 114 663.076 140.742 664.157 144.486 c 1
 744.397 356.629 797.3 584.07 797.3 616 c 0
 797.3 624.498 795.759 633.579 791.32 641.19 c 0
 777.56 664.796 752.875 660.592 730.307 663.872 c 1
 729.544 663.979 729.021 664.089 728.551 664.184 c 1
 728.502 665.519 728.5 665.91 728.5 667 c 0
 728.5 667.828 728.534 668.959 728.534 668.959 c 1
 737.501 668.589 762.423 666 807.7 666 c 0
 808.5 666 l 0
 851.166 666 876.176 668.461 885.221 668.921 c 1
 885.297 667.471 885.3 667.175 885.3 666 c 0
 885.3 665.291 885.246 664.357 885.244 664.32 c 1
 879.754 662.326 845.175 666.493 828.853 629.576 c 1
 820.272 609.656 767.173 383.428 636.354 34.334 c 1
 624.84 2.22656 618.249 -2 618.1 -2 c 0
 617.086 -2 607.968 8.56152 599.471 38.0664 c 1
 507.507 328.82 511.896 354 486.1 354 c 0
 471.746 354 468.589 338.944 468.589 338.944 c 0
 468.249 338.094 l 1
 467.976 337.208 l 0
 386.519 73.6816 368.102 10.6855 362.584 -0.386719 c 1
 362.33 -0.532227 362.06 -0.686523 361.733 -0.875977 c 0
 360.702 -1.47852 l 1
 357.051 2.6748 351.588 22.3818 344.844 41.7695 c 1
 236.199 374.306 184.369 604.108 176.958 628.429 c 1
 163.736 667.839 127.802 660.117 127.802 660.117 c 1
 127.74 660.358 127.7 660.551 127.7 661 c 0
 127.7 668.306 128.676 669 131.7 669 c 0
EndSplineSet
EndChar

StartChar: X
Encoding: 88 88 57
Width: 598
GlyphClass: 2
Flags: HW
HStem: -6 48<70.4977 139.125 200.308 270.891 358.53 423.688 516.216 592.438> 641 48<80.8887 150.103 380.516 444.189>
VStem: 70.3036 129.6<8.5 74> 294.304 71.2<326.776 370.875> 444.704 148<597 676.5>
LayerCount: 2
Fore
SplineSet
334.729 295.047 m 0
 332.268 300.124 326.324 308 318.304 308 c 0
 296.938 308 299.514 293.56 195.622 106.516 c 1
 191.703 99.6582 183.903 86.916 183.903 69 c 0
 183.903 61.2197 185.252 52.6475 189.381 45.2881 c 0
 201.979 22.8379 224.879 25.4131 247.256 22.1924 c 1
 251.91 21.209 254.319 20.0508 254.75 19.7188 c 1
 254.909 19.1094 255.104 18.168 255.104 16 c 0
 255.104 15.4189 255.072 14.7373 255.042 14.2451 c 1
 244.279 15.5537 210.026 20 169.504 20 c 0
 130.656 20 98.4082 15.9824 86.3105 14.5039 c 1
 86.3525 18.1133 86.5029 19.9893 86.6582 21.415 c 1
 90.915 23.0742 98.9443 24.457 112.3 27.3076 c 1
 149.195 35.8027 159.138 58.8516 189.728 112.383 c 0
 306.543 317.006 310.304 311.335 310.304 333 c 0
 310.304 354.829 305.181 353.183 180.625 601.693 c 0
 154.046 654.209 135.51 656.948 102.127 660.921 c 1
 99.2637 661.219 97.5645 661.886 97.1855 662.097 c 1
 96.9385 663.03 96.7031 664.249 96.7031 667 c 0
 96.7031 667.751 96.7422 668.501 96.7744 669 c 1
 104.453 668.957 133.778 666 188.703 666 c 0
 191.104 666 l 2
 243.185 666 271.22 668.745 279.505 668.98 c 1
 279.732 666.681 279.837 664.092 279.855 663.495 c 1
 273.509 661.917 246.601 667.763 231.232 644.52 c 0
 226.213 636.93 223.903 627.001 223.903 617 c 0
 223.903 596.229 234.277 580.344 235.192 578.056 c 0
 235.488 577.316 l 1
 235.832 576.61 l 0
 285.106 475.296 306.181 431.504 316.151 411.899 c 0
 321.449 401.483 325.705 388 339.104 388 c 0
 347.061 388 352.952 395.027 353.617 395.858 c 0
 354.574 397.054 l 1
 355.356 398.434 l 0
 443.666 554.157 460.703 570.927 460.703 611 c 0
 460.703 663.088 420.091 661.428 401.702 662.961 c 0
 398.895 663.18 397.163 663.795 396.713 664.011 c 1
 396.522 664.628 396.092 667.174 395.986 668.901 c 1
 407.916 668.338 435.783 666 484.703 666 c 0
 537.587 666 566.618 668.656 576.677 668.973 c 1
 576.498 664.092 576.083 662.796 575.809 661.874 c 1
 571.896 660.074 537.901 667.415 509.644 641.13 c 1
 490.623 623.958 462.725 574.938 456.005 561.737 c 1
 354.544 381.831 349.504 384.643 349.504 363 c 0
 349.504 341.021 353.911 344.65 489.592 76.2891 c 0
 512.047 32.0244 526.294 28.8369 569.823 23.1631 c 1
 577.475 21.5977 576.703 23.2002 576.703 15 c 1
 565.045 16.1973 524.603 20 475.903 20 c 0
 425.877 20 383.646 14.998 374.325 14.0967 c 1
 374.305 14.5723 374.304 14.6484 374.304 15 c 0
 374.304 17.0488 374.436 18.543 374.531 19.3203 c 1
 378.198 21.207 389.547 23.0303 408.609 26.207 c 1
 420.031 28.4619 429.446 34.46 434.95 45.1426 c 0
 439.271 53.5293 439.903 62.1074 439.903 68 c 0
 439.903 70 l 0
 439.903 94.8369 434.354 96.415 334.729 295.047 c 0
EndSplineSet
EndChar

StartChar: Y
Encoding: 89 89 58
Width: 600
GlyphClass: 2
Flags: HW
HStem: -6 51<200.109 285.183 353.395 458.881> 642 47<212.773 285.184 410.431 483.588>
VStem: 285.32 68<49.9095 315.178> 483.72 110.4<610 673>
DStem2: 343.72 353 436.52 427 0.527137 0.849781<-8.8333 291.714>
LayerCount: 2
Back
SplineSet
458.92 21 m 6
 458.92 13 l 6
 458.92 4 456.521 -6 446.12 -6 c 4
 442.12 -6 393.32 0 333.32 0 c 4
 271.721 0 222.92 -6 219.72 -6 c 4
 210.12 -6 199.72 0 199.72 22 c 4
 199.72 49 209.32 44 262.12 48 c 4
 273.32 49 285.32 48 285.32 70 c 6
 285.32 277 l 6
 285.32 301 280.521 307 268.521 332 c 4
 121.32 627 125.32 620 121.32 627 c 4
 106.12 651 87.7197 632 78.9199 653 c 4
 77.3203 656 75.7197 661 75.7197 667 c 4
 75.7197 676 79.7197 689 95.7197 689 c 4
 104.521 689 130.92 686 183.72 686 c 4
 236.521 686 262.12 689 270.92 689 c 4
 282.92 689 285.32 679 285.32 669 c 4
 285.32 639 274.12 643 233.32 639 c 4
 226.92 638 212.521 636 212.521 616 c 6
 212.521 614 l 6
 212.521 604 215.72 600 326.12 361 c 4
 330.92 351 332.521 347 337.32 347 c 4
 341.32 347 342.92 352 343.721 353 c 4
 462.92 558 483.721 589 483.721 617 c 4
 483.721 666 410.12 618 410.12 669 c 4
 410.12 677 414.12 689 426.92 689 c 4
 434.12 689 455.721 686 498.12 686 c 6
 500.521 686 l 5
 543.721 687 564.521 689 571.721 689 c 4
 588.521 689 594.12 677 594.12 669 c 4
 594.12 648 571.721 645 552.521 614 c 6
 436.521 427 l 5
 354.12 287 353.32 296 353.32 265 c 6
 353.32 70 l 6
 353.32 46 363.721 50 441.32 45 c 4
 455.721 44 458.92 35 458.92 21 c 6
EndSplineSet
Fore
SplineSet
446.938 661.975 m 0
 434.844 662.605 427.405 664.622 426.45 665.362 c 1
 426.348 665.746 426.155 666.888 426.115 668.952 c 1
 426.635 669.007 426.567 669 426.92 669 c 0
 431.937 669 455.512 666 498.12 666 c 0
 500.669 666 l 1
 544.26 667.008 565.955 669 571.721 669 c 0
 574.875 669 576.725 668.275 577.481 667.91 c 1
 574.029 663.274 555.735 651.861 539.876 626.255 c 0
 423.752 439.056 l 1
 343.114 302.053 337.32 305.12 337.32 265 c 0
 337.32 70 l 0
 337.32 63.3262 337.689 54.2764 342.695 45.7139 c 0
 357.461 20.459 385.014 28.6016 440.433 25.0312 c 0
 441.431 24.9619 442.409 24.79 442.779 24.7178 c 1
 442.901 23.2031 442.92 22.5498 442.92 21 c 0
 442.92 14.2793 l 1
 428.155 15.6328 385.27 20 333.32 20 c 0
 273.793 20 225.313 14.4307 219.507 14.002 c 1
 217.322 14.0576 216.789 14.6543 216.789 14.6543 c 1
 216.789 14.6543 215.72 15.2549 215.72 22 c 0
 215.72 22.9043 215.746 23.9873 215.76 24.4111 c 1
 222.946 26.0117 238.048 26.1396 263.174 28.043 c 1
 268.328 28.5029 280.986 26.3789 291.884 39.0537 c 0
 298.769 47.0596 301.32 58.6387 301.32 70 c 0
 301.32 277 l 0
 301.32 305.875 293.3 319.249 282.169 342.438 c 1
 134.679 638.013 139.409 629.754 134.34 638.625 c 0
 134.11 639.027 l 1
 133.865 639.414 l 0
 118.212 664.129 93.9932 661.736 93.2275 661.977 c 1
 92.8291 662.844 93.4648 661.394 93.0938 662.28 c 0
 92.7012 663.215 l 1
 92.2529 664.057 l 1
 92.124 664.345 91.7197 665.67 91.7197 667 c 0
 91.7197 667.454 91.8135 668.055 91.875 668.299 c 1
 92.167 668.469 93.2314 669 95.7197 669 c 0
 102.726 669 130.774 666 183.72 666 c 0
 233.329 666 260.258 668.641 269.322 668.968 c 1
 269.292 665.059 269.161 664.044 269.041 663.029 c 1
 264.074 661.409 251.585 660.852 232.069 658.939 c 0
 231.701 658.903 l 1
 231.335 658.846 l 0
 227.578 658.258 213.493 657.764 203.61 642.566 c 0
 199.022 635.51 196.521 626.005 196.521 616 c 0
 196.521 614 l 0
 196.521 590.296 202.188 589.299 312.331 350.854 c 1
 315.564 344.118 321.581 327 337.32 327 c 0
 350.576 327 356.241 340.513 356.241 340.513 c 1
 356.678 341.267 l 0
 430.39 468.465 465.914 527.43 483.877 563.781 c 1
 490.446 578.152 499.721 595.104 499.721 616 c 0
 499.721 625.963 498.268 636.862 492.179 645.708 c 0
 480.017 663.38 462.59 660.789 446.938 661.975 c 0
EndSplineSet
EndChar

StartChar: Z
Encoding: 90 90 59
Width: 566
GlyphClass: 2
Flags: HW
HStem: 0 81<214.157 481.439> 600 75<124.929 431.599> 706 20G<95.9999 106>
VStem: 76.3999 32.8<486.018 580.65> 82.7999 37.6<681.217 725.616> 525.2 34.4<149.472 255.763>
LayerCount: 2
Fore
SplineSet
92.3994 511 m 0
 92.3994 521.641 98.7998 570.625 98.7998 661 c 0
 98.7998 698 l 0
 98.7998 703.242 99.6797 705.634 99.8262 705.994 c 1
 100.026 705.971 101.884 704.893 105.456 694.789 c 1
 113.412 666.033 139.755 655 164.399 655 c 0
 513.2 655 l 0
 513.859 655 514.896 654.929 515.025 654.92 c 1
 509.417 643.74 491.789 615.538 447.775 543.29 c 1
 331.981 361.612 l 1
 285.84 292.004 238.986 217.771 202.723 137.401 c 1
 199.765 131.505 196.399 123.84 196.399 112 c 0
 196.399 65.2686 238.462 68.3359 291.401 64.0391 c 0
 317.354 62.0117 344.077 61 370.8 61 c 0
 387.6 61 l 0
 444.422 61 496.412 62.4521 520.758 134.275 c 1
 531.218 165.872 535.603 221.722 539.098 235.588 c 1
 539.402 235.835 539.709 235.961 540.189 235.994 c 1
 541.29 235.612 543.6 234.923 543.6 228 c 0
 543.6 227 l 0
 543.6 187.523 538.334 169.696 534.092 125.15 c 1
 527.617 41.8867 530.188 22.6943 517.686 20 c 1
 98.7998 20 l 0
 96.9678 20 93.8682 20.4414 92.3984 21.0654 c 1
 92.4385 22.0986 92.7197 23.4834 95.2939 27.5059 c 0
 95.5918 27.9717 l 1
 95.8672 28.459 l 0
 199.536 211.873 312.584 388.027 432.358 553.712 c 1
 443.008 568.926 447.6 578.712 447.6 589 c 0
 447.6 600.818 439.105 620 420.399 620 c 0
 162 620 l 0
 111.368 620 108.602 585.607 93.6895 512.91 c 1
 93.3154 511.038 92.7627 508.757 92.5625 508.062 c 1
 92.4121 509.481 92.3994 509.811 92.3994 511 c 0
EndSplineSet
EndChar

StartChar: bracketleft
Encoding: 91 91 60
Width: 338
GlyphClass: 2
Flags: HW
HStem: -185 25<141.754 157.141> 223 77<56.8131 96.2029> 233 60<78.4744 99.5055>
VStem: 54.7541 81.6<233.178 292.875> 100.354 36<-159.999 232.998 293.002 678.999> 189.954 33.6<-138.954 654.033>
LayerCount: 2
Fore
SplineSet
150.796 693.869 m 0
 147.487 696.35 142.286 699 138.754 699 c 0
 122.359 699 120.354 678.12 120.354 674 c 0
 120.354 -155 l 2
 120.354 -162.084 125.66 -180 139.554 -180 c 0
 161.895 -180 158.377 -162.545 189.128 -156.779 c 0
 189.889 -156.636 l 1
 190.635 -156.403 l 0
 202.877 -152.577 205.954 -134.156 205.954 -131 c 0
 205.954 649 l 0
 205.954 685.193 164.935 683.3 150.796 693.869 c 0
119.554 724 m 0
 121.207 724 148.605 688 213.954 688 c 0
 246.704 688 274.935 698.445 292.787 706.659 c 1
 278.655 690.396 255.583 673.503 227.438 673 c 1
 214.484 673 206.754 655.244 206.754 645.974 c 0
 207.554 -127 l 0
 207.554 -169.032 247.788 -156.94 273.561 -176.031 c 1
 275.823 -177.841 279.148 -180.726 281.578 -182.944 c 1
 261.547 -173.375 236.932 -165 205.154 -165 c 0
 159.338 -165 128.629 -182.101 116.354 -188.107 c 1
 116.354 226 l 0
 116.354 229.013 115.315 253 97.1543 253 c 0
 74.4102 253 83.6758 243 77.9541 243 c 0
 74.7031 243 70.7539 246.459 70.7539 264 c 0
 70.7539 282.197 75.4727 280 77.9541 280 c 0
 84.1006 280 78.041 273 96.3545 273 c 0
 114.516 273 115.554 296.987 115.554 300 c 0
 115.554 710 l 0
 115.554 717.021 116.897 722.943 117.291 723.653 c 1
 117.586 723.783 118.159 724 119.554 724 c 0
EndSplineSet
EndChar

StartChar: backslash
Encoding: 92 92 61
Width: 211
GlyphClass: 2
Flags: HW
HStem: -226 21G<180.779 186.779>
VStem: 25.9787 183.2
LayerCount: 2
Fore
SplineSet
192.897 -198.329 m 1
 187.128 -205.546 184.78 -205.919 184.78 -205.919 c 1
 184.703 -205.897 191.293 -210.815 191.207 -210.71 c 1
 76.3418 409.154 47.9023 562.454 42.6885 593.13 c 1
 44.2715 594.49 46.7402 596.012 47.5146 596.425 c 1
 117.57 160.116 186.414 -153.873 192.953 -198.819 c 1
 193.312 -201.465 192.897 -198.329 192.897 -198.329 c 1
EndSplineSet
EndChar

StartChar: bracketright
Encoding: 93 93 62
Width: 341
GlyphClass: 2
Flags: HW
HStem: -185 25<220.859 236.246> 223 77<281.797 321.187> 233 60<278.495 299.526>
VStem: 154.446 33.6<-138.954 654.033> 241.646 81.6<233.178 292.875> 241.646 36<-159.999 232.998 293.002 678.999>
LayerCount: 2
Fore
SplineSet
227.204 693.869 m 0
 212.529 682.899 172.046 685.087 172.046 649 c 0
 172.046 -131 l 0
 172.046 -134.156 175.123 -152.577 187.365 -156.403 c 0
 188.111 -156.636 l 1
 188.872 -156.779 l 0
 219.454 -162.513 216.322 -180 238.446 -180 c 0
 252.34 -180 257.646 -162.084 257.646 -155 c 2
 257.646 674 l 0
 257.646 678.12 255.641 699 239.246 699 c 0
 235.714 699 230.513 696.35 227.204 693.869 c 0
258.446 724 m 0
 259.966 724 260.607 723.698 260.709 723.653 c 1
 261.283 722.617 262.446 716.755 262.446 710 c 0
 262.446 300 l 0
 262.446 296.987 263.484 273 281.646 273 c 0
 299.959 273 293.899 280 300.046 280 c 0
 302.527 280 307.246 282.197 307.246 264 c 0
 307.246 246.524 303.229 243 300.046 243 c 0
 294.324 243 303.59 253 280.846 253 c 0
 262.685 253 261.646 229.013 261.646 226 c 0
 261.646 -188 l 1
 249.472 -182.085 218.587 -165 172.846 -165 c 0
 141.008 -165 114.756 -174.186 96.4219 -182.944 c 1
 100.283 -179.42 101.959 -178.015 104.439 -176.031 c 1
 130.204 -156.946 170.446 -169.008 170.446 -127.026 c 0
 171.246 646 l 0
 171.246 655.223 163.516 673 150.562 673 c 1
 122.214 673.506 98.4834 691.387 85.2129 706.659 c 1
 104.624 697.729 131.399 688 164.046 688 c 0
 229.396 688 256.792 724 258.446 724 c 0
EndSplineSet
EndChar

StartChar: asciicircum
Encoding: 94 94 63
Width: 380
GlyphClass: 2
Flags: HW
HStem: 606 110<193.542 230.198>
VStem: 83.2 257.6<472 492>
LayerCount: 2
Fore
SplineSet
100.8 482 m 0
 99.4414 482 99.2002 482.321 99.2002 484 c 0
 99.2002 485.382 100.183 488.842 102.548 493.769 c 1
 194.6 688.575 195.003 689.502 203.857 694.585 c 1
 206.255 695.704 207.792 696 209.6 696 c 0
 217.299 696 225.966 682.668 236.415 663.669 c 0
 236.869 662.845 236.457 663.59 236.02 664.426 c 1
 324.143 487.572 324.8 485.48 324.8 483 c 0
 324.8 481.133 324.591 480 321.6 480 c 0
 316.828 480 306.896 493.577 294.272 514.21 c 1
 233.387 612.204 233.071 626 212 626 c 0
 211.004 626 l 1
 210.016 625.846 l 0
 192.577 623.121 193.896 616.793 126.101 512.793 c 1
 110.252 489.486 104.861 482 100.8 482 c 0
EndSplineSet
EndChar

StartChar: underscore
Encoding: 95 95 64
Width: 474
GlyphClass: 2
Flags: HW
HStem: -76 55<74.4283 453.553>
LayerCount: 2
Fore
SplineSet
90.4004 -50 m 2
 90.4004 -46 l 0
 90.4004 -44.2246 90.46 -41.668 90.4863 -41 c 1
 437.454 -41 l 1
 437.603 -43.5781 437.6 -44.1016 437.6 -46 c 0
 437.6 -48 l 0
 437.6 -50.957 437.551 -54.4854 437.488 -56 c 1
 90.459 -56 l 1
 90.3926 -53.6631 90.4004 -52.2725 90.4004 -50 c 2
EndSplineSet
EndChar

StartChar: grave
Encoding: 96 96 65
Width: 203
GlyphClass: 2
Flags: HW
HStem: 474 227
VStem: 27.8 158.4
LayerCount: 2
Fore
SplineSet
43.7998 664 m 0
 43.7998 674.135 50.3047 681 57.4004 681 c 0
 58.2002 681 l 0
 69.624 681 80.6064 664.002 88.8271 648.018 c 1
 155.006 524.761 169.311 498.138 170.188 494.723 c 1
 170.193 494.597 170.199 494.278 170.2 494.078 c 1
 170.192 494.045 170.188 494.025 170.182 494.004 c 1
 163.166 500.421 138.94 531.934 59.1543 633.092 c 1
 52.4561 641.464 43.7998 652.828 43.7998 664 c 0
EndSplineSet
EndChar

StartChar: a
Encoding: 97 97 66
Width: 381
GlyphClass: 2
Flags: HW
HStem: -12 59<309.912 355.028> 193 37<171.925 250.154> 387 47<142.026 226.239>
VStem: 69.4017 59.2<48.7656 154.201> 251.002 56<76.3281 192.996 230.096 353.167>
LayerCount: 2
Fore
SplineSet
260.379 50 m 1
 238.384 50 240.097 36.5176 226.132 24.6465 c 1
 210.219 11.6738 186.375 0 160.602 0 c 0
 114.26 0 85.4014 41.3516 85.4014 92 c 0
 85.4014 93 l 0
 85.4014 124.595 97.3955 150.944 112.969 166.354 c 0
 151.18 204.388 238.052 206.727 249.618 211.322 c 1
 264.788 218.116 266.202 236.747 266.202 244 c 0
 266.202 280 l 0
 266.202 313.472 262.737 344.858 242.919 373.348 c 1
 231.096 389.36 211.489 407 184.602 407 c 0
 131.003 407 106.463 341.941 102.15 330.693 c 1
 101.402 329.695 101.408 329 98.2021 329 c 0
 88.8906 329 82.2021 336.471 82.2021 345 c 0
 82.2021 360.645 125.931 414 189.401 414 c 0
 219.268 414 282.919 402.398 289.469 322.155 c 1
 290.241 310.581 291.002 298.768 291.002 288 c 0
 291.002 91 l 0
 291.002 39.8262 320.445 27 334.202 27 c 0
 338.932 27 345.255 28.6016 347.815 29.6016 c 1
 339.173 16.1426 329.047 8 315.002 8 c 0
 284.081 8 282.336 36.2773 265.356 46.8887 c 0
 260.379 50 l 1
179.802 15 m 0
 226.84 15 253.682 54.6816 259.222 64.375 c 0
 265.839 75.957 267.002 88.7344 267.002 99 c 0
 267.002 164 l 0
 267.002 181.534 266.472 213 243.002 213 c 0
 226.986 213 169.938 209.336 137.102 171.881 c 1
 123.272 156.882 112.602 133.803 112.602 103 c 0
 112.602 84.0371 116.521 53.0127 134.727 33.1006 c 1
 149.191 16.5264 168.339 15 179.802 15 c 0
EndSplineSet
EndChar

StartChar: b
Encoding: 98 98 67
Width: 437
GlyphClass: 2
Flags: HW
HStem: -19 41<170.406 312.651> 377 53<196.147 308.307> 693 20G<152.382 156.382>
VStem: 104.382 55.2<2.73671 330.126> 106.782 56<65.0945 353.728 389.001 621.937> 380.382 50.4<104.331 284.133>
LayerCount: 2
Fore
SplineSet
77.041 654.549 m 1
 119.395 675.533 140.04 685.854 149.181 690.208 c 1
 149.103 626.94 146.782 425.109 146.782 395 c 0
 146.782 383.176 155.294 369 165.982 369 c 0
 192.046 369 207.855 410 274.782 410 c 0
 358.409 410 414.782 332.713 414.782 209 c 0
 414.782 149.486 398.615 57.4941 318.687 19.6895 c 0
 287.958 5.05762 250.733 1 234.782 1 c 0
 201.179 1 189.384 20 157.183 20 c 0
 138.604 20 126.033 8.49023 120.529 3 c 1
 120.389 5.7959 120.383 6.7959 120.383 9 c 0
 120.383 125.814 122.782 476.814 122.782 594 c 0
 122.782 600.933 122.214 608.354 119.242 615.632 c 0
 115.71 624.284 110.696 628.775 105.807 632.85 c 1
 90.207 644.815 83.7334 649.304 77.041 654.549 c 1
396.383 192 m 0
 396.383 314.147 324.932 397 246.782 397 c 0
 211.1 397 144.383 374.655 144.383 328 c 0
 144.383 72.9844 l 1
 144.173 71.6523 143.582 69.7432 143.582 65 c 0
 143.582 57.6113 143.812 48.2539 148.41 38.8828 c 0
 152.298 30.96 158.356 25.8047 164.665 22.5195 c 0
 189.548 9.64941 216.436 2 244.383 2 c 0
 334.358 2 396.383 80.6533 396.383 192 c 0
EndSplineSet
EndChar

StartChar: c
Encoding: 99 99 68
Width: 343
GlyphClass: 2
Flags: HW
HStem: -18 64<172.8 278.461> 376 52<152.79 240.054>
VStem: 52.5135 52.8<134.62 305.205>
LayerCount: 2
Fore
SplineSet
206.113 2 m 0
 124.302 2 68.5137 82.3848 68.5137 197 c 0
 68.5137 323.914 130.771 408 223.714 408 c 0
 279.26 408 309.313 372.422 309.313 354 c 0
 309.313 343.566 302.844 336 293.313 336 c 0
 272.271 336 255.389 396 196.514 396 c 0
 134.76 396 89.3135 312.095 89.3135 222 c 0
 89.3135 120.429 147.404 26 231.714 26 c 0
 279.412 26 305.89 55.7061 320.621 71.3574 c 1
 296.455 34.1582 256.614 2 206.113 2 c 0
EndSplineSet
EndChar

StartChar: d
Encoding: 100 100 69
Width: 444
GlyphClass: 2
Flags: HW
HStem: -21 52<193.923 310.409> 383 40<176.886 304.39> 694 20G<378.613 383.413>
VStem: 62.6132 53.6<127.427 307.105> 333.013 56.8<69.2324 354.672 408.003 610.663>
LayerCount: 2
Fore
SplineSet
239.413 403 m 0
 148.357 403 100.213 324.924 100.213 216 c 0
 100.213 79.0322 192.747 11 255.413 11 c 0
 287.27 11 335.499 25.8418 345.906 68.1182 c 0
 346.031 68.6309 l 1
 346.136 69.1494 l 0
 347.96 78.2764 349.014 87.3057 349.014 97 c 0
 349.014 321 l 0
 349.014 329.061 347.699 344.926 336.132 359.386 c 1
 307.817 392.419 271.765 403 239.413 403 c 0
241.014 403 m 2
 292.702 403 314.022 388 327.413 388 c 0
 343.819 388 349.014 407.971 349.014 417 c 0
 349.014 585 l 0
 349.014 591.577 348.671 599.76 344.884 607.961 c 0
 336.302 626.545 316.32 632.075 295.745 642.207 c 1
 339.979 669.314 362.114 682.729 373.757 689.417 c 1
 373.393 648.688 371.413 552.188 371.413 376 c 0
 371.413 276.603 373.006 91.2363 373.809 81.0713 c 1
 376.11 49.1592 400.062 49.3252 411.519 48.8154 c 1
 404.837 44.9561 396.647 39.958 387.604 33.458 c 1
 370.53 21.8584 356.686 9.43457 349.813 2.91797 c 1
 349.813 15 l 0
 349.813 22.623 345.376 38 332.213 38 c 0
 307.253 38 299.96 -1 237.014 -1 c 0
 141.782 -1 78.6133 90.4092 78.6133 207 c 0
 78.6133 302.818 123.714 403 240.213 403 c 0
 241.014 403 l 2
EndSplineSet
EndChar

StartChar: e
Encoding: 101 101 70
Width: 368
GlyphClass: 2
Flags: HW
HStem: -19 57<173.483 288.184> 376 55<145.274 239.877>
VStem: 58.5 56.8<115.769 316.359> 272.9 77.6<292.942 337.386>
LayerCount: 2
Fore
SplineSet
74.5 206 m 0
 74.5 337.763 136.887 411 206.5 411 c 0
 254.834 411 303.86 370.275 331.149 323.255 c 0
 331.37 322.874 l 1
 331.606 322.506 l 0
 333.028 320.285 334.5 316.062 334.5 313 c 0
 334.5 312 l 0
 334.5 304.425 311.377 294.223 280.509 280.918 c 0
 124.081 213.851 99.2998 217.795 99.2998 183 c 0
 99.2998 167.304 118.312 18 233.7 18 c 0
 263.32 18 292.188 29.9082 316.48 49.3047 c 1
 287.298 18.9102 251.491 1 212.9 1 c 0
 154.502 1 74.5 46.418 74.5 206 c 0
288.9 310 m 0
 288.9 341.571 239.99 396 188.9 396 c 0
 129.438 396 96.0996 325.936 96.0996 233 c 0
 96.0996 217.59 106.972 206 116.1 206 c 0
 130.389 206 267.273 276.623 272.855 280.111 c 0
 281.83 285.721 288.9 296.348 288.9 310 c 0
EndSplineSet
EndChar

StartChar: f
Encoding: 102 102 71
Width: 272
GlyphClass: 2
Flags: HW
HStem: -6 45<53.4568 102.868 161.403 222.993> 359 52<47.6619 104.931 161.451 263.926> 653 67<218.548 314.938>
VStem: 106.203 55.2<38.7292 358.944 411.182 564.612>
LayerCount: 2
Fore
SplineSet
167.008 18.9766 m 1
 158.168 19.583 148.356 20 138.203 20 c 0
 106.629 20 80.2402 16.2373 69.0703 14.6055 c 1
 75.1631 15.9941 82.4775 17.0107 93.3408 19.2129 c 1
 117.777 23.2852 118.481 54.3584 118.952 61.4053 c 0
 120.649 87.9365 122.203 155.746 122.203 350 c 0
 122.203 385.731 91.626 379.279 63.9697 380 c 1
 63.0244 380.003 l 1
 63.1201 384.096 63.5762 387.012 63.7803 388 c 1
 64.5811 388 63.6426 387.976 64.4424 388.016 c 0
 93.5488 389.472 120.603 384.411 120.603 418 c 0
 120.603 418.744 l 1
 121.426 457.8 126.005 542.029 152.853 600.984 c 1
 181.562 661.993 242.761 700 285.402 700 c 0
 321.522 700 327.003 676.928 327.003 668 c 0
 327.003 659.381 321.924 649 309.402 649 c 0
 296.244 649 276.164 673 243.003 673 c 0
 168.001 673 144.603 550.023 144.603 436 c 0
 144.603 427 l 0
 144.603 414.21 150.432 391 168.603 391 c 0
 247.003 391 l 0
 247.604 391 248.154 390.966 248.603 390.935 c 1
 248.603 390 l 0
 248.603 380.651 247.992 379 243.803 379 c 0
 168.603 379 l 0
 160.932 379 145.402 370.012 145.402 351 c 0
 145.402 61 l 0
 145.402 55.0967 144.924 42.8604 152.137 31.3711 c 0
 155.478 26.0479 161.164 21.4619 167.008 18.9766 c 1
204.004 14.9756 m 1
 204.959 14.8965 206.565 14.665 206.661 14.6553 c 1
 206.427 14.6895 204.929 14.8418 204.004 14.9756 c 1
EndSplineSet
EndChar

StartChar: g
Encoding: 103 103 72
Width: 397
GlyphClass: 2
Flags: HW
HStem: -234 47<159.503 318.194> -30 44<151.266 306.546> 112 35<167.869 247.402> 351 101<335.478 367.235> 399 34<156.358 234.649>
VStem: 62.9 62.4<200.871 354.327> 66.9 44.8<-139.464 -47.0017> 80.5 40.8<19.8401 100.604> 278.9 57.6<197.295 342.215> 343.7 46.4<-158.727 -67.4462>
LayerCount: 2
Fore
SplineSet
194.9 419 m 0
 143.594 419 109.3 361.918 109.3 289 c 0
 109.3 209.36 144.575 127 207.7 127 c 0
 262.708 127 294.9 189.61 294.9 258 c 0
 294.9 332.779 259.744 419 194.9 419 c 0
95.7002 -88 m 0
 95.7002 -166.968 167.002 -207 242.1 -207 c 0
 329.055 -207 359.7 -157.11 359.7 -114 c 0
 359.7 -65.7744 328.869 -42.9248 318.68 -36.998 c 1
 275.367 -9.7793 225.338 -20.7881 144.583 -10.1113 c 0
 143.744 -10 l 1
 140.5 -10 l 0
 126.814 -10 119.395 -22.0967 115.586 -26.8574 c 0
 102.634 -43.0488 95.7002 -65.7656 95.7002 -88 c 0
142.9 136.906 m 1
 142.9 173.897 109.937 173.073 92.0039 213.902 c 1
 82.9473 233.059 78.9004 253.887 78.9004 277 c 0
 78.9004 349.753 126.677 413 192.5 413 c 0
 246.163 413 261.21 377 293.3 377 c 0
 315.747 377 335.445 394.579 348.292 418.049 c 1
 353.935 429.333 356.389 432 358.1 432 c 0
 362.625 432 372.5 420.689 372.5 411 c 0
 372.5 389.819 339.599 384.795 321.077 366.787 c 0
 320.29 366.023 l 1
 319.586 365.142 l 0
 316.522 361.312 311.7 354.655 311.7 343 c 0
 311.7 323.188 320.5 316.739 320.5 280 c 0
 320.5 198.572 269.798 132 203.7 132 c 0
 179.932 132 175.732 141 157.3 141 c 0
 152.168 141 147.157 139.164 142.9 136.906 c 1
106.123 80.0664 m 1
 105.622 76.8359 105.3 73.3574 105.3 70 c 0
 105.3 -17.8584 269.09 10.9189 312.839 -5.20703 c 1
 356.58 -20.8291 374.1 -61.5371 374.1 -97 c 0
 374.1 -139.57 349.561 -214 223.7 -214 c 0
 98.9541 -214 82.9004 -142.429 82.9004 -108 c 0
 82.9004 -57.6748 113.163 -43.4561 119.813 -35.1426 c 0
 120.479 -34.3105 126.1 -26.9463 126.1 -17 c 0
 126.1 28.583 96.5 0.193359 96.5 43 c 0
 96.5 54.9551 100.344 68.0068 106.123 80.0664 c 1
EndSplineSet
EndChar

StartChar: h
Encoding: 104 104 73
Width: 461
GlyphClass: 2
Flags: HW
HStem: -6 42<66.6237 114.301 284.21 344.154 405.454 448.19> 371 51<203.446 293.87> 699 20G<161.402 167.402>
VStem: 119.402 52.8<39.8055 348.283 385.001 609.081> 345.802 59.2<38.0009 293.71>
LayerCount: 2
Fore
SplineSet
219.293 387.429 m 1
 235.272 395.927 252.011 402 274.603 402 c 0
 320.38 402 350.719 370.294 367.101 323.107 c 1
 381.792 279.951 385.797 253.035 389.002 65.7861 c 1
 389.002 52.624 390.817 38.8896 398.746 28.8203 c 0
 404.843 21.0781 412.779 18.2227 418.161 16.7764 c 1
 403.124 18.5391 386.368 20 365.002 20 c 0
 354.438 20 344.319 19.5332 335.369 18.9199 c 1
 340.095 20.1621 345.15 22.1426 349.973 27.54 c 0
 365.787 45.2422 361.803 73.3877 361.803 125 c 0
 361.803 270.535 342.715 316.766 318.934 348.87 c 1
 300.228 372.254 273.705 391 242.603 391 c 0
 234.871 391 226.716 389.599 219.293 387.429 c 1
180.898 365 m 1
 169.935 354.797 160.635 342.622 157.48 326.851 c 0
 156.051 319.703 156.202 313.864 156.202 309 c 0
 156.202 302.18 155.817 70.8115 157.819 59.6738 c 1
 163.406 27.4932 181.077 20.9395 192.877 18.0098 c 1
 179.012 19.2676 166.986 20 151.402 20 c 0
 133.208 20 114.498 18.6221 103.438 17.5029 c 1
 131.133 27.5918 130.751 57.8896 131.384 68.958 c 1
 133.812 161.005 135.402 252.452 135.402 345 c 0
 135.402 349 l 0
 135.402 432.019 133.64 584.874 131.942 597.606 c 1
 126.085 634.213 87.918 634.362 79.8633 637.434 c 1
 80.2236 637.695 l 0
 130.736 674.28 152.26 690.306 160.993 696.28 c 1
 160.202 392 l 0
 160.202 376.589 171.622 365 180.898 365 c 1
EndSplineSet
EndChar

StartChar: i
Encoding: 105 105 74
Width: 216
GlyphClass: 2
Flags: HW
HStem: -6 44<37.1018 97.0395 153.568 205.786> 421 20<142.193 147.393> 571 94<112.206 175.927>
VStem: 97.793 53.6<39.1511 336.573> 105.793 76.8<579.719 656.984>
LayerCount: 2
Fore
SplineSet
121.793 618 m 0
 121.793 632.406 131.896 645 144.193 645 c 0
 156.65 645 166.593 632.068 166.593 619 c 0
 166.593 603.812 155.85 591 143.393 591 c 0
 131.112 591 121.793 602.106 121.793 618 c 0
EndSplineSet
Refer: 203 305 S 1 0 0 1 0 0 2
EndChar

StartChar: j
Encoding: 106 106 75
Width: 202
GlyphClass: 2
Flags: HW
HStem: -231 77<-7.61336 59.7828> 422 20<138.4 142.8> 558 93<105.75 169.734>
VStem: 92.4 56.8<-117.424 346.052> 99.6 76.8<566.659 643.248>
LayerCount: 2
Fore
SplineSet
115.6 604 m 0
 115.6 619.335 125.398 631 138 631 c 0
 150.764 631 160.4 618.999 160.4 605 c 0
 160.4 591.142 149.815 578 137.2 578 c 0
 124.759 578 115.6 589.439 115.6 604 c 0
EndSplineSet
Refer: 262 567 S 1 0 0 1 0 0 2
EndChar

StartChar: k
Encoding: 107 107 76
Width: 407
GlyphClass: 2
Flags: HW
HStem: -4 38<152.086 205.43 344.684 399.897> 370 45<298.714 380.515> 698 20G<141.503 147.103>
VStem: 97.5027 54.4<37.2274 171.859 225.001 625.327> 238.303 142.4<335 403.957>
LayerCount: 2
Fore
SplineSet
152.95 204.685 m 1
 143.839 193.176 140.951 189.4 137.747 179.165 c 1
 135.176 169.518 135.902 165.412 135.902 161 c 0
 135.902 58 l 0
 135.902 50.4717 136.316 40.8496 141.836 32.0547 c 0
 147.07 23.7148 156.667 20.0293 159.181 19.2979 c 1
 151.081 19.7412 142.87 20 132.703 20 c 0
 114.994 20 99.3574 18.9502 91.0195 18.1758 c 1
 96.2314 20.4004 100.697 23.1738 105.089 29.0938 c 0
 110.078 35.8203 112.8 44.8994 113.444 54.292 c 0
 113.503 55.1445 l 1
 113.503 595 l 0
 113.503 603.331 112.754 612.089 108.95 620.332 c 0
 105.672 627.436 100.876 632.226 96.873 635.561 c 1
 90.2109 641.287 75.8066 653.713 70.8857 657.992 c 1
 109.959 679.585 125.849 688.359 135.902 693.727 c 1
 135.902 229 l 0
 135.902 229 136.253 209.709 152.95 204.685 c 1
175.231 221 m 1
 183.042 230.943 190.69 240.59 197.044 248.564 c 1
 196.894 247.463 196.703 245 196.703 244 c 0
 196.703 221.914 201.952 225.891 293.243 89.1475 c 0
 311.248 62.3145 333.186 29.6162 368.141 16.5479 c 1
 352.109 18.3799 333.567 20 310.303 20 c 0
 286.601 20 263.938 17.8672 250.875 16.3311 c 1
 259.776 18.1836 276.703 27.5977 276.703 52 c 0
 276.703 90.2627 199.716 198.043 192.607 208.785 c 1
 184.311 222.614 180.227 221 175.231 221 c 1
250.231 322.222 m 1
 253.442 330.7 254.303 339.514 254.303 347 c 0
 254.303 372.552 241.021 386.415 234.991 392 c 1
 280.703 392 l 0
 311.996 392 334.873 393.091 348.885 393.907 c 1
 342.484 392.795 337.354 391.685 330.181 389.325 c 0
 301.237 379.677 277.957 356.091 250.231 322.222 c 1
EndSplineSet
EndChar

StartChar: l
Encoding: 108 108 77
Width: 214
GlyphClass: 2
Flags: HW
HStem: -5 43<37.9572 92.1472 152.115 205.879> 703 20G<138.353 145.153>
VStem: 93.1531 58.4<39.238 609.091>
LayerCount: 2
Fore
SplineSet
180.668 16.1729 m 1
 165.221 18.0557 145.229 20 121.153 20 c 0
 95.7773 20 73.3086 17.8398 60.3584 16.3809 c 1
 65.5049 17.1357 67.7197 17.416 72.5869 18.1318 c 0
 104.236 22.6963 109.153 55.0039 109.153 76 c 0
 109.153 585 l 0
 109.153 611.308 92.3867 620.238 82.9229 627.197 c 1
 70.4658 636.539 59.4668 644.204 54.8633 647.612 c 1
 67.2881 655.818 92.2529 671.434 135.553 699.576 c 1
 135.553 71 l 0
 135.553 58 136.416 44.9131 143.89 34.042 c 0
 154.104 19.1836 169.155 18.5293 180.668 16.1729 c 1
EndSplineSet
EndChar

StartChar: m
Encoding: 109 109 78
Width: 650
GlyphClass: 2
Flags: HMW
HStem: -6 43<184.437 237.737 265.837 328.821 381.941 436.225 479.595 532.985 590.345 639.409> 371 51<213.265 301.523 406.441 499.394> 414 20G<173.03 178.63>
VStem: 134.63 49.6<36.1465 331.765> 329.83 52.8<38.0512 337.462> 533.03 56.8<37.4201 324.172>
LayerCount: 2
Fore
SplineSet
350.19 349.783 m 1
 356.647 345.509 361.185 346 361.83 346 c 0
 363.628 346 366.291 346.316 369.03 347.298 c 1
 365.699 342.153 361.83 335.3 361.83 325 c 0
 361.83 314.506 366.63 302.081 366.63 258 c 0
 366.63 65.4805 l 1
 366.262 63.1729 365.83 60.9863 365.83 57 c 0
 365.83 56 l 0
 365.83 34.8906 378.542 21.1768 393.434 18.0166 c 1
 380.959 19.1523 367.116 20 351.43 20 c 0
 339.169 20 325.235 19.2842 316.778 18.6465 c 1
 324.629 21.2285 331.238 25.1416 336.622 32.873 c 0
 345.486 45.6016 345.83 60.8652 345.83 75 c 0
 345.83 260 l 0
 345.83 293.623 342.834 335.808 313.891 362.944 c 1
 297.996 378.136 274.802 391 248.23 391 c 0
 241.977 391 235.391 390.102 229.524 388.707 c 1
 241.794 396.132 256.456 402 272.23 402 c 0
 315.707 402 343.015 357.094 350.19 349.783 c 1
183.55 357.986 m 1
 179.008 352.184 175.629 346.723 173.384 341.577 c 0
 172.928 340.533 l 1
 172.574 339.428 l 0
 170.502 332.952 168.23 322.51 168.23 306 c 0
 168.23 65 l 0
 168.23 53.6387 168.698 41.0811 176.138 30.4346 c 0
 180.713 23.8867 186.593 20.6475 191.556 18.6094 c 1
 181.907 19.4238 171.145 20 159.43 20 c 0
 146.369 20 134.443 19.3633 126.758 18.7607 c 1
 139.066 24.6025 148.909 37.4883 150.551 58.0098 c 0
 150.63 59.0029 l 1
 150.63 308 l 0
 150.63 314.632 150.622 321.861 147.893 329.954 c 0
 142.427 346.165 131.449 353.003 116.71 366.786 c 1
 125.643 373.999 141.36 386.136 166.63 406.37 c 1
 166.63 384 l 0
 166.63 380.274 168.195 362.692 183.55 357.986 c 1
413.594 382.559 m 1
 440.482 399.246 461.595 402 473.03 402 c 0
 508.095 402 549.285 380.409 565.643 307.516 c 1
 573.667 272.872 573.83 236.153 573.83 196 c 0
 573.83 69 l 0
 573.83 56.0078 574.495 43.0615 581.93 32.1533 c 0
 589.027 21.7393 598.91 19.0576 605.592 17.2236 c 1
 592.576 18.8623 579.435 20 560.23 20 c 0
 545.936 20 533.754 19.2393 524.078 18.3311 c 1
 532.281 20.9111 538.249 24.8145 542.941 32.6367 c 0
 550.191 44.7207 549.03 57.0723 549.03 64 c 0
 549.03 203 l 0
 549.03 254.386 548.451 323.142 510.478 364.365 c 1
 500.542 374.301 480.572 391 450.63 391 c 0
 437.897 391 425.045 387.514 413.594 382.559 c 1
EndSplineSet
EndChar

StartChar: n
Encoding: 110 110 79
Width: 448
GlyphClass: 2
Flags: HW
HStem: -6 42<57.7292 109.039 165.293 225.456 284.067 338.37 390.632 440.017> 384 49<208.286 302.641>
VStem: 109.638 55.2<38.2075 347.206> 338.438 52<36.1777 339.27>
LayerCount: 2
Fore
SplineSet
162.928 352.507 m 1
 156.477 342.863 151.871 333.756 150.064 323.595 c 1
 148.659 316.567 148.838 309.917 148.838 306 c 0
 148.838 66 l 0
 148.838 59.4727 148.494 46.6768 155.743 34.6758 c 0
 161.248 25.5615 170.338 19.958 179.991 18.2344 c 1
 181.057 18.0117 182.752 17.668 182.752 17.668 c 1
 170.045 19.0156 156.36 20 140.838 20 c 0
 124.135 20 107.382 18.7236 96.8184 17.6104 c 1
 106.469 20.7979 112.346 24.8105 117.579 32.6992 c 0
 126.288 45.8271 125.638 60.6299 125.638 70 c 0
 125.638 309 l 0
 125.638 317.013 126.138 325.28 122.791 335.213 c 0
 117.379 351.277 107.562 358.125 90.6328 374.037 c 1
 100.287 380.731 117.788 392.172 146.438 411.372 c 1
 146.438 384.07 l 1
 146.195 382.701 145.638 382.861 145.638 377 c 0
 145.638 365.972 154.595 355.516 162.928 352.507 c 1
227.88 401.487 m 1
 241.022 407.973 256.83 412.743 274.532 413 c 1
 276.038 413 l 0
 307.703 413 366.508 398.72 373.713 287.027 c 1
 375.249 270.718 375.238 255.248 375.238 238 c 0
 375.238 221.692 374.438 202.938 374.438 65 c 0
 374.438 63 l 0
 374.438 51.4404 375.735 39.2021 382.838 29.4336 c 0
 387.354 23.2246 394.317 19.499 397.749 18.1768 c 1
 387.7 19.2158 375.618 20 360.838 20 c 0
 351.733 20 340.227 19.418 334.415 18.9824 c 1
 338.599 20.6084 342.506 22.9619 346.103 27.46 c 0
 354.482 37.9404 354.438 50.793 354.438 61 c 0
 354.438 216 l 0
 354.438 234.918 354.614 294.804 342.814 331.676 c 1
 321.059 394.717 268.834 404 248.038 404 c 0
 241.257 404 234.308 403.053 227.88 401.487 c 1
EndSplineSet
EndChar

StartChar: o
Encoding: 111 111 80
Width: 420
GlyphClass: 2
Flags: HW
HStem: -19 49<180.366 290.931> 385 47<179.241 284.093>
VStem: 63.5 62.4<107.025 304.389> 349.1 54.4<109.681 295.193>
LayerCount: 2
Fore
SplineSet
79.5 204 m 0
 79.5 332.078 155.334 412 236.3 412 c 0
 321.961 412 387.5 328.588 387.5 204 c 0
 387.5 72.0654 314.644 1 233.1 1 c 0
 141.155 1 79.5 90.3428 79.5 204 c 0
235.5 10 m 0
 315.266 10 365.1 103.963 365.1 200 c 0
 365.1 314.979 302.896 405 230.7 405 c 0
 180.105 405 109.9 352.51 109.9 209 c 0
 109.9 99.1182 157.843 10 235.5 10 c 0
EndSplineSet
EndChar

StartChar: p
Encoding: 112 112 81
Width: 445
GlyphClass: 2
Flags: HW
HStem: -228 46<60.8056 123.543> -220 42<183.086 263.544> -7 34<196.378 302.754> 372 59<212.356 307.081> 421 20G<157.738 162.138>
VStem: 124.538 58.4<-177.901 -1.00293> 124.538 52<45.2268 333.699> 376.538 53.6<117.256 282.885>
LayerCount: 2
Fore
SplineSet
250.138 7 m 0
 323.876 7 392.538 84.1602 392.538 195 c 0
 392.538 301.356 327.169 392 252.538 392 c 0
 241.166 392 214.855 390.769 190.153 367.016 c 1
 168.868 347.667 160.538 321.898 160.538 289 c 0
 160.538 74 l 0
 160.538 70.7354 160.367 64.1104 162.628 56.4658 c 0
 166.568 43.1387 176.312 33.1035 190.406 24.9717 c 1
 207.991 13.9805 229.093 7 250.138 7 c 0
278.938 411 m 0
 356.798 411 414.138 322.916 414.138 215 c 0
 414.138 93.7988 343.608 13 239.738 13 c 0
 212.866 13 196.121 19 188.538 19 c 0
 170.054 19 166.938 -5.69922 166.938 -12 c 0
 166.938 -152 l 0
 166.938 -158.032 166.576 -170.987 174.226 -182.822 c 0
 179.98 -191.727 189.11 -196.73 198.946 -197.901 c 0
 222.46 -200.84 239.401 -201.59 245.648 -203.237 c 1
 232.724 -201.982 211.912 -200 179.738 -200 c 0
 145.812 -200 116.251 -202.713 97.3809 -204.896 c 1
 102.837 -203.539 105.678 -202.81 110.112 -201.604 c 1
 117.676 -199.832 126.363 -195.643 132.385 -186.736 c 0
 139.009 -176.938 140.538 -164.982 140.538 -154 c 0
 140.538 310 l 0
 140.538 317.428 138.186 339.142 120.475 348.366 c 1
 105.995 356.442 93.792 363.086 87.2422 366.688 c 1
 98.8799 375.254 118.837 389.662 150.138 412.727 c 1
 150.138 371 l 0
 150.138 370.251 148.727 345 168.538 345 c 0
 198.065 345 202.835 399.63 262.648 410.174 c 1
 267.587 410.946 272.579 411 278.938 411 c 0
EndSplineSet
EndChar

StartChar: q
Encoding: 113 113 82
Width: 470
GlyphClass: 2
Flags: HW
HStem: -235 45<282.679 346.751> -225 36<412.643 462.825> -9 61<200.492 319.104> 401 33<198.383 318.003> 426 20G<393.878 401.878>
VStem: 63.0778 57.6<150.894 302.179> 349.478 58.4<-182.941 28.9978 78.3765 371.626>
LayerCount: 2
Fore
SplineSet
257.478 421 m 0
 173.796 421 104.678 338.416 104.678 233 c 0
 104.678 119.243 181.153 32 268.678 32 c 0
 301.677 32 337.721 44.6006 354.165 63.5752 c 1
 365.85 78.1807 366.277 95.4785 366.277 108 c 0
 366.277 131.055 366.273 155.53 363.878 343.16 c 1
 363.878 361.547 357.871 377.464 346.088 388.175 c 0
 345.773 388.462 l 1
 345.446 388.729 l 0
 319.474 410 288.494 421 257.478 421 c 0
79.0781 213 m 0
 79.0781 297.882 127.6 414 276.678 414 c 0
 324.901 414 350.438 401 367.878 401 c 0
 377.043 401 386.136 405.125 390.941 408.938 c 1
 391.048 402.912 391.078 397.882 391.078 391 c 0
 391.078 380.52 391.878 371.52 391.878 364 c 0
 391.878 -139 l 0
 391.878 -173.876 402.473 -195.975 423.7 -203.368 c 1
 416.366 -203.087 412.154 -203 404.678 -203 c 0
 377.175 -203 352.001 -205.553 334.403 -208.055 c 1
 363.838 -196.921 365.478 -165.244 365.478 -150 c 0
 365.478 22 l 0
 365.478 32.5029 358.76 49 344.678 49 c 0
 319.188 49 304.277 11 241.478 11 c 0
 153.397 11 79.0781 101.298 79.0781 213 c 0
EndSplineSet
EndChar

StartChar: r
Encoding: 114 114 83
Width: 324
GlyphClass: 2
Flags: HW
HStem: -6 44<48.3845 98.5042 156.463 234.464> 346 100<236.665 302.857>
VStem: 98.5042 57.6<38.4622 329.719>
LayerCount: 2
Fore
SplineSet
186.962 379.614 m 1
 206.443 396.335 234.176 418.858 243.039 423.141 c 1
 248.547 425.331 253.149 426 260.904 426 c 0
 286.994 426 307.305 407.45 307.305 402 c 1
 307.011 398.408 300.436 390.744 292.115 382.066 c 1
 280.226 372.122 274.439 366 268.904 366 c 0
 264.079 366 259.428 391 221.704 391 c 0
 209.277 391 197.356 385.808 186.962 379.614 c 1
159.614 357.996 m 1
 153.645 352.039 149.417 347.517 145.991 341.094 c 0
 140.146 330.135 140.104 318.475 140.104 312 c 0
 140.104 68 l 0
 140.104 61.2588 139.684 46.4932 148.452 33.4893 c 0
 153.219 26.4209 161.489 21.2568 167.884 19.3613 c 1
 159.441 19.7734 151.441 20 142.504 20 c 0
 122.868 20 104.548 18.8018 91.1631 17.585 c 1
 98.0371 20.2168 102.568 23.0146 107.113 29.6367 c 0
 113.711 39.2471 114.504 50.5752 114.504 60 c 0
 114.504 325 l 0
 114.504 331.178 114.055 338.174 111.471 345.246 c 0
 105.265 362.23 93.042 368.8 77.7383 381.981 c 1
 90.332 389.527 107.661 399.841 136.104 417.219 c 1
 136.104 382 l 0
 136.104 377.88 138.109 357 154.504 357 c 0
 156.895 357 158.573 357.626 159.614 357.996 c 1
EndSplineSet
EndChar

StartChar: s
Encoding: 115 115 84
Width: 305
GlyphClass: 2
Flags: HW
HStem: -19 54<120.517 228.083> 380 47<114.509 205.067> 412 20G<230.773 240.373>
VStem: 56.3727 32.8<71.0105 155.78> 60.3727 43.2<283.553 367.539> 219.573 44<295.352 359.134> 245.173 53.6<56.0454 149.045>
LayerCount: 2
Fore
SplineSet
76.373 309 m 0
 76.373 356.088 110.539 407 175.572 407 c 0
 198.962 407 205.134 402 215.572 402 c 0
 224.572 402 231.492 408.578 232.612 409.545 c 1
 237.062 377.267 244.271 331.161 247.096 310.74 c 1
 243.417 320.253 242.634 334.694 232.612 352.59 c 1
 218.438 377.124 186.358 400 153.973 400 c 0
 121.056 400 87.5723 373.323 87.5723 327 c 0
 87.5723 305.268 97.4492 258.802 162.471 235.736 c 1
 206.234 220.72 237.556 218.401 262.682 181.901 c 0
 280.091 156.792 282.772 128.979 282.772 116 c 0
 282.772 62.9307 247.785 1 177.173 1 c 0
 142.966 1 97.082 17.3994 78.7822 44.2197 c 1
 72.8721 52.3447 73.1729 51.917 73.1729 65 c 0
 73.1729 74.2207 73.0557 84.0508 72.9541 90.3428 c 1
 74.0703 86.999 74.1504 86.834 74.793 85.2275 c 1
 86.0127 55.7764 127.574 15 180.373 15 c 0
 222.02 15 261.173 47.7109 261.173 102 c 0
 261.173 189.055 171.884 199.791 153.543 206.239 c 0
 94.1416 227.323 76.373 269.521 76.373 309 c 0
EndSplineSet
EndChar

StartChar: t
Encoding: 116 116 85
Width: 301
GlyphClass: 2
Flags: HW
HStem: -19 65<160.364 227.896> 363 54<159.698 267.543>
VStem: 94.8931 56<56.8354 362.954>
LayerCount: 2
Fore
SplineSet
75.1768 385 m 1
 90.2295 402.029 117.226 432.161 144.305 487.382 c 1
 144.039 467.503 143.693 447.508 143.693 437 c 0
 143.693 425.861 145.885 413.438 153.938 405.17 c 0
 161.62 397.281 170.023 397 175.693 397 c 0
 247.31 397 l 1
 249.154 396.539 250.903 396 254.093 396 c 0
 255.862 396 258.123 395.889 258.776 395.804 c 1
 258.301 391.899 257.075 386.274 256.12 383.082 c 1
 254.341 382.985 254.506 383 253.293 383 c 0
 159.693 383 l 0
 149.385 383 135.693 371.783 135.693 354.053 c 1
 134.894 167.186 134.894 144.012 134.894 120 c 0
 134.894 85.1855 142.699 26 191.693 26 c 0
 230.374 26 259.73 68.5869 273.755 81.4697 c 1
 244.923 40.6631 210.185 1 176.493 1 c 0
 152.867 1 116.731 19.1797 111.64 104.648 c 1
 110.893 114.916 110.894 123.867 110.894 135 c 0
 110.894 178.482 114.093 333.239 114.093 356 c 0
 114.093 362.422 109.936 385 92.4932 385 c 0
 75.1768 385 l 1
EndSplineSet
EndChar

StartChar: u
Encoding: 117 117 86
Width: 454
GlyphClass: 2
Flags: HW
HStem: -14 21G<346.464 352.864> 377 38<56.1316 101.586 272.15 335.715>
VStem: 101.664 54.4<95.1389 375.136> 336.864 56.8<69.1563 373.706>
LayerCount: 2
Fore
SplineSet
295.764 23.7119 m 1
 278.417 12.5762 254.779 2 226.464 2 c 0
 169.69 2 128.914 46.2578 119.961 129.275 c 1
 118.341 149.871 117.664 167.498 117.664 188 c 0
 117.664 219.822 118.464 332.739 118.464 349 c 0
 118.464 363.606 111.546 383.677 86.8623 395.557 c 1
 83.96 397.086 85.0576 396.494 85.0576 396.494 c 1
 120.603 399.211 132.157 400.179 140.063 400.684 c 1
 140.063 204 l 0
 140.063 174.046 139.717 133.146 156.199 91.9414 c 1
 171.019 56.0498 205.062 14 255.264 14 c 0
 270.108 14 283.863 17.8301 295.764 23.7119 c 1
330.582 51.0938 m 1
 331.965 52.6768 333.385 54.3662 334.577 55.8574 c 0
 334.931 56.2998 l 1
 335.262 56.7676 l 0
 345.719 71.583 352.863 82.2256 352.863 100 c 0
 352.863 346 l 0
 352.863 356.164 351.666 367.139 345.895 376.549 c 0
 337.209 390.709 322.761 393.771 312.596 396.145 c 1
 359.043 398.038 369.297 398.733 377.664 398.947 c 1
 377.664 86 l 0
 377.664 57.5693 399.178 53.8193 419.783 42.0391 c 1
 408.386 38.209 387.099 30.5898 356.063 10.0342 c 1
 356.063 29 l 0
 356.063 44.8818 341.89 53 337.664 53 c 0
 334.099 53 331.874 51.7422 330.582 51.0938 c 1
EndSplineSet
EndChar

StartChar: v
Encoding: 118 118 87
Width: 439
GlyphClass: 2
Flags: HW
HStem: -25 21G<249.036 258.236> 374 41<161.441 222.223 285.487 344.624>
VStem: 48.636 112.8<349.5 406> 344.636 90.4<351 401>
LayerCount: 2
Fore
SplineSet
342.219 392.198 m 1
 348.409 392.053 352.852 392 359.036 392 c 0
 372.659 392 385.919 392.474 393.415 392.872 c 1
 387.42 390.044 381.282 384.68 377.261 376.175 c 0
 376.976 375.571 l 1
 376.725 374.944 l 0
 373.399 366.63 372.764 361.1 370.759 351.078 c 1
 330.864 169.834 266.679 11.1562 258.316 -2.6543 c 1
 257.774 -3.38867 258.639 -2.21875 258.096 -2.9541 c 1
 257.742 -3.50586 l 0
 257.452 -3.95898 256.093 -5 255.036 -5 c 0
 254.56 -5 250.707 -3.36816 242.678 15.5918 c 1
 139.749 243.768 115.254 348.941 98.7988 375.387 c 1
 91.9883 386.028 82.5908 391.704 76.9453 393.804 c 1
 90.2803 392.926 108.311 392 134.236 392 c 0
 147.916 392 161.426 392.327 169.71 392.636 c 1
 156.777 388.571 145.436 375.124 145.436 356 c 0
 145.436 331.214 184.722 201.702 242.808 76.9404 c 0
 243.853 74.6953 l 1
 244.064 74.2705 249.279 59 263.836 59 c 0
 278.507 59 282.02 74.2588 282.847 76.5332 c 1
 344.617 212.918 360.636 336.882 360.636 359 c 0
 360.636 375.086 351.23 387.83 342.219 392.198 c 1
EndSplineSet
EndChar

StartChar: w
Encoding: 119 119 88
Width: 676
GlyphClass: 2
Flags: HW
HStem: -25 109<262.618 286.998 487.136 511.834> 376 39<390.088 454.819 526.894 589.926 633.072 674.708>
LayerCount: 2
Fore
SplineSet
639.042 392.607 m 1
 594.803 368.706 618.503 287.502 499.093 9.3877 c 1
 494.738 -0.953125 491.795 -4.59863 491.407 -4.96387 c 1
 491.299 -4.97949 490.983 -4.99805 490.983 -4.99805 c 1
 487.127 -1.82129 473.644 26.2939 443.369 96.3408 c 1
 423.171 145.235 411.056 175.04 403.779 192.715 c 0
 395.611 212.552 392.724 230 376.421 230 c 0
 355.818 230 356.264 209.762 330.008 139.688 c 1
 276.459 4.81348 275.345 1.34082 272.463 -2.71289 c 0
 272.187 -3.10059 l 1
 271.928 -3.50586 l 0
 270.947 -5.03711 270.678 -5 270.021 -5 c 0
 270.021 -5 268.159 -6.63672 260.976 10.3262 c 0
 175.286 213.54 136.885 354.412 128.678 372 c 1
 123.55 383.216 114.35 391.155 109.166 393.727 c 1
 119.311 392.896 133.792 392 153.221 392 c 0
 155.621 392 l 0
 161.454 392 168.805 392.141 172.232 392.24 c 1
 162.932 386.452 157.221 375.08 157.221 362 c 0
 157.221 350.715 161.204 340.513 163.333 335.011 c 1
 189.925 247.495 220.488 163.108 253.346 82.9678 c 1
 253.576 82.3906 259.109 64 275.621 64 c 0
 290.804 64 295.613 77.3477 298.401 83.7383 c 1
 329.645 144.249 370.97 239.135 372.386 265.67 c 0
 372.421 266.334 l 1
 372.421 268 l 0
 372.421 290.391 344.772 352.896 339.414 362.943 c 1
 326.839 387.463 306.41 392.606 294.543 394.075 c 1
 308.751 393.158 329.956 392 361.221 392 c 0
 373.706 392 387.1 392.258 394.669 392.486 c 1
 384.781 387.787 374.021 374.905 374.021 355 c 0
 374.021 323.161 423.779 193.006 476.197 88.9072 c 1
 481.396 77.6699 488.414 65 502.821 65 c 0
 518.211 65 525.423 80.9502 526.967 85.5244 c 1
 585.667 215.51 606.021 335.42 606.021 354 c 0
 606.021 369.977 598.47 385.575 587.648 391.117 c 1
 593.564 391.004 594.647 391 598.821 391 c 0
 615.488 391 630.576 391.895 639.042 392.607 c 1
EndSplineSet
EndChar

StartChar: x
Encoding: 120 120 89
Width: 397
GlyphClass: 2
Flags: HW
HStem: -4 42<239.145 288.549 352.554 390.125> -4 30<138.621 183.612> 376 39<51.7919 92.6507 162.956 203.881 318.283 381.232>
VStem: 187.751 54.4<202.618 231.317>
DStem2: 94.1507 53 146.151 76 0.527816 0.849359<27.826 172.485 245.517 362.192> 174.151 338 184.551 216 0.545178 -0.83832<-25.1381 88.7919 140.77 289.491>
LayerCount: 2
Fore
SplineSet
85.7275 18.9775 m 2
 89.1582 20.3828 93.4502 22.8867 96.751 26.1875 c 1
 102.998 32.0449 105.929 39.2969 106.906 40.9258 c 1
 111.575 48.5576 116.159 56.043 120.428 63.0078 c 1
 118.867 58.0498 118.95 53.8799 118.95 51 c 0
 118.95 34.9551 128.315 23.8955 135.559 19.5596 c 1
 128.158 19.8867 123.26 20 115.751 20 c 0
 93.9902 20 78.4141 18.042 68.4824 16.5342 c 0
 85.7275 18.9775 l 2
211.224 196.5 m 2
 210.357 196.5 204.402 196.96 200.867 195.16 c 1
 202.68 199.344 203.751 207.383 203.751 209 c 0
 203.751 221.711 196.49 229.355 196.49 229.355 c 1
 108.087 366.713 102.799 386.394 79.458 393.696 c 1
 92.2109 392.77 106.359 392 127.751 392 c 0
 142.361 392 156.46 392.501 164.364 392.916 c 1
 155.553 388.265 146.95 378.328 146.95 362 c 0
 146.95 341.252 158.875 330.322 161.338 326.013 c 1
 204.758 256.767 202.567 243 222.15 243 c 0
 222.95 243 227.624 243.857 229.068 244.207 c 1
 227.477 241.05 226.15 233.602 226.15 231 c 0
 226.15 209.639 230.661 214.915 339.867 41.8057 c 1
 346.425 30.876 353.565 21.6738 361.024 17.7715 c 1
 348.791 18.9697 334.495 20 313.351 20 c 0
 302.396 20 291.352 19.6045 284.547 19.2314 c 1
 297.414 25.3438 304.551 36.9141 304.551 51 c 0
 304.551 62.9453 299.712 69.8643 299.587 70.1318 c 1
 298.889 71.8779 l 1
 297.802 73.5605 l 0
 223.953 187.945 225.904 185.592 222.265 190.142 c 0
 217.578 196 l 1
 211.224 196.5 l 2
297.659 357.509 m 1
 298.473 360.255 298.15 360.485 298.15 364 c 0
 298.15 379.395 288.485 389.349 281.584 392.746 c 1
 291.096 392.239 298.746 392 310.15 392 c 0
 312.551 392 l 0
 321.304 392 329.413 392.209 335.83 392.461 c 1
 317.109 386.043 307.925 372.746 297.912 357.883 c 0
 297.65 357.495 l 1
 291.828 347.904 350.043 443.77 297.659 357.509 c 1
EndSplineSet
EndChar

StartChar: y
Encoding: 121 121 90
Width: 418
GlyphClass: 2
Flags: HW
HStem: -223 21G<109.004 129.404> 376 39<153.009 194.535 265.856 319.369 368.269 414.6>
LayerCount: 2
Fore
SplineSet
117.804 -203 m 0
 107.936 -203 102.604 -194.774 102.604 -187 c 0
 102.604 -164.051 131.106 -158.152 167.929 -114.613 c 1
 190.97 -88.0264 226.604 -25.2266 226.604 15 c 0
 226.604 48.5098 201.864 107.567 136.031 272.152 c 1
 121.119 307.361 94.3418 370.047 91.1162 376.094 c 0
 90.8369 376.619 l 1
 90.5303 377.121 l 0
 84.7812 386.554 77.207 391.53 71.1738 393.982 c 1
 82.8574 393.016 98.1201 392 121.004 392 c 0
 133.472 392 146.258 392.435 153.068 392.781 c 1
 142.99 387.003 137.004 376.115 137.004 362 c 0
 137.004 340.823 171.046 236.566 225.015 109.113 c 1
 227.148 100.241 234.396 90 245.804 90 c 0
 261.148 90 266.312 107.351 266.312 107.351 c 1
 266.877 108.058 266.776 107.932 267.342 108.639 c 1
 268.559 112.265 l 0
 310.287 236.65 335.403 313.273 335.403 355 c 0
 335.403 364.33 334.095 374.926 327.938 383.44 c 0
 324.681 387.943 320.503 390.778 317.126 392.517 c 1
 325.495 392.18 333.334 392 343.403 392 c 0
 344.204 392 l 0
 354.358 392 363.937 392.266 370.863 392.559 c 1
 346.968 379.022 351.376 349.441 305.388 206.55 c 1
 269.556 98.0566 220.946 -41.0811 163.607 -150.063 c 1
 143.935 -187.976 130.615 -203 117.804 -203 c 0
EndSplineSet
EndChar

StartChar: z
Encoding: 122 122 91
Width: 324
GlyphClass: 2
Flags: HW
HStem: 0 65<120.932 268.68> 355 62<103.233 224.122>
VStem: 67.3276 28<294.02 354.03> 268.928 37.6<-92.6147 -3.0012e-08> 283.328 32.8<65.8229 140.75>
LayerCount: 2
Fore
SplineSet
288.701 398.259 m 1
 109.752 94.4365 104.928 100.325 104.928 76 c 0
 104.928 47.5225 128.555 45 133.728 45 c 0
 249.728 45 l 0
 253.09 45 256.572 44 261.728 44 c 0
 292.438 44 292.62 79.9189 298.965 120.744 c 1
 299.668 120.579 299.54 120.603 299.54 120.603 c 1
 296.997 101.796 289.728 48.9092 289.728 -19 c 0
 289.728 -49.8545 290.466 -67.4336 290.522 -72.2168 c 1
 288.985 -72.6094 287.239 -72.8203 284.928 -72.9541 c 1
 284.928 -15 l 0
 284.928 -5.19531 282.443 6.30371 274.854 13.3828 c 0
 266.956 20.751 259.242 20 255.328 20 c 0
 69.7275 20 l 0
 64.2627 20 62.0645 21.4209 61.8281 21.5859 c 1
 61.7549 22.0469 61.7275 22.4004 61.7275 23 c 0
 61.7275 25.8809 64.9727 33.1221 69.3408 41.6953 c 1
 231.598 315.106 l 1
 235.687 320.682 240.128 329.039 240.128 341 c 0
 240.128 370.114 216.818 375 208.128 375 c 0
 112.928 375 l 0
 105.677 375 94.5908 370.193 89.4492 359.004 c 1
 90.6152 374.757 91.3281 390.3 91.3281 409 c 0
 91.3281 414.592 l 1
 96.4395 402.734 105.469 397 115.328 397 c 0
 289.728 397 l 0
 291.635 397 288.058 398.487 288.701 398.259 c 1
EndSplineSet
EndChar

StartChar: braceleft
Encoding: 123 123 92
Width: 223
GlyphClass: 2
Flags: HW
HStem: 700 20G<152.753 173.953>
VStem: 58.7534 61.6<240.115 270.308> 81.1534 51.2<-147.001 59.8049 494.524 665.89> 106.753 48<24.5381 215.922 297.492 513.796>
LayerCount: 2
Fore
SplineSet
86.3799 255.241 m 1
 103.712 271.791 121.953 302.291 121.953 359 c 0
 121.953 440.882 100.354 509.638 100.354 586 c 0
 100.354 651.821 121.426 679.521 140.939 691.532 c 1
 133.843 679.521 130.102 670.95 126.019 656.49 c 1
 121.305 638.812 119.554 621.759 119.554 604 c 0
 119.554 539.6 141.153 483.206 141.153 411 c 0
 141.153 316.229 104.354 285.936 104.354 254 c 0
 104.354 219.097 138.753 204.428 138.753 120 c 0
 138.753 60.7158 116.354 -1.10645 116.354 -70 c 0
 116.354 -113.931 127.39 -146.505 139.493 -168.524 c 1
 118.402 -155.058 97.1533 -125.105 97.1533 -57 c 0
 97.1533 14.3945 122.753 77.249 122.753 148 c 0
 122.753 204.577 102.314 238.205 86.3799 255.241 c 1
EndSplineSet
EndChar

StartChar: bar
Encoding: 124 124 93
Width: 137
GlyphClass: 2
Flags: HW
HStem: 698 20G<70.1 84.5>
VStem: 55.3 42.4<-197.934 717.913>
LayerCount: 2
Fore
SplineSet
76.9004 -178 m 2
 73.7002 -178 l 0
 72.9082 -178 71.3271 -177.953 71.2998 -177.952 c 1
 71.2998 697.925 l 1
 72.5352 697.99 73.3418 698 74.5 698 c 0
 76.0996 698 l 0
 78.2676 698 80.6074 697.902 81.7002 697.839 c 1
 81.7002 -177.841 l 1
 79.5215 -177.985 78.7539 -178 76.9004 -178 c 2
EndSplineSet
EndChar

StartChar: braceright
Encoding: 125 125 94
Width: 228
GlyphClass: 2
Flags: HW
HStem: 700 20G<80.3609 101.161>
VStem: 99.1609 48<24.5381 215.905 296.882 513.796> 121.561 51.2<-147.001 59.8049 494.524 666.135> 133.561 61.6<240.03 269.121>
LayerCount: 2
Fore
SplineSet
153.561 586 m 0
 153.561 509.636 131.961 440.884 131.961 359 c 0
 131.961 302.083 150.515 270.642 167.171 254.896 c 1
 144.834 231.137 131.161 194.744 131.161 148 c 0
 131.161 77.249 156.761 14.3945 156.761 -57 c 0
 156.761 -125.622 134.9 -155.449 114.421 -168.524 c 1
 127.52 -144.696 137.561 -113.574 137.561 -70 c 0
 137.561 -1.10449 115.161 60.7139 115.161 120 c 0
 115.161 205.411 149.561 219.016 149.561 254 c 0
 149.561 265.945 144.723 272.864 144.597 273.132 c 1
 144.294 273.89 l 1
 143.837 274.781 l 0
 120.224 320.902 112.761 369.95 112.761 411 c 0
 112.761 483.212 134.361 539.593 134.361 604 c 0
 134.361 643.652 124.241 672.555 112.438 691.858 c 1
 132.965 679.447 153.561 651.76 153.561 586 c 0
EndSplineSet
EndChar

StartChar: asciitilde
Encoding: 126 126 95
Width: 408
GlyphClass: 2
Flags: HW
HStem: 183 71<236.457 321.536> 242 70<121.749 198.307>
LayerCount: 2
Fore
SplineSet
110.403 244.094 m 1
 116.229 254.209 121.097 261.818 125.323 267.102 c 1
 135.05 280.128 149.467 292 166.615 292 c 0
 202.316 292 227.916 234 286.615 234 c 0
 324.453 234 350.071 265.034 363.745 283.386 c 1
 344.552 249.776 307.203 203 269.015 203 c 0
 225.424 203 210.783 262 153.814 262 c 0
 137.506 262 122.004 254.452 110.403 244.094 c 1
EndSplineSet
EndChar

StartChar: exclamdown
Encoding: 161 161 97
Width: 292
GlyphClass: 2
Flags: HW
HStem: -16 21G<134.499 140.099> 572 102<126.809 193.511>
VStem: 118.899 82.4<582.181 664.265> 130.099 76<20.366 289.904> 165.299 26.4<367.851 461.971>
LayerCount: 2
Fore
SplineSet
146.1 10.7051 m 1
 146.1 32 l 0
 146.1 203.108 166.15 354.252 175.747 413.121 c 1
 179.678 198.505 189.21 58.9531 190.094 45.3408 c 1
 190.062 43.8467 189.913 42.834 189.913 42.834 c 1
 189.34 42.3955 189.146 42.2646 188.544 41.8887 c 0
 188.057 41.584 l 1
 187.587 41.2383 l 0
 166.725 25.8994 153.532 16.123 146.1 10.7051 c 1
160.499 592 m 0
 146.674 592 134.899 606.609 134.899 623 c 0
 134.899 639.33 145.7 654 159.699 654 c 0
 173.345 654 185.299 640.924 185.299 623 c 0
 185.299 603.641 174.14 592 160.499 592 c 0
EndSplineSet
EndChar

StartChar: dieresis
Encoding: 168 168 98
Width: 229
GlyphClass: 2
Flags: HW
HStem: 571 94<41.7656 105.445 149.766 213.446>
VStem: 35.1 76.8<579.068 656.984> 143.1 76.8<579.068 656.984>
LayerCount: 2
Fore
SplineSet
159.1 618 m 0
 159.1 632.041 169.942 645 181.5 645 c 0
 194.694 645 203.9 632.443 203.9 619 c 0
 203.9 603.266 193.642 591 181.5 591 c 0
 168.898 591 159.1 602.666 159.1 618 c 0
51.0996 618 m 0
 51.0996 632.041 61.9424 645 73.5 645 c 0
 86.6943 645 95.9004 632.443 95.9004 619 c 0
 95.9004 603.266 85.6416 591 73.5 591 c 0
 60.8984 591 51.0996 602.666 51.0996 618 c 0
EndSplineSet
EndChar

StartChar: copyright
Encoding: 169 169 99
Width: 694
GlyphClass: 2
Flags: HW
HStem: -24 51<299.975 472.751> 88 38<334.078 453.99> 520 34<330.765 443.235> 637 52<297.503 474.17>
VStem: 101.2 40.8<221.604 443.858> 198 52.8<234.315 415.614> 524.4 20<222.277 259.891> 630 40.8<218.952 443.657>
LayerCount: 2
Fore
SplineSet
386 7 m 0
 524.091 7 646 145.561 646 333 c 0
 646 505.735 534.272 657 385.2 657 c 0
 239.378 657 126 508.776 126 332 c 0
 126 148.659 246.174 7 386 7 c 0
117.2 332 m 0
 117.2 514.267 234.272 669 386 669 c 0
 536.184 669 654.8 515.156 654.8 332 c 0
 654.8 151.692 539.328 -4 385.2 -4 c 0
 240.265 -4 117.2 142.24 117.2 332 c 0
491.413 152.102 m 1
 502.554 163.977 512.562 178.153 520.892 193.905 c 1
 518.741 176.639 516.858 160.246 516.474 154 c 1
 503.6 154 l 0
 499.599 154 495.652 153.714 491.413 152.102 c 1
365.606 109.363 m 1
 279.395 121.878 214 213.244 214 320 c 0
 214 398.108 248.993 468.307 301.564 505.715 c 1
 262.557 470.636 234.8 410.126 234.8 332 c 0
 234.8 220.508 289.987 128.039 365.606 109.363 c 1
458.959 515.742 m 1
 468.685 509.859 474.783 501 488.4 501 c 0
 495.771 501 501.35 507.227 503.764 510.623 c 1
 506.581 486.466 508.847 466.725 510.365 452.9 c 1
 507.938 459.315 505.555 464.292 501.726 470.447 c 1
 490.77 487.301 476.511 503.096 458.959 515.742 c 1
EndSplineSet
EndChar

StartChar: guillemotleft
Encoding: 171 171 100
Width: 327
GlyphClass: 2
Flags: HW
HStem: 52 282<179.203 188.803 291.203 301.603>
VStem: 52.8028 64<171.745 215.713> 165.603 63.2<171.745 215.713>
LayerCount: 2
Fore
SplineSet
154.897 104.811 m 0
 137.142 124.046 113.76 149.525 73.2256 193.53 c 1
 121.118 244.741 149.526 275.244 166.209 292.949 c 0
154.022 279.932 m 0
 142.933 264.346 127.814 243.181 107.25 214.296 c 0
 105.841 212.315 l 1
 105.044 210.325 l 1
 104.054 208.382 100.803 202.916 100.803 194 c 0
 100.803 173.073 108.303 170.953 160.67 95.002 c 0
267.544 104.779 m 0
 249.867 124.024 226.566 149.516 186.025 193.53 c 1
 233.92 244.753 262.21 275.273 278.803 292.988 c 0
266.823 279.932 m 0
 255.938 264.634 240.205 242.603 220.359 214.73 c 1
 219.969 214.242 212.803 206.672 212.803 194 c 0
 212.803 170.932 222.104 171.824 274.396 95.3389 c 1
 274.392 95.3447 276.312 95.2441 274.675 97.0215 c 0
EndSplineSet
EndChar

StartChar: logicalnot
Encoding: 172 172 101
Width: 630
GlyphClass: 2
Flags: HW
HStem: 231 57<112.6 543.8>
VStem: 543.8 45.6<41.0781 231>
LayerCount: 2
Fore
SplineSet
131 251 m 2
 130.097 251 128.86 251.068 128.639 251.084 c 1
 128.589 252.538 128.6 252.186 128.6 253 c 0
 128.6 266 l 0
 128.6 266.706 128.646 267.788 128.65 267.897 c 1
 129.724 267.986 130.542 268 131.8 268 c 0
 573.4 268 l 1
 573.4 61 l 1
 563 61 l 0
 561.692 61 560.703 61.1396 560.085 61.2432 c 1
 559.911 62.5439 559.8 64.4736 559.8 67 c 0
 559.8 251 l 1
 131 251 l 2
EndSplineSet
EndChar

StartChar: registered
Encoding: 174 174 102
Width: 467
GlyphClass: 2
Flags: HW
HStem: 335 37<200.016 319.459> 419 27<168.614 194.2 331.596 359.224> 542 18<224.695 254.413> 657 19<165.886 192.066 222.202 265.55> 719 36<200.016 317.529>
VStem: 91.8 28<471.505 618.161> 194.2 28.8<445.157 542 560 650 651 652.047> 284.6 29.6<568.344 643.871> 398.2 28.8<471.505 618.161>
DStem2: 280.6 548 253.4 537 0.50186 -0.864949<0 123.169>
LayerCount: 2
Fore
SplineSet
210.2 550 m 1
 210.2 641 l 0
 210.2 644.45 209.48 648.955 208.51 652.58 c 1
 224.156 654.269 234.335 656 245.4 656 c 0
 290.299 656 298.2 626.382 298.2 610 c 0
 298.2 585.408 279.157 568.82 274.657 566.57 c 0
 259.241 558.861 l 1
 253.604 561.456 249.283 562 247 562 c 0
 226.2 562 l 0
 226.2 562 223.033 564.252 216.07 558.449 c 0
 210.2 550 l 1
300.6 604 m 0
 300.6 642.717 276.229 677 239 677 c 0
 226.091 677 206.2 674.142 206.2 651 c 0
 206.2 642.716 l 1
 207 641.716 l 1
 207 564 l 0
 207 536.465 233.411 540 239 540 c 0
 289.491 540 300.6 580.336 300.6 604 c 0
258.2 352 m 0
 343.75 352 414.2 439.634 414.2 544 c 0
 414.2 651.096 343.877 739 258.2 739 c 0
 174.796 739 103.8 651.092 103.8 544 c 0
 103.8 439.637 174.923 352 258.2 352 c 0
258.2 355 m 0
 175.198 355 107.8 440.926 107.8 544 c 0
 107.8 650.205 175.2 735 258.2 735 c 0
 342.991 735 411 649.989 411 544 c 0
 411 441.143 342.993 355 258.2 355 c 0
EndSplineSet
EndChar

StartChar: degree
Encoding: 176 176 103
Width: 191
GlyphClass: 2
Flags: HW
HStem: 496 38<75.2678 138.866> 653 37<75.4334 137.86>
VStem: 31 32<548.199 639.382> 151 30.4<548.7 637.058>
LayerCount: 2
Fore
SplineSet
106.2 670 m 0
 139.076 670 165.4 634.76 165.4 593 c 0
 165.4 550.467 138.45 516 106.2 516 c 0
 74.5742 516 47 549.692 47 593 c 0
 47 636.308 74.5742 670 106.2 670 c 0
106.2 673 m 0
 71.167 673 47 635.105 47 594 c 0
 47 551.654 72.1191 514 107 514 c 0
 143.923 514 167 554.185 167 593 c 0
 167 633.383 142.127 673 106.2 673 c 0
EndSplineSet
EndChar

StartChar: plusminus
Encoding: 177 177 104
Width: 630
GlyphClass: 2
Flags: HW
HStem: -12 57<112.6 589.358> 280 58<112.6 327.8 373.4 589.358>
VStem: 327.8 45.6<71 280 338 546.977>
LayerCount: 2
Fore
SplineSet
131 300 m 2
 130.067 300 129.166 300.064 128.643 300.11 c 1
 128.582 301.777 128.6 301.165 128.6 302 c 0
 128.6 316 l 0
 128.6 316.717 128.637 317.463 128.654 317.824 c 1
 129.64 317.958 130.527 318 131.8 318 c 0
 343.8 318 l 1
 343.8 527 l 1
 355 527 l 0
 355.936 527 357.269 526.915 357.395 526.905 c 1
 357.403 525.905 357.399 527 357.399 526 c 0
 357.399 318 l 1
 573.399 318 l 1
 573.399 304 l 0
 573.399 302.338 573.258 300.762 573.207 300.297 c 1
 571.718 300.057 570.139 300 567.8 300 c 0
 357.399 300 l 1
 357.399 91.0049 l 1
 356.6 90.9961 357.399 91 356.6 91 c 0
 345.399 91 l 0
 344.425 91 343.8 91.0391 343.8 91.0391 c 1
 343.8 300 l 1
 131 300 l 2
131 8 m 2
 130.105 8 128.938 8.05371 128.64 8.07129 c 1
 128.592 9.41797 128.6 9.19336 128.6 10 c 0
 128.6 23 l 0
 128.6 23.7061 128.646 24.7881 128.65 24.8975 c 1
 129.724 24.9863 130.541 25 131.8 25 c 0
 573.399 25 l 1
 573.399 12 l 0
 573.399 10.3379 573.258 8.76172 573.207 8.29688 c 1
 571.718 8.05664 570.139 8 567.8 8 c 0
 131 8 l 2
EndSplineSet
EndChar

StartChar: acute
Encoding: 180 180 105
Width: 204
GlyphClass: 2
Flags: HW
HStem: 474 227
VStem: 34.7 157.6
LayerCount: 2
Fore
SplineSet
162.7 681 m 0
 170.512 681 176.3 674.574 176.3 664 c 0
 176.3 655.039 171.789 646.675 161.526 632.812 c 1
 125.385 586.662 59.8789 503.955 51.9355 494.688 c 1
 51.3809 494.276 51.1182 494.193 50.7002 494.081 c 1
 50.7012 494.883 50.71 495.118 50.7158 495.28 c 1
 51.8311 499.417 66.4053 526.885 132.054 647.98 c 1
 140.377 664.164 150.417 681 162.7 681 c 0
EndSplineSet
EndChar

StartChar: paragraph
Encoding: 182 182 106
Width: 675
GlyphClass: 2
Flags: HW
HStem: -204 53<560.45 622.48> -18 36<315.645 403.451> 679 31<347.958 425> 694 39<549.563 610.704>
VStem: 95.8 137.6<173.297 423.162> 367 20.8<175.738 468.644> 430.2 29.6<128.563 491.261> 611 43.2<640.104 693.031>
LayerCount: 2
Fore
SplineSet
446.2 315 m 0
 446.2 498.719 488.6 582.07 488.6 607 c 0
 488.6 626.406 473.113 673 447.8 673 c 0
 432.909 673 432.486 663.142 432.486 663.142 c 0
 430.676 660.88 l 1
 429.521 658.024 l 0
 392.312 566.04 371.8 459.482 371.8 323 c 0
 371.8 208.076 388.621 32 425.4 32 c 0
 447.865 32 459.619 69.083 464.256 83.5723 c 0
 465.966 88.916 l 1
 465.142 94.5781 l 0
 458.778 138.326 446.2 227.261 446.2 315 c 0
442.2 665 m 0
 442.2 703.874 395.246 699 391.8 699 c 0
 309.657 699 261.461 582.471 240.641 506.4 c 1
 224.793 446.969 217.4 384.004 217.4 321 c 0
 217.4 320 l 0
 217.4 146.884 268.834 -2 362.2 -2 c 0
 375.32 -2 420.6 0.709961 420.6 39 c 0
 420.6 63.8145 383 141.496 383 313 c 0
 383 541.775 442.2 633.431 442.2 665 c 0
499.215 636.567 m 1
 497.659 633.218 496.107 629.593 495.022 626.776 c 1
 451.99 518.161 443.8 411.407 443.8 321 c 0
 443.8 316.949 l 1
 444.617 121.363 484.616 -29.9316 520.858 -100.043 c 1
 537.378 -130.471 556.908 -157.112 572.707 -168.398 c 1
 586.804 -178.309 601.998 -176.475 606.515 -178.115 c 1
 604.823 -180.496 599.573 -184 592.6 -184 c 0
 589.4 -184 l 0
 583.772 -184 574.066 -184.663 554.081 -160.572 c 0
 536.629 -139.63 524.366 -110.704 511.567 -80.7031 c 1
 487.131 -21.5859 484.068 -5.87598 471.995 47.4463 c 0
 465.161 77.6309 l 1
 446.152 57.1484 l 0
 422.3 31.4453 411.24 8.98535 336.931 3.00098 c 1
 328.909 2.86328 325.578 2 321.4 2 c 0
 196.553 2 111.8 130.439 111.8 295 c 0
 111.8 526.583 262.579 690 387 690 c 0
 459.035 690 465.584 636 495 636 c 0
 496.343 636 497.861 636.221 499.215 636.567 c 1
598.209 712.949 m 1
 599.004 712.979 599.945 713 600.6 713 c 0
 628.277 713 638.2 690.02 638.2 673 c 0
 638.2 647.791 618.469 632 611 632 c 0
 609.702 632 608.763 632.664 608.604 632.82 c 1
 608.57 633.819 608.6 632 608.6 633 c 0
 608.6 634.526 627 637.368 627 674 c 0
 627 690.423 616.56 708.266 598.209 712.949 c 1
EndSplineSet
EndChar

StartChar: periodcentered
Encoding: 183 183 107
Width: 204
GlyphClass: 2
Flags: HW
HStem: 201 117<77.0877 149.846>
VStem: 65.9 95.2<214.578 303.753>
LayerCount: 2
Fore
SplineSet
113.1 298 m 0
 130.25 298 145.1 280.309 145.1 259 c 0
 145.1 238.841 132.18 221 113.9 221 c 0
 97.0088 221 81.9004 237.099 81.9004 260 c 0
 81.9004 283.019 96.0801 298 113.1 298 c 0
EndSplineSet
EndChar

StartChar: cedilla
Encoding: 184 184 108
Width: 182
GlyphClass: 2
Flags: HW
HStem: -199 36<45.6954 118.311>
VStem: 60.3634 37.6<-77.5 -20.3329> 121.163 48.8<-160.177 -95.2734>
LayerCount: 2
Fore
SplineSet
110.256 -178.783 m 1
 127.074 -170.537 137.163 -152.184 137.163 -130 c 0
 137.163 -93.2334 110.146 -69.7783 81.6699 -61.9092 c 1
 82.4922 -59.3066 83.6973 -55.5127 83.8418 -55.0576 c 1
 91.2793 -69.5195 99.3379 -67 101.163 -67 c 0
 102.764 -67 l 0
 135.134 -67 153.963 -85.7451 153.963 -123 c 0
 153.963 -148.837 146.666 -175.873 110.256 -178.783 c 1
EndSplineSet
EndChar

StartChar: guillemotright
Encoding: 187 187 109
Width: 331
GlyphClass: 2
Flags: HW
HStem: 52 282<64.8725 75.2725 178.473 188.073>
VStem: 137.673 63.2<171.321 215.498> 249.673 63.2<171.129 215.713>
LayerCount: 2
Fore
SplineSet
212.762 279.447 m 1
 230.45 260.475 253.618 235.601 292.847 193.927 c 1
 258.575 156.471 233.251 128.73 217.552 111.605 c 1
 228.346 127.122 241.657 146.274 259.381 171.928 c 0
 260.032 172.87 l 1
 260.585 173.906 l 0
 262.479 177.454 265.673 184.771 265.673 193 c 0
 265.673 201.04 263.479 206.667 260.585 212.094 c 0
 259.967 213.254 l 1
 259.226 214.296 l 0
 232.48 251.862 214.836 276.395 203.248 292.587 c 0
 212.762 279.447 l 1
100.648 106.254 m 1
 111.047 121.45 126.73 144.233 145.288 171.209 c 1
 149.821 177.303 153.673 182.685 153.673 194 c 0
 153.673 203.126 150.366 208.755 148.585 212.094 c 0
 147.932 213.319 l 1
 99.8789 279.776 l 1
 118.196 259.968 144.23 231.734 184.025 188.852 c 0
 180.087 193.096 l 1
 139.152 148.355 117.516 124.583 100.648 106.254 c 1
EndSplineSet
EndChar

StartChar: questiondown
Encoding: 191 191 110
Width: 339
GlyphClass: 2
Flags: HW
HStem: -16 38<145.45 220.58> -7 103<240.759 291.251> 572 118<153.077 226.092>
VStem: 47.205 68<60.8065 202.07> 141.605 96<586.247 675.996> 180.005 41.6<345.138 480.296>
LayerCount: 2
Fore
SplineSet
189.605 592 m 0
 172.454 592 157.605 609.691 157.605 631 c 0
 157.605 651.02 171.428 670 189.605 670 c 0
 206.119 670 221.605 653.221 221.605 630 c 0
 221.605 607.414 206.884 592 189.605 592 c 0
161.985 6.36523 m 1
 89.5322 19.8311 63.2051 87.042 63.2051 131 c 0
 63.2051 235.433 196.005 264.635 196.005 423 c 0
 196.005 433.62 195.205 440.118 195.205 445 c 0
 195.205 460.61 200.062 460.971 200.123 460.992 c 1
 200.584 460.481 205.605 453.212 205.605 426 c 0
 205.605 310.056 99.2051 258.166 99.2051 126 c 0
 99.2051 71.375 123.826 21.6465 161.985 6.36523 c 1
201.477 4.35938 m 1
 257.552 21.6133 248.771 76 271.205 76 c 0
 280.791 76 288.805 66.1367 288.805 52 c 0
 288.805 45.9912 291.611 23.5742 250.139 12.5254 c 1
 234.437 7.99609 217.985 5.31152 201.477 4.35938 c 1
EndSplineSet
EndChar

StartChar: AE
Encoding: 198 198 117
Width: 904
GlyphClass: 2
Flags: HMW
HStem: -6 45<93.6461 160.113 242.304 312.776> 0 62<582.677 681.236> 0 55<608.362 796.284> 300 52<354.863 510.399> 369 58<583.901 750.881> 638 54<584.075 794.485>
VStem: 510.399 71.2<65 300 352 366.058 427 630.512> 751.999 43.2<271.329 368.925 428.417 512.682> 823.999 35.2<525.207 582.383>
LayerCount: 2
Back
SplineSet
503.199 352 m 6x3980
 506.399 352 510.399 354 510.399 361 c 6
 510.399 619 l 5
 509.599 627 506.399 631 502.399 631 c 4
 499.199 631 495.999 629 493.599 626 c 4
 458.399 581 353.599 366 353.599 356 c 4
 353.599 352 357.599 352 360.799 352 c 6
 503.199 352 l 6x3980
343.199 675 m 4
 343.199 680 345.599 701 354.399 701 c 4xb380
 361.599 701 383.999 697 463.999 693 c 4x3980
 504.799 691 819.199 693 826.399 691 c 4
 833.599 688 835.199 682 835.999 675 c 4
 841.599 631 859.199 548 859.199 544 c 4
 859.199 533 848.799 525 839.199 525 c 4
 832.799 525 827.199 528 823.999 535 c 4
 818.399 547 791.999 618 786.399 629 c 4
 781.599 638 775.999 638 760.799 638 c 6
 607.999 638 l 6
 583.199 638 583.199 618 583.199 596 c 6
 583.199 449 l 6
 583.199 439 583.999 427 599.199 427 c 6
 721.599 427 l 6
 750.399 427 751.999 440 751.999 473 c 6
 751.999 491 l 6
 751.999 501 754.399 513 773.599 513 c 4
 794.399 513 795.199 495 795.199 484 c 6
 795.199 300 l 6
 795.199 289 794.399 271 773.599 271 c 4
 752.799 271 751.999 284 751.999 293 c 6
 751.999 332 l 6
 751.999 363 749.599 369 731.199 369 c 6
 620.799 369 l 6
 601.599 369 581.599 367 581.599 329 c 6
 581.599 108 l 6
 581.599 78 582.399 66 607.199 62 c 4
 631.999 57 657.599 55 682.399 55 c 4
 738.399 55 786.399 66 796.799 76 c 4
 811.199 90 839.199 173 851.999 183 c 4
 854.399 185 857.599 186 859.999 186 c 4
 867.199 186 874.399 178 874.399 163 c 4
 874.399 156 872.799 148 849.599 20 c 4
 846.399 0 837.599 0 821.599 0 c 6
 553.599 0 l 6x7580
 466.399 0 455.199 -6 443.999 -6 c 4
 435.199 -6 430.399 5 430.399 15 c 4
 430.399 60 492.799 25 507.199 65 c 4
 510.399 73 510.399 83 510.399 94 c 6
 510.399 291 l 5
 509.599 299 504.799 300 501.599 300 c 6
 368.799 300 l 6
 326.399 300 327.999 299 323.199 289 c 4
 277.599 200 240.799 91 240.799 72 c 4
 240.799 44 261.599 46 298.399 39 c 4
 304.799 38 312.799 35 312.799 16 c 4
 312.799 7 310.399 -6 299.199 -6 c 4xb180
 295.999 -6 253.599 0 202.399 0 c 4x7180
 150.399 0 109.599 -6 106.399 -6 c 4
 97.5986 -6 93.5986 5 93.5986 15 c 4
 93.5986 24 95.999 33 102.399 36 c 4
 114.399 41 141.599 41 158.399 59 c 4
 176.799 79 190.399 140 299.199 360 c 4
 407.999 580 436.799 609 436.799 625 c 4
 436.799 643 415.999 642 359.199 653 c 4xb380
 346.399 655 343.199 665 343.199 675 c 4
EndSplineSet
Fore
SplineSet
526.399 332 m 1
 526.399 651 l 1
 510.399 651 l 0
 505.218 651 492.96 653.485 482.222 640.062 c 1
 443.735 590.86 337.599 379.727 337.599 352 c 0
 337.599 332 l 1
 526.399 332 l 1
359.198 674.88 m 0
 359.22 675.4 359.691 679.292 359.946 680.583 c 1
 372.568 679.352 399.977 676.186 463.359 673.016 c 0
 484.339 671.967 572.634 672 657.599 672 c 0
 730.878 672 801.621 671.952 820.261 671.364 c 1
 825.538 630.64 838.933 565.724 842.567 545.987 c 1
 841.497 545.363 840.116 545 839.199 545 c 0
 838.497 545 838.015 545.111 837.774 545.175 c 1
 832.352 557.492 807.548 633.709 799.897 648.737 c 0
 795.183 658 l 1
 607.999 658 l 0
 596.383 658 585.526 654.334 577.874 644.571 c 0
 565.455 628.729 567.199 608.259 567.199 596 c 0
 567.199 449 l 0
 567.199 443.406 566.652 431.874 573.506 420.82 c 0
 579.562 411.051 589.418 407 599.199 407 c 0
 721.599 407 l 0
 735.388 407 748.462 409.156 757.814 421.658 c 0
 769.178 436.848 767.999 455.809 767.999 473 c 0
 767.999 491 l 0
 767.999 491.585 768.027 492.325 768.027 492.325 c 1
 769.422 492.741 770.898 493 773.599 493 c 0
 776.78 493 778.274 492.293 778.54 492.157 c 1
 778.908 490.906 779.199 487.998 779.199 484 c 0
 779.199 300 l 0
 779.199 295.863 778.793 292.7 778.54 291.843 c 1
 777.939 291.535 776.578 291 773.599 291 c 0
 770.873 291 768.368 291.498 768.012 291.592 c 1
 767.998 292.29 767.999 292.441 767.999 293 c 0
 767.999 332 l 0
 767.999 348.539 769.2 365.566 758.08 378.759 c 0
 749.616 388.799 739.426 389 731.199 389 c 0
 620.799 389 l 0
 601.735 389 565.599 383.388 565.599 329 c 0
 565.599 108 l 0
 565.599 92.126 564.387 75.1172 574.06 60.083 c 0
 581.713 48.1904 593.365 44.0654 604.9 42.2051 c 1
 630.169 37.1104 657.073 35 682.399 35 c 0
 739.682 35 788.431 42.7207 806.589 60.1797 c 1
 826.32 79.3633 846.66 142.456 858.391 162.53 c 1
 858.299 160.281 855.572 143.478 833.949 24.1719 c 1
 833.607 22.0303 833.282 20.8701 833.203 20.5898 c 1
 831.444 20.1807 827.362 20 821.599 20 c 0
 453.106 20 l 1
 465.662 22.9844 509.956 15.0303 524.989 56.793 c 0
 526.399 60.707 l 1
 526.399 320 l 1
 368.799 320 l 0
 329.545 320 317.778 316.58 309.599 299.54 c 1
 263.088 208.764 224.799 102.841 224.799 72 c 0
 224.799 62.7998 226.479 53.2725 231.032 45.3242 c 0
 245.215 20.5596 271.911 23.8086 296.203 19.1875 c 1
 296.259 18.7549 296.799 17.6777 296.799 16 c 0
 296.799 15.4668 296.753 14.4756 296.74 14.2744 c 1
 284.452 15.5908 246.84 20 202.399 20 c 0
 158.309 20 122.094 15.7588 109.614 14.3682 c 1
 109.602 14.6426 109.599 14.7842 109.599 15 c 0
 109.599 16.0625 109.737 17.5186 109.776 17.8154 c 1
 121.401 21.0771 148.294 21.8311 168.855 43.8613 c 1
 194.68 71.9316 204.066 129.601 312.809 349.484 c 0
 420.865 567.98 452.799 590.376 452.799 625 c 0
 452.799 669.179 407.499 663.886 361.417 672.809 c 1
 359.968 673.036 359.377 673.286 359.278 673.324 c 1
 359.217 673.967 359.205 674.444 359.198 674.88 c 0
EndSplineSet
EndChar

StartChar: Ccedilla
Encoding: 199 199 118
Width: 630
GlyphClass: 2
Flags: HW
HStem: -195 36<330.121 402.993> -23 50<310.439 360.407 382.007 469.199> 439 21G<573.207 590.407> 650 46<296.669 459.131>
VStem: 85.2066 76.8<229.101 451.697> 406.007 48.8<-156.256 -91.5187> 560.407 39.2<439.285 545.701>
LayerCount: 2
Fore
SplineSet
368.451 -51.6768 m 1
 373.392 -62.2627 382.178 -63 385.207 -63 c 0
 387.606 -63 l 0
 419.977 -63 438.807 -81.7451 438.807 -119 c 0
 438.807 -120 l 0
 438.807 -144.397 431.18 -171.814 394.743 -174.804 c 1
 410.326 -167.422 422.007 -149.614 422.007 -127 c 0
 422.007 -89.6064 394.801 -65.6475 366.501 -57.9102 c 1
 367.42 -54.9619 367.767 -53.8564 368.451 -51.6768 c 1
382.507 -4.24707 m 1
 361.141 -3.02148 l 2
 212.964 5.4834 101.207 157.58 101.207 335 c 0
 101.207 429.936 136.113 520.237 185.101 579.588 c 1
 236.335 640.807 307.788 676 378.007 676 c 0
 378.807 676 l 0
 474.632 676 508.065 623 535.606 623 c 0
 559.145 623 562.577 655.779 562.987 657.206 c 1
 566.799 620.975 581.137 486.093 583.366 458.999 c 1
 580.994 459.021 580.16 459.095 579.401 459.16 c 1
 578.421 464.87 577.742 473.881 576.261 488.705 c 1
 572.919 516.895 568.479 538.338 552.171 564.383 c 0
 516.78 620.492 455.567 670 376.406 670 c 0
 257.814 670 146.007 549.346 146.007 354 c 0
 146.007 161.554 251.263 7 386.807 7 c 0
 475.773 7 559.577 73.9482 598.859 178.994 c 1
 593.89 136.113 586.841 78.416 585.408 70.3174 c 1
 584.946 68.1533 l 0
 584.855 67.7246 584.76 67.4229 584.715 67.2715 c 1
 584.186 67.083 583.491 67 582.807 67 c 0
 559.606 67 l 0
 535.421 67 525.774 52.6123 513.829 43.1914 c 1
 473.572 14.3369 430.675 -1.18555 385.994 -4.02539 c 0
 382.507 -4.24707 l 1
EndSplineSet
EndChar

StartChar: multiply
Encoding: 215 215 133
Width: 497
GlyphClass: 2
Flags: HW
DStem2: 105.838 86 277.038 219 0.624695 0.780869<20.8764 222.188 274.054 474.396> 277.038 300 245.038 259 0.624695 -0.780869<-199.618 0.0277137 52.5057 253.818>
LayerCount: 2
Fore
SplineSet
115.243 69.3057 m 0
 115.718 70.0088 116.362 70.8711 117.119 71.8174 c 0
 267.666 258.918 l 1
 256.385 273.101 l 0
 158.658 395.973 124.669 436.488 115.39 450.171 c 1
 118.279 454.979 122.896 459.972 124.903 461.431 c 1
 134.502 451.934 164.869 412.641 265.692 285.898 c 0
 276.976 271.714 l 1
 288.321 285.82 l 0
 387.689 409.361 419.492 450.483 429.776 462.02 c 1
 433.551 458.367 437.46 452.815 438.879 449.98 c 1
 431.462 438.222 399.856 399.807 298.524 273.142 c 0
 287.211 259 l 1
 298.524 244.858 l 0
 397.91 120.623 430.665 81.2051 439.14 68.7432 c 1
 436.545 64.0479 432.142 58.8779 429.595 56.7568 c 1
 429.014 57.3672 428.378 58.1104 427.552 59.1426 c 0
 277.038 247.284 l 1
 265.725 233.142 l 0
 166.339 108.907 134.802 67.9658 124.833 57.373 c 1
 121.077 60.6172 116.94 66.1211 115.243 69.3057 c 0
EndSplineSet
EndChar

StartChar: Oslash
Encoding: 216 216 134
Width: 700
GlyphClass: 2
Flags: HW
HStem: -24 58<311.926 478.323> 667 53<292.575 461.304>
VStem: 92.2 76<244.676 473.525> 606.6 79.2<215.912 457.417>
DStem2: 224.2 44 234.6 -39 0.403044 0.915181<-76.325 0 67.6858 636.869 703.117 771.172>
LayerCount: 2
Fore
SplineSet
669.8 337 m 0
 669.8 138.214 546.14 -4 398.6 -4 c 0
 353.277 -4 308.515 10.1641 267.355 35.8887 c 0
 253.529 44.5293 l 1
 246.144 27.5557 l 0
 231.736 -5.56152 225.887 -19.1562 223.939 -23.4258 c 1
 223.051 -23.7119 221.798 -24 219.4 -24 c 0
 217.119 -24 212.888 -23.8262 212.634 -23.8086 c 1
 217.746 -12.4102 225.098 4.08008 238.269 34.4746 c 0
 245.143 50.3369 l 1
 233.226 60.5146 l 0
 156.783 125.792 108.955 236.911 108.2 353.081 c 1
 108.2 544.659 235.326 700 387.4 700 c 0
 425.9 700 464.618 689.594 500.335 670.597 c 0
 513.796 663.438 l 1
 520.704 679.556 l 0
 531.938 705.767 538.151 720.774 540.427 724.991 c 1
 541.624 725.003 541.761 725 542.6 725 c 0
 546.953 725 551.489 724.334 552.648 724.086 c 1
 548.857 715.372 541.9 700.322 530.175 673.625 c 0
 522.909 657.084 l 1
 535.697 647.057 l 0
 618.754 581.933 669.8 462.364 669.8 337 c 0
152.2 384 m 0
 152.2 289.619 174.174 171.034 240.313 91.5801 c 0
 255.403 73.4521 l 1
 503.572 641.094 l 1
 489.365 650.623 l 0
 454.313 674.135 414.928 687 374.6 687 c 0
 267.794 687 152.2 593.281 152.2 384 c 0
395.4 14 m 0
 493.224 14 622.6 96.5469 622.6 319 c 0
 622.6 422.612 597.196 540.726 527.547 617.04 c 0
 512.576 633.443 l 1
 262.781 65.8262 l 1
 275.915 55.8896 l 0
 308.402 31.3105 348.226 14 395.4 14 c 0
EndSplineSet
EndChar

StartChar: germandbls
Encoding: 223 223 140
Width: 476
GlyphClass: 2
Flags: HW
HStem: -19 56<319.13 407.305> -6 45<67.5091 117.402 174.794 227.402> 360 47<60.7306 118.54> 659 60<223.998 306.287>
VStem: 118.606 56.8<38.5658 359.712 410.048 563.25> 254.606 45.6<345.337 432.51> 259.406 32.8<68.2012 148.863> 325.006 64.8<533.904 634.935> 421.006 48.8<54.6943 152.155>
LayerCount: 2
Fore
SplineSet
123.367 391.919 m 1
 135.768 401.203 134.605 416.929 134.605 417 c 0
 134.605 418.902 l 1
 135.385 518.207 156.407 608.983 199.303 654.691 c 1
 228.567 685.025 267.909 699 296.206 699 c 0
 342.286 699 373.806 663.395 373.806 607 c 0
 373.806 552.752 346.201 522.711 318.789 485.905 c 1
 330.741 510.941 341.006 540.192 341.006 575 c 0
 341.006 629.251 311.556 679 265.006 679 c 0
 240.722 679 177.907 658.486 163.529 510.477 c 1
 159.373 469.961 159.405 429.935 159.405 390 c 0
 159.405 380 l 0
 159.405 130.967 158.605 99.3828 158.605 68 c 0
 158.605 60.4902 158.159 47.498 165.242 35.0947 c 0
 169.901 26.9385 177.808 21.1875 185.064 18.2959 c 1
 173.36 19.3291 161.768 20 148.206 20 c 0
 119.99 20 94.8516 16.7891 83.8848 15.1924 c 1
 87.8291 16.2031 96.2695 17.3906 106.887 19.1367 c 1
 112.546 19.8818 119.57 23.0801 124.454 29.4844 c 0
 138.825 48.3242 133.521 73.3857 134.59 100.101 c 1
 135.436 126.531 136.206 300.534 136.206 351 c 0
 136.206 387.528 103.274 379.312 77.9795 380 c 1
 77.0059 380 l 0
 76.7354 380 76.25 380.017 76.25 380.017 c 1
 76.4238 382.49 77.2549 386.763 77.7178 388.125 c 1
 89.9229 389.5 110.446 386.324 123.367 391.919 c 1
287.808 427.404 m 1
 285.589 418.536 284.206 408.688 284.206 399 c 0
 284.206 322.144 346.86 294.912 408.466 211.412 c 0
 428.081 184.931 453.806 144.057 453.806 97 c 0
 453.806 40.3809 417.699 1 370.605 1 c 0
 316.847 1 284.378 35.502 278.046 48.042 c 1
 275.533 53.9434 275.405 55.2314 275.405 65 c 0
 275.405 88.2861 l 1
 276.774 84.5566 276.995 84.0244 278.403 80.876 c 1
 286.988 63.4385 319.729 17 365.006 17 c 0
 401.201 17 437.006 48.6006 437.006 100 c 0
 437.006 175.428 372.883 205.6 298.005 302.035 c 1
 279.7 324.916 270.605 343.439 270.605 368 c 0
 270.605 387.494 277.258 406.358 287.808 427.404 c 1
EndSplineSet
EndChar

StartChar: ae
Encoding: 230 230 147
Width: 581
GlyphClass: 2
Flags: HW
HStem: -22 54<162.217 247.166 397.454 498.692> 191 37<193.408 271.854> 376 56<361.64 454.913> 385 47<165.017 248.405>
VStem: 91.1025 59.2<46.7656 152.973> 272.702 59.2<115.787 190.367 228.097 337.5> 488.703 78.4<298.142 339.608>
LayerCount: 2
Fore
SplineSet
404.702 396 m 0
 345.937 396 311.902 325.046 311.902 233 c 0
 311.902 222.412 318.764 206 331.902 206 c 0
 346.199 206 482.117 275.523 489.458 280.111 c 0
 499.884 286.628 504.702 299.338 504.702 310 c 0
 504.702 343.659 454.665 396 404.702 396 c 0
134.303 101 m 0
 134.303 69.0957 147.323 12 200.702 12 c 0
 223.429 12 247.107 23.5068 263.622 40.5078 c 1
 281.859 58.9619 288.702 74.5684 288.702 115 c 0
 288.702 144 l 0
 288.702 182.318 287.938 211 264.702 211 c 0
 262.552 211 l 1
 262.002 210.953 l 0
 218.492 207.202 134.303 193.996 134.303 101 c 0
423.103 412 m 0
 489.023 412 548.779 330.58 551.122 312.682 c 1
 550.445 303.987 525.826 293.64 496.289 280.908 c 0
 340.635 213.852 315.902 217.749 315.902 183 c 0
 315.902 167.304 334.914 18 450.303 18 c 0
 479.476 18 507.719 29.0859 532.033 48.3086 c 1
 500.725 16.4766 464.379 1 428.702 1 c 0
 345.697 1 341.108 74 307.902 74 c 0
 279.507 74 248.057 -2 182.303 -2 c 0
 136.733 -2 107.103 39.5146 107.103 90 c 0
 107.103 91 l 0
 107.103 122.604 119.074 148.922 134.695 164.38 c 1
 169.621 199.642 266.29 208.024 266.29 208.024 c 0
 268.128 208.137 l 1
 269.897 208.77 l 0
 287.994 215.233 287.902 238.985 287.902 250 c 0
 287.902 278 l 0
 287.902 311.413 284.339 343.001 264.719 371.206 c 1
 248.9 393.451 227.76 405 206.303 405 c 0
 152.913 405 129.231 341.134 124.491 329.876 c 1
 122.501 327.57 121.119 327 119.103 327 c 0
 111.308 327 103.902 335.162 103.902 343 c 0
 103.902 357.954 145.371 412 211.902 412 c 0
 292.125 412 279.494 355 317.503 355 c 0
 327.092 355 332.972 362.053 335.834 365.629 c 1
 347.275 379.038 379.228 412 423.103 412 c 0
EndSplineSet
EndChar

StartChar: ccedilla
Encoding: 231 231 148
Width: 343
GlyphClass: 2
Flags: HW
HStem: -195 36<145.428 218.3> -18 64<198.859 278.294> 376 52<152.79 240.054>
VStem: 52.5135 52.8<132.437 305.205> 221.314 48.8<-156.256 -91.5187>
LayerCount: 2
Fore
SplineSet
183.407 -53.2559 m 1
 190.639 -60.4873 197.889 -63 200.514 -63 c 0
 202.913 -63 l 0
 235.284 -63 254.113 -81.7451 254.113 -119 c 0
 254.113 -120 l 2
 254.113 -144.397 246.486 -171.814 210.051 -174.804 c 1
 225.633 -167.423 237.313 -149.614 237.313 -127 c 0
 237.313 -89.6172 209.991 -65.6152 181.947 -57.9482 c 1
 182.779 -55.2773 182.831 -55.1104 183.407 -53.2559 c 1
198.266 2 m 1
 180.798 5.7168 l 0
 114.412 19.8408 68.5137 91.5273 68.5137 197 c 0
 68.5137 323.914 130.771 408 223.714 408 c 0
 279.26 408 309.313 372.422 309.313 354 c 0
 309.313 343.566 302.844 336 293.313 336 c 0
 272.271 336 255.389 396 196.514 396 c 0
 134.76 396 89.3135 312.095 89.3135 222 c 0
 89.3135 120.429 147.404 26 231.714 26 c 0
 279.412 26 305.89 55.7061 320.621 71.3574 c 1
 296.455 34.1582 256.614 2 206.113 2 c 0
 198.266 2 l 1
EndSplineSet
EndChar

StartChar: divide
Encoding: 247 247 163
Width: 630
GlyphClass: 2
Flags: HW
HStem: 67 103<311.898 379.502> 231 57<112.5 588.463> 349 103<306.587 374.702>
VStem: 298.1 84.8<359.248 440.996> 303.7 84<76.9539 159.752>
CounterMasks: 1 e0
LayerCount: 2
Fore
SplineSet
130.9 251 m 2
 129.899 251 128.532 251.072 128.532 251.072 c 1
 128.493 252.424 128.5 252.2 128.5 253 c 0
 128.5 266 l 0
 128.5 266.772 128.548 267.951 128.548 267.951 c 1
 129.331 267.991 129.998 268 130.9 268 c 0
 572.5 268 l 1
 572.5 255 l 0
 572.5 253.306 572.353 251.701 572.301 251.238 c 1
 571.086 251.055 569.663 251 567.7 251 c 0
 130.9 251 l 2
314.1 400 m 0
 314.1 417.024 326.295 432 341.3 432 c 0
 355.869 432 366.9 417.733 366.9 401 c 0
 366.9 383.477 355.218 369 340.5 369 c 0
 325.36 369 314.1 382.844 314.1 400 c 0
346.1 87 m 0
 331.852 87 319.7 100.874 319.7 119 c 0
 319.7 136.666 330.453 150 345.3 150 c 0
 360.018 150 371.7 135.523 371.7 118 c 0
 371.7 100.334 360.947 87 346.1 87 c 0
EndSplineSet
EndChar

StartChar: oslash
Encoding: 248 248 164
Width: 420
GlyphClass: 2
Flags: HW
HStem: -19 49<185.866 290.931> 385 47<179.241 282.318>
VStem: 63.5 62.4<108.789 304.389> 349.1 54.4<109.681 294.771>
DStem2: 130.7 23 163.5 -1 0.405791 0.913966<-40.4974 1.88808 63.3719 364.321 424.509 480.945>
LayerCount: 2
Fore
SplineSet
387.5 204 m 0
 387.5 72.0654 314.644 1 233.1 1 c 0
 211.246 1 190.292 6.40625 169.803 17.3828 c 0
 156.255 24.6406 l 1
 149.359 8.35742 l 0
 144.794 -2.42285 141.302 -11.0381 140.032 -12.9971 c 1
 136.72 -12.9629 133.595 -12.7715 133.052 -12.7314 c 1
 136.701 -4.55371 139.582 1.72363 144.71 13.3389 c 0
 151.408 28.5156 l 1
 140.342 38.9609 l 0
 105.378 71.9629 79.5 130.937 79.5 204 c 0
 79.5 332.078 155.334 412 236.3 412 c 0
 256.921 412 278.152 405.719 298.264 395.478 c 0
 311.668 388.652 l 1
 318.44 404.642 l 0
 326.231 423.036 330.966 434.962 333.162 438.989 c 1
 336.922 438.932 340.548 438.569 342.241 438.29 c 1
 338.728 429.944 333.228 418.228 323.984 397.872 c 0
 317.113 382.736 l 1
 328.155 372.137 l 0
 367.896 333.992 387.5 268.405 387.5 204 c 0
235.5 10 m 0
 315.266 10 365.1 103.963 365.1 200 c 0
 365.1 243.644 354.952 300.016 325.441 344.728 c 0
 310.581 367.245 l 1
 163.487 39.7334 l 1
 176.96 29.7812 l 0
 197.405 14.6797 218.069 10 235.5 10 c 0
230.7 405 m 0
 180.105 405 109.9 352.51 109.9 209 c 0
 109.9 168.551 116.355 113.107 143.618 68.8057 c 0
 158.453 44.6992 l 1
 303.959 371.627 l 1
 291.392 381.791 l 0
 275.891 394.329 255.281 405 230.7 405 c 0
EndSplineSet
EndChar

StartChar: dotlessi
Encoding: 305 305 203
Width: 216
GlyphClass: 2
Flags: HW
HStem: -6 44<36.6516 96.5894 153.118 205.336> 421 20G<141.743 146.943>
VStem: 97.3428 53.6<39.1511 336.573>
LayerCount: 2
Fore
SplineSet
113.343 121 m 2
 113.343 236.96 114.143 294.578 114.143 314 c 0
 114.143 344.163 92.2188 352.131 58.8867 368.921 c 1
 60.3438 369.676 60.9883 370.011 62.5205 370.882 c 1
 109.145 398.901 130.274 412.059 139.509 417.622 c 1
 138.493 389.832 134.942 303.465 134.942 198 c 0
 134.942 165 l 0
 134.942 77.6221 130.488 44.2295 149.04 25.5 c 0
 153.818 20.6748 159.434 18.8779 162.541 18.1084 c 1
 148.986 19.3096 137.261 20 122.143 20 c 0
 102.254 20 81.7285 18.2637 70.9209 17.0459 c 1
 73.7783 17.5029 75.1182 17.7188 78.0645 18.21 c 1
 108.316 24.2607 113.343 54.207 113.343 74 c 0
 113.343 121 l 2
EndSplineSet
EndChar

StartChar: OE
Encoding: 338 338 224
Width: 916
GlyphClass: 2
Flags: HW
HStem: -24 58<338.122 504.617> 0 55<616.286 828.486> 369 58<613.786 781.14> 638 53<613.402 817.838> 667 53<317.171 483.757>
VStem: 116.5 75.2<249.63 473.331> 540.5 72<67.3145 365.5 427 617.33> 782.1 44<271.316 368.907 428.208 513.367>
LayerCount: 2
Fore
SplineSet
596.5 97 m 2
 596.5 52.5352 621.287 35 711.7 35 c 0
 738.273 35 811.652 37.0938 837 59.7256 c 0
 837.575 60.2393 l 1
 838.112 60.8145 l 0
 848.931 72.4053 851.826 83.7266 887.228 159.15 c 1
 887.834 160.542 888.499 161.756 888.499 161.756 c 1
 888.499 161.756 887.139 151.959 864.939 24.6768 c 1
 864.626 23.1875 863.906 21.0107 863.754 20.6309 c 1
 862.568 20.2881 859.549 20 854.9 20 c 0
 632.5 20 l 0
 510.326 20 459.474 -4 422.9 -4 c 0
 263.59 -4 132.5 158.364 132.5 353 c 0
 132.5 543.809 258.906 700 410.9 700 c 0
 459.249 700 490.035 688.591 522.438 681.323 c 0
 559.575 672.882 605.621 671.044 606.62 671 c 1
 850.9 671 l 1
 850.909 670.957 851.329 670.328 851.382 670.094 c 1
 873.444 545.995 l 1
 872.645 545.411 871.621 545 870.1 545 c 0
 869.506 545 868.936 545.057 868.696 545.08 c 1
 868.15 546.801 867.784 548.859 866.406 552.878 c 0
 866.004 554.051 l 1
 629.705 1055.62 865.486 555.151 865.486 555.151 c 0
 831.091 628.14 l 0
 826.661 637.554 822.555 646.524 813.955 652.571 c 0
 806.835 657.578 799.705 658 793.3 658 c 0
 638.1 658 l 0
 615.706 658 597.3 639.427 597.3 614 c 0
 597.3 449 l 0
 597.3 442.789 598.773 407 625.3 407 c 0
 751.7 407 l 0
 765.248 407 798.1 411.254 798.1 460 c 0
 798.1 491 l 0
 798.1 491.701 798.046 494 802.9 494 c 0
 811.054 494 810.1 494.254 810.1 484 c 0
 810.1 300 l 0
 810.1 294.899 809.338 292.278 809.152 291.804 c 1
 808.685 291.548 807.369 291 804.5 291 c 0
 801.396 291 798.912 291.474 798.126 291.684 c 1
 798.107 292.128 798.1 292.499 798.1 293 c 0
 798.1 347 l 0
 798.1 358.42 795.626 370.132 788.645 378.346 c 0
 779.188 389.473 767.941 389 761.3 389 c 0
 671.7 389 l 0
 641.73 389 620.082 390.651 606.074 371.191 c 0
 597.042 358.644 596.5 343.271 596.5 329 c 0
 596.5 97 l 2
398.9 687 m 2
 398.1 687 l 0
 292.104 687 175.7 593.342 175.7 384 c 0
 175.7 205.666 255.895 14 419.7 14 c 0
 458.09 14 498.81 25.0381 536.684 53.8105 c 1
 541.723 57.4033 546.353 59.5479 551.123 68.1689 c 0
 557.624 79.918 556.5 90.7295 556.5 104 c 0
 556.5 609.995 l 1
 551.116 615.964 l 0
 505.445 666.592 450.224 687 398.9 687 c 2
EndSplineSet
EndChar

StartChar: oe
Encoding: 339 339 225
Width: 686
GlyphClass: 2
Flags: HW
HStem: -19 57<494.126 608.467> -19 49<210.166 321.992> 376 55<466.118 561.074> 385 47<209.041 315.284>
VStem: 93.3 62.4<107.025 304.389> 378.9 57.6<117.554 196.704 226.001 294.23> 594.1 77.6<292.942 337.386>
LayerCount: 2
Fore
SplineSet
527.7 411 m 0
 576.051 411 625.011 370.25 651.429 323.466 c 0
 651.706 322.975 l 1
 652.007 322.506 l 0
 654.276 318.958 655.7 314.605 655.7 313 c 0
 655.7 312.43 l 1
 655.06 304.208 630.396 293.628 600.887 280.908 c 0
 445.232 213.852 420.5 217.749 420.5 183 c 0
 420.5 167.304 439.511 18 554.9 18 c 0
 584.289 18 613.909 30.3252 637.2 48.9219 c 1
 607.632 18.5596 571.891 1 534.1 1 c 0
 479.954 1 439.697 35.7637 418.359 81.9941 c 0
 405.365 110.146 l 1
 391.117 82.9609 l 0
 364.036 31.2939 314.897 1 262.9 1 c 0
 170.955 1 109.3 90.3428 109.3 204 c 0
 109.3 332.078 185.135 412 266.1 412 c 0
 314.537 412 362.862 382.18 390.957 326.351 c 0
 405.158 298.129 l 1
 418.392 327.077 l 0
 438.757 371.627 476.433 411 527.7 411 c 0
610.1 310 m 0
 610.1 341.571 561.19 396 510.1 396 c 0
 450.638 396 417.3 325.936 417.3 233 c 0
 417.3 217.59 428.172 206 437.3 206 c 0
 450.891 206 588.376 276.562 594.055 280.111 c 0
 603.03 285.721 610.1 296.348 610.1 310 c 0
265.3 10 m 0
 345.065 10 394.9 103.963 394.9 200 c 0
 394.9 314.979 332.697 405 260.5 405 c 0
 209.905 405 139.7 352.51 139.7 209 c 0
 139.7 99.1182 187.644 10 265.3 10 c 0
EndSplineSet
EndChar

StartChar: Scedilla
Encoding: 350 350 236
Width: 443
GlyphClass: 2
Flags: HW
HStem: -195 36<200.998 273.87> -16 55<189.693 232.884 253.299 311.848> 635 50<160.493 265.647>
VStem: 75.2838 57.6<479.18 595.956> 88.0838 40<112.089 247.636> 276.884 48.8<-156.256 -91.5187> 368.084 58.4<105.358 250.11>
LayerCount: 2
Fore
SplineSet
247.364 2.41992 m 1
 234.349 3.91602 l 0
 169.768 11.3389 143.516 53.9521 125.617 65.4043 c 1
 116.24 71.7119 111.096 72 104.884 72 c 0
 95.7705 72 89.541 69.6758 86.3545 69.168 c 1
 89.0645 86.6357 98.0703 130.997 104.026 225.308 c 1
 104.089 226.167 104.317 227.899 104.321 227.926 c 1
 104.685 227.97 105.133 228 105.684 228 c 0
 106.236 228 106.842 227.977 107.136 227.965 c 1
 108.483 222.795 110.117 208.852 112.181 187.789 c 1
 117.223 124.769 113.4 130.806 136.038 93.0762 c 1
 158.36 55.1289 198.815 19 252.084 19 c 0
 323.392 19 384.084 88.0742 384.084 178 c 0
 384.084 228.844 363.633 274.8 331.067 304.199 c 0
 279.632 350.758 225.74 347.728 176.382 372.592 c 1
 116.422 401.841 91.2842 458.994 91.2842 516 c 0
 91.2842 593.688 142.994 665 218.483 665 c 0
 281.142 665 293.085 625 321.684 625 c 0
 344.315 625 350.635 657.257 351.713 659.394 c 1
 350.748 645.666 348.884 622.02 348.884 583 c 0
 348.884 543.166 351.054 517.851 351.787 507.4 c 1
 348.808 508.761 350.216 535.322 310.459 592.265 c 1
 286.923 624.953 252.187 655 210.483 655 c 0
 157.216 655 116.884 604.129 116.884 541 c 0
 116.884 496.367 136.431 458.521 164.369 433.738 c 1
 212.83 389.99 272.886 391.136 319.408 366.602 c 1
 372.102 338.244 410.483 280.207 410.483 198 c 0
 410.483 99.1357 349.7 7.53711 258.645 2.98438 c 0
 247.364 2.41992 l 1
239.264 -51.5381 m 1
 244.231 -62.1855 253.055 -63 256.084 -63 c 0
 258.483 -63 l 0
 290.854 -63 309.684 -81.7451 309.684 -119 c 0
 309.684 -120 l 2
 309.684 -144.397 302.057 -171.814 265.62 -174.804 c 1
 281.203 -167.422 292.884 -149.614 292.884 -127 c 0
 292.884 -89.6016 265.721 -65.6592 237.328 -57.8965 c 1
 238.184 -55.084 238.585 -53.7686 239.264 -51.5381 c 1
EndSplineSet
EndChar

StartChar: scedilla
Encoding: 351 351 237
Width: 306
GlyphClass: 2
Flags: HW
HStem: -195 36<116.514 189.386> -19 54<120.4 148.4 168.403 226.751> 380 47<114.536 205.094> 412 20G<230.8 240.4>
VStem: 57.2 32<71.0105 155.76> 60.4 43.2<283.553 367.539> 192.4 48.8<-156.256 -91.5187> 219.6 44<295.352 359.134> 245.2 53.6<56.0454 149.045>
LayerCount: 2
Back
SplineSet
57.2002 104 m 6x9f
 57.2002 141 54.7998 156 70.7998 156 c 4x9f
 90.7998 156 78 122 89.2002 94 c 4
 97.2002 73 134 35 180.4 35 c 4
 216.4 35 245.2 62 245.2 102 c 4
 245.2 168 174.8 178 149.2 187 c 4
 84.4004 210 60.4004 260 60.4004 309 c 4
 60.4004 369 103.6 427 175.6 427 c 4
 199.6 427 211.6 422 215.6 422 c 4
 222.8 422 226 432 235.6 432 c 4
 245.2 432 247.6 418 248.4 413 c 4
 253.2 378 263.6 312 263.6 308 c 4
 263.6 295 251.6 292 245.2 292 c 4
 228.4 292 230.8 321 219.6 341 c 4
 209.2 359 180.4 380 154 380 c 4
 126.8 380 103.6 359 103.6 327 c 4
 103.6 313 107.6 276 166.8 255 c 4
 207.6 241 245.2 238 274.8 195 c 4
 295.6 165 298.8 132 298.8 116 c 4
 298.8 52 256.4 -19 177.2 -19 c 6
 174 -19 l 5
 169.2 -36 168.4 -38 168.4 -40 c 4
 168.4 -42 169.2 -43 171.6 -43 c 6
 174 -43 l 6
 212.4 -43 241.2 -69 241.2 -119 c 6
 241.2 -120 l 6
 241.2 -152 227.6 -195 175.6 -195 c 4xaf
 150 -195 115.6 -186 112.4 -182 c 4
 110 -180 109.2 -178 109.2 -175 c 4
 109.2 -174 111.6 -151 120.4 -151 c 4x4f
 121.2 -151 146.8 -159 162 -159 c 4
 179.6 -159 192.4 -146 192.4 -127 c 4
 192.4 -100 169.2 -78 135.6 -75 c 4
 134 -75 131.6 -75 131.6 -72 c 4
 131.6 -71 142.8 -35 148.4 -16 c 5
 118 -11 68.4004 11 58.7998 47 c 4
 57.2002 53 57.2002 59 57.2002 65 c 6
 57.2002 104 l 6x9f
EndSplineSet
Fore
SplineSet
166.898 1 m 1
 150.586 3.8125 l 0
 129.728 7.40918 96.7246 21.6455 81.9932 39.293 c 1
 74.7744 48.3154 73.2002 50.0117 73.2002 65 c 0
 73.2002 89.6875 l 2
 73.8184 87.834 74.3359 86.4395 74.8203 85.2275 c 1
 86.04 55.7764 127.602 15 180.4 15 c 0
 222.047 15 261.2 47.7109 261.2 102 c 0
 261.2 189.055 171.911 199.791 153.57 206.239 c 0
 94.1689 227.323 76.4004 269.521 76.4004 309 c 0
 76.4004 356.088 110.566 407 175.6 407 c 0
 198.989 407 205.161 402 215.6 402 c 0
 224.6 402 231.52 408.578 232.64 409.545 c 1
 237.09 377.267 244.299 331.161 247.123 310.74 c 1
 243.444 320.253 242.661 334.694 232.64 352.59 c 1
 218.465 377.124 186.386 400 154 400 c 0
 121.083 400 87.5996 373.323 87.5996 327 c 0
 87.5996 305.268 97.4766 258.802 162.498 235.736 c 1
 206.262 220.72 237.583 218.401 262.709 181.901 c 0
 280.118 156.792 282.8 128.979 282.8 116 c 0
 282.8 62.9307 247.812 1 177.2 1 c 0
 166.898 1 l 1
154.78 -51.5381 m 1
 159.748 -62.1855 168.571 -63 171.6 -63 c 0
 204.504 -63 225.2 -82.6748 225.2 -119 c 0
 225.2 -120 l 0
 225.2 -144.397 217.573 -171.814 181.137 -174.804 c 1
 196.719 -167.423 208.4 -149.614 208.4 -127 c 0
 208.4 -89.6016 181.236 -65.6592 152.844 -57.8965 c 1
 153.7 -55.084 154.101 -53.7686 154.78 -51.5381 c 1
EndSplineSet
EndChar

StartChar: Tcommaaccent
Encoding: 354 354 240
Width: 623
GlyphClass: 2
Flags: HW
HStem: -195 36<298.214 371.086> -6 53<231.876 316.149 391.732 478.536> 622 66<146.102 316.984 391.79 556.886>
VStem: 317.3 74.4<49.375 621.698> 374.1 48.8<-156.256 -91.5187>
LayerCount: 2
Fore
SplineSet
359.825 20.2295 m 1
 335.458 19.998 l 0
 283.397 19.0117 254.574 14.1826 248.077 14.0049 c 1
 247.768 16.1836 247.7 17.4609 247.7 20 c 0
 247.7 20.6592 247.72 21.6982 247.72 21.6982 c 1
 254.458 23.458 268.537 24.2988 291.692 27.0996 c 0
 324.089 31.1484 333.3 59.2256 333.3 84 c 0
 333.3 591 l 0
 333.3 598.912 334.056 614.567 324.59 627.939 c 0
 317.62 637.784 307.049 642 295.7 642 c 0
 176.5 642 l 0
 164.033 642 153.79 640.604 145.01 632.694 c 0
 137.56 625.982 134.3 617.221 131.824 611.032 c 0
 110.261 557.779 101.256 533.875 97.9102 529.014 c 1
 97.6152 529.001 97.5479 529 97.2998 529 c 0
 97.2998 529 95.7002 528.224 95.7002 534 c 0
 95.7002 535 l 0
 95.7002 535 96.2949 540.696 118.4 667.975 c 1
 118.836 667.994 119.207 668 119.7 668 c 0
 585.442 668 l 1
 585.915 665.142 585.918 664.954 586.336 661.554 c 1
 601.657 563.892 605.156 539.879 605.3 536.886 c 1
 605.288 536.451 605.281 536.42 605.281 536.42 c 1
 603.85 538.803 603.092 540.641 601.582 543.946 c 0
 566.355 620.775 561.278 642 526.9 642 c 0
 409.3 642 l 0
 399.675 642 390.056 638.314 383.667 629.217 c 0
 374.867 616.686 375.7 602.37 375.7 595 c 0
 375.7 71 l 0
 375.7 63.0537 376.22 53.0469 381.82 43.9512 c 0
 396.185 20.6191 420.869 26.8145 462.792 22.1113 c 1
 462.85 21.2549 462.891 17.0889 462.901 14.2246 c 1
 449.671 15.5117 409.781 20 361.3 20 c 0
 359.825 20.2295 l 1
336.502 -51.585 m 1
 341.461 -62.2109 350.271 -63 353.3 -63 c 0
 355.7 -63 l 0
 388.07 -63 406.9 -81.7451 406.9 -119 c 0
 406.9 -120 l 2
 406.9 -144.397 399.272 -171.814 362.837 -174.804 c 1
 378.419 -167.422 390.1 -149.614 390.1 -127 c 0
 390.1 -89.6025 362.927 -65.6562 334.556 -57.8994 c 1
 335.628 -54.4102 335.801 -53.8525 336.502 -51.585 c 1
EndSplineSet
EndChar

StartChar: tcommaaccent
Encoding: 355 355 241
Width: 301
GlyphClass: 2
Flags: HW
HStem: -195 36<125.417 198.289> -18 64<177.813 228.368> 363 54<159.708 267.552>
VStem: 95.7028 55.2<55.2482 362.954> 201.303 48.8<-156.256 -91.5187>
LayerCount: 2
Fore
SplineSet
169.518 0.855469 m 1
 162.285 3.30469 l 0
 132.867 13.2637 115.408 46.3701 111.645 104.709 c 1
 110.908 114.835 110.902 123.907 110.902 135 c 0
 110.902 178.482 114.103 333.239 114.103 356 c 0
 114.103 362.422 109.945 385 92.5029 385 c 0
 75.1865 385 l 1
 90.2393 402.029 117.234 432.161 144.314 487.382 c 1
 144.049 467.503 143.703 447.508 143.703 437 c 0
 143.703 425.861 145.895 413.438 153.947 405.17 c 0
 161.63 397.281 170.033 397 175.703 397 c 0
 247.318 397 l 1
 249.164 396.539 250.913 396 254.103 396 c 0
 255.872 396 258.133 395.889 258.786 395.804 c 1
 258.311 391.899 257.085 386.274 256.13 383.082 c 1
 254.351 382.985 254.516 383 253.303 383 c 0
 159.703 383 l 0
 149.394 383 135.703 371.783 135.703 354.053 c 1
 134.903 167.186 134.902 144.012 134.902 120 c 0
 134.902 85.1855 142.709 26 191.703 26 c 0
 230.414 26 259.666 68.5186 273.842 81.54 c 1
 225.505 12.5117 198.752 3.46582 181.763 1.94922 c 0
 169.518 0.855469 l 1
163.78 -51.749 m 1
 168.707 -62.3047 177.474 -63 180.503 -63 c 0
 182.902 -63 l 0
 215.273 -63 234.103 -81.7451 234.103 -119 c 0
 234.103 -120 l 2
 234.103 -144.397 226.476 -171.814 190.04 -174.804 c 1
 205.622 -167.423 217.303 -149.614 217.303 -127 c 0
 217.303 -89.6094 190.062 -65.6377 161.839 -57.9219 c 1
 162.969 -54.3184 163.086 -53.9492 163.78 -51.749 c 1
EndSplineSet
EndChar

StartChar: longs
Encoding: 383 383 261
Width: 231
GlyphClass: 2
Flags: HW
HStem: -6 45<53.4568 102.868 161.403 222.993> 360 48<47.4082 104.786> 653 67<218.548 314.938>
VStem: 106.203 55.2<38.7292 359.683 408.753 564.612>
LayerCount: 2
Fore
SplineSet
167.008 18.9766 m 1
 158.168 19.583 148.356 20 138.203 20 c 0
 106.629 20 80.2402 16.2373 69.0703 14.6055 c 1
 75.1631 15.9941 82.4775 17.0107 93.3408 19.2129 c 1
 117.777 23.2852 118.481 54.3584 118.952 61.4053 c 0
 120.649 87.9365 122.203 155.746 122.203 350 c 0
 122.203 385.731 91.626 379.279 63.9697 380 c 1
 63.0244 380.003 l 1
 63.1201 384.096 63.5762 387.012 63.7803 388 c 1
 64.5811 388 63.6426 387.976 64.4424 388.016 c 0
 93.5488 389.472 120.603 384.411 120.603 418 c 0
 120.603 418.744 l 1
 121.426 457.8 126.005 542.029 152.853 600.984 c 1
 181.562 661.993 242.761 700 285.402 700 c 0
 321.522 700 327.003 676.928 327.003 668 c 0
 327.003 659.381 321.924 649 309.402 649 c 0
 296.244 649 276.164 673 243.003 673 c 0
 168.001 673 144.603 550.023 144.603 436 c 0
 144.603 420.007 145.402 406.735 145.402 365 c 0
 145.402 61 l 0
 145.402 55.0967 144.924 42.8604 152.137 31.3711 c 0
 155.478 26.0479 161.164 21.4619 167.008 18.9766 c 1
204.004 14.9756 m 1
 204.959 14.8965 206.565 14.665 206.661 14.6553 c 1
 206.427 14.6895 204.929 14.8418 204.004 14.9756 c 1
EndSplineSet
EndChar

StartChar: uni0237
Encoding: 567 567 262
Width: 198
GlyphClass: 2
Flags: HW
HStem: -231 77<-11.0134 56.3828> 422 20G<135 139.4>
VStem: 89 56.8<-117.424 346.052>
LayerCount: 2
Fore
SplineSet
74.125 -165.773 m 1
 52.5068 -192.111 28.8389 -211 14.5996 -211 c 0
 4.61328 -211 0.200195 -203.956 0.200195 -197 c 0
 0.200195 -187.037 6.67188 -174 19.4004 -174 c 0
 25.1377 -174 32.0234 -177 43.4004 -177 c 0
 51.2295 -177 62.6934 -174.769 74.125 -165.773 c 1
93.876 -139.564 m 1
 100.783 -123.971 105 -103.329 105 -78 c 0
 105 -59.5449 104.2 -5.95996 104.2 102 c 0
 104.2 228.932 105.8 292.228 105.8 314 c 0
 105.8 320.993 105.509 329.019 102.298 337.325 c 0
 95.0596 356.045 81.377 362.485 58.4668 379.75 c 1
 71.5723 387.053 93.2305 398.29 128.128 416.923 c 1
 127.812 391.519 126.6 335.15 126.6 235 c 0
 126.6 54.9023 129.8 -36.0908 129.8 -65 c 0
 129.8 -79.7363 127.862 -83.9775 120.661 -97.5801 c 1
 117.051 -103.821 107.047 -120.717 93.876 -139.564 c 1
EndSplineSet
EndChar

StartChar: circumflex
Encoding: 710 710 263
Width: 193
GlyphClass: 2
Flags: HW
HStem: 479 221
VStem: 34.2787 146.4<482 499>
LayerCount: 2
Fore
SplineSet
156.622 523.212 m 1
 131.389 578.613 129.311 597 107.879 597 c 0
 85.5771 597 80.9219 573.704 58.165 524.17 c 1
 68.9326 565.286 89.2939 637.304 98.5283 662.956 c 1
 100.553 668.861 104.645 677.729 106.83 679.733 c 1
 114.549 671.981 128.313 626.332 156.622 523.212 c 1
EndSplineSet
EndChar

StartChar: caron
Encoding: 711 711 264
Width: 193
GlyphClass: 2
Flags: HW
HStem: 479 221
VStem: 34.2794 146.4<680 697>
LayerCount: 2
Fore
SplineSet
156.44 653.278 m 1
 145.813 612.564 125.514 540.653 116.46 516.132 c 1
 114.372 510.042 110.34 501.295 108.128 499.267 c 1
 101.064 506.361 84.5234 560.038 58.3545 655.709 c 1
 67.9053 634.762 83.5605 600.754 84.8623 597.821 c 1
 85.5264 596.161 l 1
 86.5859 594.506 l 0
 93.6143 583.523 104.284 582 107.079 582 c 0
 129.203 582 134.203 605.56 156.44 653.278 c 1
EndSplineSet
EndChar

StartChar: breve
Encoding: 728 728 265
Width: 244
GlyphClass: 2
Flags: HW
HStem: 481 68<93.6385 172.586>
VStem: 38.5751 45.6<564.065 630.344>
LayerCount: 2
Fore
SplineSet
62.5361 587.971 m 1
 65.4912 581.424 67.5488 577.432 71.5039 570.783 c 1
 86.2432 547.752 106.115 529 132.175 529 c 0
 132.975 529 l 0
 167.143 529 189.813 559.236 203.214 583.012 c 1
 188.479 539.935 164.893 501 128.975 501 c 0
 106.068 501 80.0889 514.362 62.5361 587.971 c 1
EndSplineSet
EndChar

StartChar: dotaccent
Encoding: 729 729 266
Width: 131
GlyphClass: 2
Flags: HW
HStem: 479 112<37.2039 109.249>
VStem: 26.6 92.8<492.202 577.369>
LayerCount: 2
Fore
SplineSet
42.5996 534 m 0
 42.5996 554.014 57.3652 571 73 571 c 0
 90.2656 571 103.4 554.344 103.4 535 c 0
 103.4 515.963 89.5176 499 73 499 c 0
 55.3457 499 42.5996 514.995 42.5996 534 c 0
EndSplineSet
EndChar

StartChar: ring
Encoding: 730 730 267
Width: 176
GlyphClass: 2
Flags: HW
HStem: 474 39<70.121 126.669> 612 38<70.3614 126.267>
VStem: 30.1 32<522.079 602.575> 134.9 31.2<521.969 601.702>
LayerCount: 2
Fore
SplineSet
98.0996 630 m 0
 126.901 630 150.1 598.848 150.1 562 c 0
 150.1 523.455 126.447 494 98.0996 494 c 0
 70.5137 494 46.0996 523.66 46.0996 562 c 0
 46.0996 599.382 70.6768 630 98.0996 630 c 0
98.0996 632 m 0
 67.7871 632 46.0996 598.438 46.0996 563 c 0
 46.0996 526.661 67.9229 493 98.9004 493 c 0
 131.476 493 150.9 529.519 150.9 562 c 0
 150.9 596.179 129.64 632 98.0996 632 c 0
EndSplineSet
EndChar

StartChar: tilde
Encoding: 732 732 268
Width: 301
GlyphClass: 2
Flags: HW
HStem: 568 54<166.615 244.099> 613 52<82.8889 150.414>
VStem: 45.9586 243.2
LayerCount: 2
Fore
SplineSet
211.559 602 m 0
 220.828 602 231.469 605.369 236.875 608.052 c 1
 235.217 606.411 235.767 606.945 234.614 605.865 c 1
 224.73 596.158 212.202 588 197.959 588 c 0
 168.118 588 158.49 633 112.358 633 c 0
 106.126 633 99.2051 631.312 94.71 629.621 c 1
 103.037 639.517 109.935 645 121.959 645 c 0
 146.46 645 164.054 602 211.559 602 c 0
EndSplineSet
EndChar

StartChar: emdash
Encoding: 8212 8212 270
Width: 961
GlyphClass: 2
Flags: HW
HStem: 224 55<128.528 940.404>
LayerCount: 2
Fore
SplineSet
144.5 250 m 2
 144.5 254 l 0
 144.5 255.776 144.56 258.332 144.586 259 c 1
 924.372 259 l 1
 924.492 256.891 924.5 255.809 924.5 254 c 0
 924.5 252 l 0
 924.5 248.849 924.396 245.383 924.34 244 c 1
 144.559 244 l 1
 144.493 246.337 144.5 247.727 144.5 250 c 2
EndSplineSet
EndChar

StartChar: quoteleft
Encoding: 8216 8216 271
Width: 204
GlyphClass: 2
Flags: HW
HStem: 464 98<88.7266 162.887>
VStem: 54 31.2<567.528 642.282>
LayerCount: 2
Fore
SplineSet
122.8 484 m 0
 103.619 484 70 501.815 70 576 c 0
 70 579.79 70.1318 584.392 70.249 587.212 c 1
 73.9932 565.193 89.5186 542 119.6 542 c 0
 126.173 542 130.973 543 134 543 c 0
 156.078 543 158 528.149 158 520 c 0
 158 506.333 146.905 484 122.8 484 c 0
EndSplineSet
EndChar

StartChar: quoteright
Encoding: 8217 8217 272
Width: 204
GlyphClass: 2
Flags: HW
HStem: 586 98<64.6201 138.726>
VStem: 142 32<505.811 580.483>
LayerCount: 2
Fore
SplineSet
141.98 497.411 m 1
 140.052 494.134 137.63 490.851 136.216 489.16 c 1
 137.991 491.596 139.938 494.338 141.98 497.411 c 1
157.55 557.084 m 1
 155.104 578.666 140.28 606 107.6 606 c 0
 101.027 606 96.2266 605 93.2002 605 c 0
 71.4385 605 70 619.126 70 628 c 0
 70 642.148 80.5479 664 104.4 664 c 0
 123.742 664 158 645.929 158 572 c 0
 158 567 157.83 561.802 157.55 557.084 c 1
EndSplineSet
EndChar

StartChar: quotesinglbase
Encoding: 8218 8218 273
Width: 204
GlyphClass: 2
Flags: HW
HStem: -44 98<64.1131 137.922>
VStem: 141 32<-124.657 -49.5172>
LayerCount: 2
Fore
SplineSet
104.2 34 m 0
 122.6 34 157 16.0225 157 -58 c 0
 157 -62.9229 156.723 -70.0322 156.562 -72.7188 c 1
 153.999 -50.2617 139.444 -24 106.6 -24 c 0
 99.8906 -24 95.8906 -25 93 -25 c 0
 70.9219 -25 69 -10.1494 69 -2 c 0
 69 11.667 80.0957 34 104.2 34 c 0
EndSplineSet
EndChar

StartChar: quotedblleft
Encoding: 8220 8220 274
Width: 374
GlyphClass: 2
Flags: HW
HStem: 464 98<107.273 181.38 259.274 333.38>
VStem: 72 32<567.528 642.751> 224 32<567.528 642.751>
LayerCount: 2
Fore
SplineSet
258.9 655.69 m 1
 259.447 656.475 260.288 657.627 260.571 658.005 c 1
 259.889 657.069 259.515 656.547 258.9 655.69 c 1
240.463 591.163 m 1
 242.826 569.149 257.392 542 290.4 542 c 0
 296.973 542 301.772 543 304.8 543 c 0
 326.562 543 328 528.874 328 520 c 0
 328 505.852 317.452 484 293.6 484 c 0
 274.258 484 240 502.071 240 576 c 0
 240 580.966 240.181 586.359 240.463 591.163 c 1
106.901 655.69 m 1
 107.447 656.475 108.288 657.627 108.571 658.005 c 1
 107.889 657.068 107.515 656.547 106.901 655.69 c 1
88.4639 591.163 m 1
 90.8262 569.149 105.392 542 138.4 542 c 0
 144.973 542 149.772 543 152.8 543 c 0
 174.562 543 176 528.874 176 520 c 0
 176 505.852 165.452 484 141.6 484 c 0
 122.258 484 88 502.071 88 576 c 0
 88 580.966 88.1807 586.359 88.4639 591.163 c 1
EndSplineSet
Substitution2: "'ss01' Style Set 1 in Latin lookup 0 subtable" quotedblleft.001
EndChar

StartChar: quotedblright
Encoding: 8221 8221 275
Width: 374
GlyphClass: 2
Flags: HW
HStem: 586 98<83.1131 156.922 235.113 308.922>
VStem: 160 32<505.343 580.483> 312 32<505.343 580.483>
LayerCount: 2
Fore
SplineSet
123.2 664 m 0
 141.6 664 176 646.021 176 572 c 0
 176 567.077 175.723 559.968 175.562 557.281 c 1
 172.999 579.739 158.444 606 125.6 606 c 0
 118.891 606 114.891 605 112 605 c 0
 89.9219 605 88 619.851 88 628 c 0
 88 641.667 99.0957 664 123.2 664 c 0
275.2 664 m 0
 293.6 664 328 646.021 328 572 c 0
 328 567.077 327.723 559.968 327.562 557.281 c 1
 325 579.739 310.444 606 277.6 606 c 0
 270.892 606 266.892 605 264 605 c 0
 241.922 605 240 619.851 240 628 c 0
 240 641.667 251.095 664 275.2 664 c 0
EndSplineSet
Substitution2: "'ss01' Style Set 1 in Latin lookup 0 subtable" quotedblright.001
EndChar

StartChar: bullet
Encoding: 8226 8226 277
Width: 257
GlyphClass: 2
Flags: HW
HStem: 188 160<99.8275 186.173>
VStem: 79 128<214.034 321.966>
LayerCount: 2
Fore
SplineSet
143 208 m 0
 115.651 208 95 237.495 95 268 c 0
 95 302.186 118.596 328 143 328 c 0
 170.349 328 191 298.505 191 268 c 0
 191 233.814 167.404 208 143 208 c 0
EndSplineSet
EndChar

StartChar: guilsinglleft
Encoding: 8249 8249 280
Width: 199
GlyphClass: 2
Flags: HW
HStem: 52 282<164.13 174.53>
VStem: 38.5296 63.2<170.963 215.713>
LayerCount: 2
Fore
SplineSet
140.35 104.278 m 0
 122.574 123.496 99.46 148.686 58.5361 193.113 c 1
 105.755 243.937 134.082 274.551 150.76 292.318 c 0
139.432 280.166 m 0
 128.657 264.866 112.967 242.664 93.2568 214.694 c 1
 92.9229 214.275 85.7295 206.658 85.7295 194 c 0
 85.7295 173.073 93.2295 170.953 145.597 95.002 c 0
EndSplineSet
EndChar

StartChar: guilsinglright
Encoding: 8250 8250 281
Width: 201
GlyphClass: 2
Flags: HW
HStem: 52 282<49.0209 57.8209>
VStem: 121.021 63.2<170.161 215.625>
LayerCount: 2
Fore
SplineSet
81.0723 103.37 m 1
 77.168 99.1592 74.2773 92.8389 69.9443 88.1582 c 1
 74.834 91.6582 l 0
 81.0723 103.37 l 1
83.665 279.448 m 1
 100.832 261.033 127.179 232.695 164.265 193.031 c 1
 153.792 181.323 132.716 159.02 88.1299 110.978 c 1
 129.946 171.752 137.021 173.473 137.021 193 c 0
 137.021 202.18 133.003 209.94 128.765 215.722 c 1
 83.665 279.448 l 1
EndSplineSet
EndChar

StartChar: fraction
Encoding: 8260 8260 282
Width: 391
GlyphClass: 2
Flags: HW
LayerCount: 2
Fore
SplineSet
71.6484 -166.999 m 1
 70.6904 -166.99 69.3496 -166.919 68.0869 -166.804 c 1
 82.6631 -129.269 140.012 10.8906 364.592 561.921 c 0
 364.955 562.812 364.442 561.585 364.056 560.71 c 1
 365.693 564.124 361.676 560 362.335 560 c 0
 371.845 560 371.136 562 371.136 562 c 0
 371.136 562 371.941 567.271 369.557 558.325 c 0
 369.304 557.376 370.182 560.188 370.491 561.109 c 1
 125.509 -37.4756 80.79 -146.593 71.6484 -166.999 c 1
EndSplineSet
EndChar

StartChar: Euro
Encoding: 8364 8364 283
Width: 642
GlyphClass: 2
Flags: HW
HStem: -14 60<353.137 520.093> 234 62<111.102 167.102 226.302 518.302> 345 61<107.902 167.102 226.302 555.902> 594 60<349.171 519.14>
VStem: 167.102 48.8<296 345>
LayerCount: 2
Fore
SplineSet
432.702 614 m 0
 358.774 614 255.544 565.045 211.266 412.835 c 0
 203.459 386 l 1
 552.054 386 l 1
 545.168 365 l 1
 199.902 365 l 1
 199.902 345 l 0
 199.902 342.353 199.103 333.045 199.103 321 c 0
 199.103 308.062 199.902 298.638 199.902 296 c 0
 199.902 276 l 1
 515.042 276 l 1
 507.662 254 l 1
 204.051 254 l 1
 211.135 227.633 l 0
 249.754 83.8828 355.874 26 431.103 26 c 0
 508.632 26 562.541 69.0137 590.303 98.6807 c 1
 590.303 73.749 l 1
 545.374 30.9902 496.376 6 434.303 6 c 0
 350.582 6 235.154 58.7529 190.39 239.903 c 0
 186.905 254 l 1
 114.806 254 l 1
 121.902 276 l 1
 183.103 276 l 1
 183.103 365 l 1
 111.751 365 l 1
 118.637 386 l 1
 187.103 386 l 1
 190.463 400.4 l 0
 232.759 581.671 359.404 634 427.902 634 c 0
 500.409 634 551.941 610.557 607.272 548.736 c 1
 604.051 539.121 602.287 534.074 600.173 528.089 c 1
 572.295 563.681 516.814 614 432.702 614 c 0
EndSplineSet
EndChar

StartChar: trademark
Encoding: 8482 8482 284
Width: 824
GlyphClass: 2
Flags: HW
HStem: 370 31<196.195 237.789 277.789 319.369 407.555 446.989 480.389 517.606 673.068 714.436 753.084 791.267> 675 36<153.95 237.789 277.789 358.429> 682 23<409.026 441.701>
VStem: 122.589 20.8<620.051 656.362> 237.789 40<400.096 675> 453.789 25.6<401.858 605> 714.589 38.4<398.694 604.998>
LayerCount: 2
Fore
SplineSet
463.69 432.811 m 2
 464.051 414.236 463.508 404.45 468.979 392.961 c 1
 464.569 393.011 465.677 393 463.39 393 c 0
 461.383 393 457.515 392.959 457.192 392.954 c 1
 462.437 402.503 462.729 410.363 463.93 423.216 c 0
 463.69 432.811 l 2
614.775 429 m 1
 606.316 409.645 600.95 397.751 597.412 390.502 c 1
 586.21 415.757 563.545 485.598 497.425 612.188 c 1
 488.931 633.426 480.989 625 480.989 625 c 0
 474.298 625 l 1
 474.49 632.848 474.59 638.636 474.59 642 c 0
 474.59 657.872 464.979 672.362 453.05 685 c 1
 471.773 685 l 1
 544.148 534.546 l 1
 589.188 444.47 594.181 429 614.775 429 c 1
701.82 619.358 m 2
 728.788 681.774 l 1
 729.644 683.914 730.01 685 730.01 685 c 1
 743.471 685 l 1
 737.438 677.472 735.39 669.74 735.39 661 c 0
 735.39 636.966 735.394 613.639 736.989 426.895 c 1
 736.989 421 l 2
 736.989 411.934 737.375 402.484 742.315 392.912 c 1
 739.528 392.97 736.784 393 733.789 393 c 0
 732.189 393 l 0
 729.701 393 725.149 392.946 724.54 392.938 c 1
 731.625 405.429 730.59 414.27 730.59 423 c 0
 730.59 526 l 0
 730.59 585.097 738.309 625 712.989 625 c 0
 708.196 625 l 1
 704.193 621.707 l 0
 703.819 621.399 702.387 620.005 701.82 619.358 c 2
271.379 691 m 1
 260.378 680.107 261.789 665.979 261.789 664 c 0
 261.789 410 l 0
 261.789 406.599 261.838 400.656 265.347 392.972 c 1
 261.987 393.003 262.192 393 260.189 393 c 0
 258.59 393 l 0
 255.172 393 249.714 392.924 248.298 392.896 c 1
 253.896 402.08 253.789 410.381 253.789 416 c 0
 253.789 662 l 0
 253.789 664.602 255.232 680.483 243.214 691 c 1
 271.379 691 l 1
154.869 691 m 1
 151.117 688.154 147.366 682.839 146.424 681.219 c 1
 147.234 685.979 147.881 689.757 148.094 691 c 1
 154.869 691 l 1
357.016 691 m 1
 365.377 691 l 1
 366.05 686.745 366.688 681.986 367.135 678.593 c 1
 364.523 683.44 361.891 687.469 357.016 691 c 1
EndSplineSet
EndChar

StartChar: minus
Encoding: 8722 8722 285
Width: 630
GlyphClass: 2
Flags: HW
HStem: 231 57<112.6 589.363>
LayerCount: 2
Fore
SplineSet
131 251 m 2
 130.097 251 128.86 251.068 128.639 251.084 c 1
 128.589 252.538 128.6 252.186 128.6 253 c 0
 128.6 266 l 0
 128.6 266.706 128.646 267.788 128.65 267.897 c 1
 129.724 267.986 130.542 268 131.8 268 c 0
 573.4 268 l 1
 573.4 255 l 0
 573.4 253.338 573.258 251.762 573.207 251.297 c 1
 571.719 251.057 570.139 251 567.8 251 c 0
 131 251 l 2
EndSplineSet
EndChar

StartChar: f_f
Encoding: 65537 -1 287
Width: 459
GlyphClass: 3
Flags: HW
HStem: 0 37<67.1312 113.695 172.745 231.677 241.832 293.345 351.956 412.504> 360 51<76.4066 115.198 172.706 295.001 351.945 448.165> 630 90<440.81 514.085> 643 62<224.988 300.982>
VStem: 116.701 56<38.2926 360 411 549.4> 295.101 56<38.1114 358.995 411 571.372> 325.501 25.6<608 615>
LayerCount: 2
Fore
SplineSet
319.9 637 m 2
 302.957 637 286.399 663 249.501 663 c 0
 167.898 663 155.9 508.664 155.9 441 c 0
 155.9 424 l 0
 155.9 412.278 162.74 391 180.7 391 c 0
 283.101 391 l 0
 291.054 391 311.101 397.214 311.101 423 c 0
 311.101 431 l 0
 311.101 550.864 341.501 588.401 341.501 613 c 0
 341.501 622.016 334.838 637 322.301 637 c 0
 319.9 637 l 2
109.501 391 m 2
 125.342 391 131.101 411.849 131.101 420 c 0
 131.101 421 l 0
 131.101 478.617 145.107 620.891 242.136 671.581 c 1
 257.593 679.861 273.845 685 289.501 685 c 0
 336.946 685 321.348 647 354.301 647 c 0
 380.812 647 400.622 700 467.9 700 c 0
 502.315 700 507.101 678.105 507.101 670 c 0
 507.101 658.854 500.819 650 490.301 650 c 0
 475.583 650 456.603 675 422.301 675 c 0
 383.874 675 353.181 638.311 339.318 531.288 c 0
 335.894 505.603 335.101 479.529 335.101 454 c 0
 335.101 422 l 0
 335.101 408.243 344.508 391 359.101 391 c 0
 433.209 391 l 1
 432.75 386.35 431.762 381.536 430.926 379.002 c 1
 429.501 379 l 0
 359.101 379 l 0
 341.695 379 335.9 357.017 335.9 348 c 0
 335.9 58 l 0
 335.9 50.2959 336.391 40.3691 342.148 31.4736 c 0
 347.169 23.7168 354.501 20.5449 359.324 19.0674 c 1
 348.523 19.6904 339.12 20 326.301 20 c 0
 307.721 20 289.353 18.8154 277.553 17.7852 c 1
 280.479 18.3721 288.133 17.457 296.769 25.1406 c 0
 311.788 38.502 311.9 61.7451 311.9 100.92 c 0
 312.7 350 l 0
 312.7 363.443 302.998 380 287.9 380 c 0
 183.9 380 l 0
 176.967 380 156.7 374.505 156.7 349 c 0
 156.7 58 l 0
 156.7 53.0352 156.479 42.2793 162.714 31.9219 c 0
 166.406 25.7871 173.152 20.9814 177.82 19.042 c 1
 167.571 19.7031 159.792 20 149.501 20 c 0
 127.13 20 107.152 18.0381 94.2109 16.4277 c 1
 98.1543 17.2715 101.871 18.2061 106.24 19.6152 c 1
 133.628 28.1738 132.7 54.2598 132.7 166 c 0
 132.7 350 l 0
 132.7 371.985 115.29 380 107.101 380 c 0
 91.9053 380 l 1
 91.9688 385.84 92.6123 389.662 92.9268 391 c 1
 109.501 391 l 2
EndSplineSet
Ligature2: "'liga' Standard Ligatures in Latin lookup 1 per glyph data 1" f f
EndChar

